<?xml version="1.0" encoding="utf-8"?>
<!-- Generator: Adobe Illustrator 27.3.1, SVG Export Plug-In . SVG Version: 6.00 Build 0)  -->
<!DOCTYPE svg PUBLIC "-//W3C//DTD SVG 1.1//EN" "http://www.w3.org/Graphics/SVG/1.1/DTD/svg11.dtd" [
	<!ENTITY ns_extend "http://ns.adobe.com/Extensibility/1.0/">
	<!ENTITY ns_ai "http://ns.adobe.com/AdobeIllustrator/10.0/">
	<!ENTITY ns_graphs "http://ns.adobe.com/Graphs/1.0/">
	<!ENTITY ns_vars "http://ns.adobe.com/Variables/1.0/">
	<!ENTITY ns_imrep "http://ns.adobe.com/ImageReplacement/1.0/">
	<!ENTITY ns_sfw "http://ns.adobe.com/SaveForWeb/1.0/">
	<!ENTITY ns_custom "http://ns.adobe.com/GenericCustomNamespace/1.0/">
	<!ENTITY ns_adobe_xpath "http://ns.adobe.com/XPath/1.0/">
]>
<svg version="1.1" id="Layer_1" xmlns:x="&ns_extend;" xmlns:i="&ns_ai;" xmlns:graph="&ns_graphs;"
	 xmlns="http://www.w3.org/2000/svg" xmlns:xlink="http://www.w3.org/1999/xlink" x="0px" y="0px" width="36px" height="44px"
	 viewBox="0 0 36 44" style="enable-background:new 0 0 36 44;" xml:space="preserve">
<style type="text/css">
	.st0{fill:#333333;}
	.st1{fill:#FFFFFF;}
</style>
<metadata>
	<sfw  xmlns="&ns_sfw;">
		<slices></slices>
		<sliceSourceBounds  bottomLeftOrigin="true" height="44" width="36" x="0" y="0"></sliceSourceBounds>
	</sfw>
</metadata>
<path class="st0" d="M0,0h26c5.523,0,10,4.477,10,10v24c0,5.523-4.477,10-10,10H0l0,0V0L0,0z"/>
<path class="st1" d="M20.584,21.551c-0.02-0.026-0.03-0.057-0.053-0.08c0,0,0,0,0,0c0,0,0,0,0,0l-6-6c0,0,0,0,0,0
	c-0.293-0.293-0.768-0.293-1.061-0.001c0,0,0,0,0,0c-0.293,0.293-0.293,0.768,0,1.061l5.47,5.47L13.47,27.47
	c-0.292,0.293-0.292,0.767,0,1.06c0.293,0.292,0.767,0.292,1.06,0l6-6c0.141-0.14,0.22-0.331,0.22-0.53
	C20.75,21.834,20.684,21.681,20.584,21.551z"/>
</svg>
