<svg xmlns="http://www.w3.org/2000/svg" xmlns:xlink="http://www.w3.org/1999/xlink" width="201.239" height="40" viewBox="0 0 201.239 40">
  <defs>
    <clipPath id="clip-path">
      <rect id="사각형_1343" data-name="사각형 1343" width="4.752" height="18.459" fill="#ffce00"/>
    </clipPath>
    <clipPath id="clip-path-2">
      <rect id="사각형_1344" data-name="사각형 1344" width="15.491" height="4.752" fill="#ffce00"/>
    </clipPath>
  </defs>
  <g id="그룹_101" data-name="그룹 101" transform="translate(-359.999 -20)">
    <path id="패스_97" data-name="패스 97" d="M16.294,13.925l0-.017v-1.1l0,.027v1.091" transform="translate(369.481 27.576)" fill="#f7b900"/>
    <path id="패스_98" data-name="패스 98" d="M44.926,13.936a2.363,2.363,0,0,0-1.743-.778,2.392,2.392,0,0,0-2.355,2.169c-.569,5.214-4.415,8.24-7.919,8.537A8.22,8.22,0,0,1,26.96,22.2a9.472,9.472,0,0,1-3.733-6.83,2.4,2.4,0,0,0-2.365-2.2,2.326,2.326,0,0,0-1.707.74,2.5,2.5,0,0,0-.669,1.851,14.4,14.4,0,0,0,6.766,11.144,13.036,13.036,0,0,0,14.93-.979,14.324,14.324,0,0,0,5.366-10.114,2.439,2.439,0,0,0-.622-1.878" transform="translate(370.754 27.893)" fill="#ffce00"/>
    <path id="패스_99" data-name="패스 99" d="M25.114.806A2.451,2.451,0,0,0,23.3,0a2.482,2.482,0,0,0-2.476,2.49V12.968a12.086,12.086,0,0,0-9.969-2.615A12.968,12.968,0,1,0,25.772,23c0-.462,0-.965,0-1.486v-1.1l0-.027V2.31a2.047,2.047,0,0,0-.661-1.5m-4.3,22.822a7.958,7.958,0,1,1-7.984-8.495,8,8,0,0,1,7.984,8.495" transform="translate(360 20)" fill="#ffce00"/>
    <g id="그룹_90" data-name="그룹 90" transform="translate(411.881 20)" opacity="0.6">
      <g id="그룹_89" data-name="그룹 89">
        <g id="그룹_88" data-name="그룹 88" clip-path="url(#clip-path)">
          <path id="패스_100" data-name="패스 100" d="M34.974,18.459A2.375,2.375,0,0,1,32.6,16.083V2.376a2.376,2.376,0,0,1,4.752,0V16.083a2.375,2.375,0,0,1-2.376,2.376" transform="translate(-32.599)" fill="#ffce00"/>
        </g>
      </g>
    </g>
    <g id="그룹_93" data-name="그룹 93" transform="translate(406.495 25.369)" opacity="0.45">
      <g id="그룹_92" data-name="그룹 92">
        <g id="그룹_91" data-name="그룹 91" clip-path="url(#clip-path-2)">
          <path id="패스_101" data-name="패스 101" d="M42.319,8.146H31.58a2.376,2.376,0,0,1,0-4.752H42.319a2.376,2.376,0,1,1,0,4.752" transform="translate(-29.204 -3.394)" fill="#ffce00"/>
        </g>
      </g>
    </g>
    <path id="패스_102" data-name="패스 102" d="M40.342,5.37H37.351v-3a2.376,2.376,0,0,0-4.752,0V6.492a3.63,3.63,0,0,0,3.63,3.63h4.118a2.376,2.376,0,0,0,0-4.752" transform="translate(379.292 20)" fill="#ffce00"/>
    <path id="패스_103" data-name="패스 103" d="M131.65,17.893a7.108,7.108,0,0,0-2.688-1.677A37.063,37.063,0,0,0,124.972,15c-.4-.114-.842-.22-1.289-.327-.528-.128-1.028-.248-1.351-.358a3.552,3.552,0,0,1-1.243-.656.972.972,0,0,1-.31-.789,1.219,1.219,0,0,1,.4-.992,2.775,2.775,0,0,1,1.247-.6,7.665,7.665,0,0,1,1.651-.18,10.634,10.634,0,0,1,3.287.5,8.34,8.34,0,0,1,1.394.68l.31.138.008-.008a2.1,2.1,0,0,0,.707.122,2.068,2.068,0,0,0,2.1-2.033,1.99,1.99,0,0,0-.794-1.583c-.036-.028-.215-.149-.251-.169a9.5,9.5,0,0,0-1.982-.925,13.176,13.176,0,0,0-4.133-.63,11.884,11.884,0,0,0-4.228.7,6.749,6.749,0,0,0-2.941,2.055,5.184,5.184,0,0,0-1.106,3.317,4.33,4.33,0,0,0,.835,2.724,5.934,5.934,0,0,0,2.359,1.708,28.494,28.494,0,0,0,3.618,1.247c.468.12.995.234,1.5.343.562.123,1.093.237,1.466.345a5.334,5.334,0,0,1,1.555.666.936.936,0,0,1,.38.846,1.385,1.385,0,0,1-.837,1.3,7.442,7.442,0,0,1-3.1.549,9.477,9.477,0,0,1-3.312-.62,11.789,11.789,0,0,1-1.995-.993l-.285-.138,0,0a2.116,2.116,0,0,0-.793-.153,2.038,2.038,0,0,0-2.067,2,1.966,1.966,0,0,0,.617,1.428,3.665,3.665,0,0,0,.525.356,11.375,11.375,0,0,0,2.586,1.269,15.06,15.06,0,0,0,4.878.789,10.341,10.341,0,0,0,5.949-1.555,5.2,5.2,0,0,0,2.363-4.508,4.19,4.19,0,0,0-1.036-2.979" transform="translate(428.551 24.317)" fill="#070406"/>
    <path id="패스_104" data-name="패스 104" d="M119.414,7.653A2.447,2.447,0,0,0,116.97,10.1v5.524a7.36,7.36,0,0,1-1.4,4.557,5.791,5.791,0,0,1-8.5-.016,7.341,7.341,0,0,1-1.384-4.542V10.1a2.444,2.444,0,1,0-4.888,0v5.948a11.119,11.119,0,0,0,2.794,7.632,11.737,11.737,0,0,0,15.469,0,11.118,11.118,0,0,0,2.79-7.629V10.1a2.447,2.447,0,0,0-2.444-2.444" transform="translate(419.846 24.591)" fill="#070406"/>
    <path id="패스_105" data-name="패스 105" d="M69.194,2.2a2.316,2.316,0,0,0-1.715-.756,2.341,2.341,0,0,0-2.34,2.34v7.58a10.045,10.045,0,0,0-7.656-1.7,10.636,10.636,0,0,0-4.655,19.076,10.676,10.676,0,0,0,6.323,2.11,10.048,10.048,0,0,0,2.06-.212,10.6,10.6,0,0,0,8.607-10.578v-1.64l0-.432h0c0-4.417,0-14.347,0-14.347A1.944,1.944,0,0,0,69.194,2.2M65.129,20.538a6.047,6.047,0,0,1-5.586,5.606,5.988,5.988,0,1,1-.429-11.962h.022a5.989,5.989,0,0,1,5.992,6.356" transform="translate(388.734 20.843)" fill="#070406"/>
    <path id="패스_106" data-name="패스 106" d="M97.461,1.207a2.343,2.343,0,0,0-2.341,2.34V26.824a2.343,2.343,0,0,0,2.341,2.34,2.3,2.3,0,0,0,1.694-.736,2,2,0,0,0,.644-1.462V3.4a1.949,1.949,0,0,0-.623-1.441,2.321,2.321,0,0,0-1.715-.756" transform="translate(416.264 20.702)" fill="#070406"/>
    <path id="패스_107" data-name="패스 107" d="M96.5,8.658a10.645,10.645,0,0,0-16.988,8.68c0,.367,0,16.276,0,16.276v.142a1.941,1.941,0,0,0,.626,1.441,2.306,2.306,0,0,0,1.713.756,2.343,2.343,0,0,0,2.341-2.34V26.032a10.042,10.042,0,0,0,7.656,1.7,10.5,10.5,0,0,0,8.925-11.66A10.483,10.483,0,0,0,96.5,8.658M90.209,23.219h-.021a5.987,5.987,0,0,1-.408-11.962c.131-.008.259-.013.389-.013a5.987,5.987,0,0,1,.04,11.975" transform="translate(407.099 24.047)" fill="#070406"/>
    <path id="패스_108" data-name="패스 108" d="M82.778,7.655a2.455,2.455,0,0,0-2.452,2.452v5.538a7.377,7.377,0,0,1-1.4,4.57,5.808,5.808,0,0,1-8.52-.016,7.368,7.368,0,0,1-1.387-4.554V10.107a2.451,2.451,0,1,0-4.9,0v5.964a11.149,11.149,0,0,0,2.8,7.653,10.59,10.59,0,0,0,7.754,2.915,10.59,10.59,0,0,0,7.759-2.92,11.143,11.143,0,0,0,2.8-7.648V10.107a2.454,2.454,0,0,0-2.45-2.452" transform="translate(397.982 24.592)" fill="#070406"/>
  </g>
</svg>
