<?xml version="1.0" encoding="utf-8"?>
<!-- Generator: Adobe Illustrator 27.4.0, SVG Export Plug-In . SVG Version: 6.00 Build 0)  -->
<!DOCTYPE svg PUBLIC "-//W3C//DTD SVG 1.1//EN" "http://www.w3.org/Graphics/SVG/1.1/DTD/svg11.dtd" [
	<!ENTITY ns_extend "http://ns.adobe.com/Extensibility/1.0/">
	<!ENTITY ns_ai "http://ns.adobe.com/AdobeIllustrator/10.0/">
	<!ENTITY ns_graphs "http://ns.adobe.com/Graphs/1.0/">
	<!ENTITY ns_vars "http://ns.adobe.com/Variables/1.0/">
	<!ENTITY ns_imrep "http://ns.adobe.com/ImageReplacement/1.0/">
	<!ENTITY ns_sfw "http://ns.adobe.com/SaveForWeb/1.0/">
	<!ENTITY ns_custom "http://ns.adobe.com/GenericCustomNamespace/1.0/">
	<!ENTITY ns_adobe_xpath "http://ns.adobe.com/XPath/1.0/">
]>
<svg version="1.1" id="Layer_1" xmlns:x="&ns_extend;" xmlns:i="&ns_ai;" xmlns:graph="&ns_graphs;"
	 xmlns="http://www.w3.org/2000/svg" xmlns:xlink="http://www.w3.org/1999/xlink" x="0px" y="0px" width="15.2px" height="13.9px"
	 viewBox="0 0 15.2 13.9" style="enable-background:new 0 0 15.2 13.9;" xml:space="preserve">
<style type="text/css">
	.st0{fill:#333333;}
</style>
<metadata>
	<sfw  xmlns="&ns_sfw;">
		<slices></slices>
		<sliceSourceBounds  bottomLeftOrigin="true" height="13.9" width="15.2" x="0" y="-13.9"></sliceSourceBounds>
	</sfw>
</metadata>
<path class="st0" d="M11.5,4.4C11.5,4.4,11.5,4.4,11.5,4.4c-0.3-0.3-0.8-0.3-1.1,0L8.2,6.6c0,0,0,0,0,0v-6C8.2,0.3,7.9,0,7.6,0
	S7,0.3,7,0.6v6c0,0,0,0,0,0L4.8,4.4C4.5,4.1,4,4.1,3.7,4.4c-0.3,0.3-0.3,0.8,0,1.1l3.3,3.3C7.2,8.9,7.4,9,7.6,9C7.8,9,8,8.9,8.1,8.8
	l3.3-3.3c0,0,0,0,0,0C11.8,5.2,11.8,4.7,11.5,4.4z M7.6,7.2C7.6,7.2,7.6,7.2,7.6,7.2L7.6,7.2L7.6,7.2C7.6,7.2,7.6,7.2,7.6,7.2z"/>
<path class="st0" d="M14,13.9H1.2c-0.7,0-1.2-0.6-1.2-1.3V9.3c0-0.3,0.3-0.6,0.6-0.6c0.3,0,0.6,0.3,0.6,0.6v3.3c0,0,0,0,0,0.1H14
	c0,0,0,0,0-0.1V9.3c0-0.3,0.3-0.6,0.6-0.6c0.3,0,0.6,0.3,0.6,0.6v3.3C15.2,13.3,14.7,13.9,14,13.9z"/>
</svg>
