<?xml version="1.0" encoding="utf-8"?>
<!-- Generator: Adobe Illustrator 27.4.0, SVG Export Plug-In . SVG Version: 6.00 Build 0)  -->
<!DOCTYPE svg PUBLIC "-//W3C//DTD SVG 1.1//EN" "http://www.w3.org/Graphics/SVG/1.1/DTD/svg11.dtd" [
	<!ENTITY ns_extend "http://ns.adobe.com/Extensibility/1.0/">
	<!ENTITY ns_ai "http://ns.adobe.com/AdobeIllustrator/10.0/">
	<!ENTITY ns_graphs "http://ns.adobe.com/Graphs/1.0/">
	<!ENTITY ns_vars "http://ns.adobe.com/Variables/1.0/">
	<!ENTITY ns_imrep "http://ns.adobe.com/ImageReplacement/1.0/">
	<!ENTITY ns_sfw "http://ns.adobe.com/SaveForWeb/1.0/">
	<!ENTITY ns_custom "http://ns.adobe.com/GenericCustomNamespace/1.0/">
	<!ENTITY ns_adobe_xpath "http://ns.adobe.com/XPath/1.0/">
]>
<svg version="1.1" id="Layer_1" xmlns:x="&ns_extend;" xmlns:i="&ns_ai;" xmlns:graph="&ns_graphs;"
	 xmlns="http://www.w3.org/2000/svg" xmlns:xlink="http://www.w3.org/1999/xlink" x="0px" y="0px" width="16px" height="16px"
	 viewBox="0 0 16 16" style="enable-background:new 0 0 16 16;" xml:space="preserve">
<style type="text/css">
	.st0{display:none;fill:#555555;}
	.st1{fill:#999999;}
</style>
<metadata>
	<sfw  xmlns="&ns_sfw;">
		<slices></slices>
		<sliceSourceBounds  bottomLeftOrigin="true" height="24" width="16" x="0" y="-16"></sliceSourceBounds>
	</sfw>
</metadata>
<path class="st0" d="M5-8L5-8c0.6,0,1,0.4,1,1l0,0c0,0.6-0.4,1-1,1l0,0C4.4-6,4-6.4,4-7l0,0C4-7.6,4.4-8,5-8z"/>
<path class="st0" d="M5-5L5-5c0.6,0,1,0.4,1,1l0,0c0,0.6-0.4,1-1,1l0,0C4.4-3,4-3.4,4-4l0,0C4-4.6,4.4-5,5-5z"/>
<path class="st0" d="M8-8L8-8c0.6,0,1,0.4,1,1l0,0c0,0.6-0.4,1-1,1l0,0C7.4-6,7-6.4,7-7l0,0C7-7.6,7.4-8,8-8z"/>
<path class="st0" d="M11-8L11-8c0.6,0,1,0.4,1,1l0,0c0,0.6-0.4,1-1,1l0,0c-0.6,0-1-0.4-1-1l0,0C10-7.6,10.4-8,11-8z"/>
<path class="st0" d="M8-5L8-5c0.6,0,1,0.4,1,1l0,0c0,0.6-0.4,1-1,1l0,0C7.4-3,7-3.4,7-4l0,0C7-4.6,7.4-5,8-5z"/>
<path class="st0" d="M11-5L11-5c0.6,0,1,0.4,1,1l0,0c0,0.6-0.4,1-1,1l0,0c-0.6,0-1-0.4-1-1l0,0C10-4.6,10.4-5,11-5z"/>
<g>
	<path class="st1" d="M14,3c0.551,0,1,0.449,1,1v10c0,0.551-0.449,1-1,1H2c-0.551,0-1-0.449-1-1V4c0-0.551,0.449-1,1-1H14 M14,2H2
		C0.895,2,0,2.895,0,4v10c0,1.105,0.895,2,2,2h12c1.105,0,2-0.895,2-2V4C16,2.895,15.105,2,14,2L14,2z"/>
</g>
<rect y="7" class="st1" width="16" height="1"/>
<path class="st1" d="M4.5,5L4.5,5C4.224,5,4,4.776,4,4.5v-4C4,0.224,4.224,0,4.5,0h0C4.776,0,5,0.224,5,0.5v4C5,4.776,4.776,5,4.5,5
	z"/>
<path class="st1" d="M11.5,5L11.5,5C11.224,5,11,4.776,11,4.5v-4C11,0.224,11.224,0,11.5,0h0C11.776,0,12,0.224,12,0.5v4
	C12,4.776,11.776,5,11.5,5z"/>
</svg>
