<?xml version="1.0" encoding="utf-8"?>
<!-- Generator: Adobe Illustrator 27.3.1, SVG Export Plug-In . SVG Version: 6.00 Build 0)  -->
<!DOCTYPE svg PUBLIC "-//W3C//DTD SVG 1.1//EN" "http://www.w3.org/Graphics/SVG/1.1/DTD/svg11.dtd" [
	<!ENTITY ns_extend "http://ns.adobe.com/Extensibility/1.0/">
	<!ENTITY ns_ai "http://ns.adobe.com/AdobeIllustrator/10.0/">
	<!ENTITY ns_graphs "http://ns.adobe.com/Graphs/1.0/">
	<!ENTITY ns_vars "http://ns.adobe.com/Variables/1.0/">
	<!ENTITY ns_imrep "http://ns.adobe.com/ImageReplacement/1.0/">
	<!ENTITY ns_sfw "http://ns.adobe.com/SaveForWeb/1.0/">
	<!ENTITY ns_custom "http://ns.adobe.com/GenericCustomNamespace/1.0/">
	<!ENTITY ns_adobe_xpath "http://ns.adobe.com/XPath/1.0/">
]>
<svg version="1.1" id="Layer_1" xmlns:x="&ns_extend;" xmlns:i="&ns_ai;" xmlns:graph="&ns_graphs;"
	 xmlns="http://www.w3.org/2000/svg" xmlns:xlink="http://www.w3.org/1999/xlink" x="0px" y="0px" width="16px" height="16.5px"
	 viewBox="0 0 16 16.5" style="enable-background:new 0 0 16 16.5;" xml:space="preserve">
<style type="text/css">
	.st0{fill:#555555;}
</style>
<metadata>
	<sfw  xmlns="&ns_sfw;">
		<slices></slices>
		<sliceSourceBounds  bottomLeftOrigin="true" height="16.5" width="16" x="0" y="0"></sliceSourceBounds>
	</sfw>
</metadata>
<path class="st0" d="M5,8.5L5,8.5c0.552,0,1,0.448,1,1l0,0c0,0.552-0.448,1-1,1l0,0c-0.552,0-1-0.448-1-1l0,0
	C4,8.948,4.448,8.5,5,8.5z"/>
<path class="st0" d="M5,11.5L5,11.5c0.552,0,1,0.448,1,1l0,0c0,0.552-0.448,1-1,1l0,0c-0.552,0-1-0.448-1-1l0,0
	C4,11.948,4.448,11.5,5,11.5z"/>
<path class="st0" d="M8,8.5L8,8.5c0.552,0,1,0.448,1,1l0,0c0,0.552-0.448,1-1,1l0,0c-0.552,0-1-0.448-1-1l0,0
	C7,8.948,7.448,8.5,8,8.5z"/>
<path class="st0" d="M11,8.5L11,8.5c0.552,0,1,0.448,1,1l0,0c0,0.552-0.448,1-1,1l0,0c-0.552,0-1-0.448-1-1l0,0
	C10,8.948,10.448,8.5,11,8.5z"/>
<path class="st0" d="M8,11.5L8,11.5c0.552,0,1,0.448,1,1l0,0c0,0.552-0.448,1-1,1l0,0c-0.552,0-1-0.448-1-1l0,0
	C7,11.948,7.448,11.5,8,11.5z"/>
<path class="st0" d="M11,11.5L11,11.5c0.552,0,1,0.448,1,1l0,0c0,0.552-0.448,1-1,1l0,0c-0.552,0-1-0.448-1-1l0,0
	C10,11.948,10.448,11.5,11,11.5z"/>
<path class="st0" d="M14,1.5h-2v-1C12,0.224,11.776,0,11.5,0S11,0.224,11,0.5v1H5v-1C5,0.224,4.776,0,4.5,0S4,0.224,4,0.5v1H2
	c-1.103,0-2,0.897-2,2v11c0,1.103,0.897,2,2,2h12c1.103,0,2-0.897,2-2v-11C16,2.397,15.103,1.5,14,1.5z M15,14.5
	c0,0.552-0.448,1-1,1H2c-0.551,0-1-0.448-1-1v-8h14V14.5z M15,5.5H1v-2c0-0.551,0.449-1,1-1h2v1C4,3.776,4.224,4,4.5,4
	S5,3.776,5,3.5v-1h6v1C11,3.776,11.224,4,11.5,4S12,3.776,12,3.5v-1h2c0.552,0,1,0.449,1,1V5.5z"/>
</svg>
