<?xml version="1.0" encoding="utf-8"?>
<!-- Generator: Adobe Illustrator 26.5.0, SVG Export Plug-In . SVG Version: 6.00 Build 0)  -->
<!DOCTYPE svg PUBLIC "-//W3C//DTD SVG 1.1//EN" "http://www.w3.org/Graphics/SVG/1.1/DTD/svg11.dtd" [
	<!ENTITY ns_extend "http://ns.adobe.com/Extensibility/1.0/">
	<!ENTITY ns_ai "http://ns.adobe.com/AdobeIllustrator/10.0/">
	<!ENTITY ns_graphs "http://ns.adobe.com/Graphs/1.0/">
	<!ENTITY ns_vars "http://ns.adobe.com/Variables/1.0/">
	<!ENTITY ns_imrep "http://ns.adobe.com/ImageReplacement/1.0/">
	<!ENTITY ns_sfw "http://ns.adobe.com/SaveForWeb/1.0/">
	<!ENTITY ns_custom "http://ns.adobe.com/GenericCustomNamespace/1.0/">
	<!ENTITY ns_adobe_xpath "http://ns.adobe.com/XPath/1.0/">
]>
<svg version="1.1" id="icon_date" xmlns:x="&ns_extend;" xmlns:i="&ns_ai;" xmlns:graph="&ns_graphs;"
	 xmlns="http://www.w3.org/2000/svg" xmlns:xlink="http://www.w3.org/1999/xlink" x="0px" y="0px" width="34px" height="34px"
	 viewBox="0 0 34 34" style="enable-background:new 0 0 34 34;" xml:space="preserve">
<style type="text/css">
	.st0{fill:#CCCCCC;}
</style>
<metadata>
	<sfw  xmlns="&ns_sfw;">
		<slices></slices>
		<sliceSourceBounds  bottomLeftOrigin="true" height="16" width="16" x="9" y="9"></sliceSourceBounds>
	</sfw>
</metadata>
<path class="st0" d="M23,9H11c-1.105,0-2,0.895-2,2v3v9c0,1.103,0.897,2,2,2h12c1.103,0,2-0.897,2-2v-9v-3C25,9.895,24.105,9,23,9z
	 M24,23c0,0.552-0.448,1-1,1H11c-0.551,0-1-0.448-1-1v-9h14V23z"/>
<rect id="Rectangle_1903" x="16" y="16" class="st0" width="2" height="2"/>
<rect id="Rectangle_1913" x="13" y="16" class="st0" width="2" height="2"/>
<rect id="Rectangle_1911" x="16" y="19.5" class="st0" width="2" height="2"/>
<rect id="Rectangle_1914" x="13" y="19.5" class="st0" width="2" height="2"/>
<rect id="Rectangle_1910" x="19" y="16" class="st0" width="2" height="2"/>
<rect id="Rectangle_1912" x="19" y="19.5" class="st0" width="2" height="2"/>
</svg>
