<?xml version="1.0" encoding="utf-8"?>
<!-- Generator: Adobe Illustrator 27.3.1, SVG Export Plug-In . SVG Version: 6.00 Build 0)  -->
<!DOCTYPE svg PUBLIC "-//W3C//DTD SVG 1.1//EN" "http://www.w3.org/Graphics/SVG/1.1/DTD/svg11.dtd" [
	<!ENTITY ns_extend "http://ns.adobe.com/Extensibility/1.0/">
	<!ENTITY ns_ai "http://ns.adobe.com/AdobeIllustrator/10.0/">
	<!ENTITY ns_graphs "http://ns.adobe.com/Graphs/1.0/">
	<!ENTITY ns_vars "http://ns.adobe.com/Variables/1.0/">
	<!ENTITY ns_imrep "http://ns.adobe.com/ImageReplacement/1.0/">
	<!ENTITY ns_sfw "http://ns.adobe.com/SaveForWeb/1.0/">
	<!ENTITY ns_custom "http://ns.adobe.com/GenericCustomNamespace/1.0/">
	<!ENTITY ns_adobe_xpath "http://ns.adobe.com/XPath/1.0/">
]>
<svg version="1.1" id="Layer_1" xmlns:x="&ns_extend;" xmlns:i="&ns_ai;" xmlns:graph="&ns_graphs;"
	 xmlns="http://www.w3.org/2000/svg" xmlns:xlink="http://www.w3.org/1999/xlink" x="0px" y="0px" width="201.532px" height="40px"
	 viewBox="0 0 201.532 40" style="enable-background:new 0 0 201.532 40;" xml:space="preserve">
<style type="text/css">
	.st0{fill:#F7B900;}
	.st1{fill:#FFCE00;}
	.st2{opacity:0.6;}
	.st3{clip-path:url(#SVGID_00000133503644413178003250000002842473247339632274_);}
	.st4{clip-path:url(#SVGID_00000128468747957080873160000012732258009287703474_);}
	.st5{fill:#070406;}
</style>
<metadata>
	<sfw  xmlns="&ns_sfw;">
		<slices></slices>
		<sliceSourceBounds  bottomLeftOrigin="true" height="40.006" width="201.601" x="-0.069" y="0"></sliceSourceBounds>
	</sfw>
</metadata>
<path class="st0" d="M26.032,21.5L26.032,21.5v-1.1l0,0V21.5"/>
<path class="st1" d="M55.932,21.8c-0.426-0.498-1.045-0.789-1.7-0.8c-1.239,0.026-2.266,0.968-2.4,2.2c-0.6,5.2-4.4,8.2-7.9,8.5
	c-2.112,0.214-4.225-0.395-5.9-1.7c-2.176-1.61-3.529-4.099-3.7-6.8c-0.104-1.247-1.149-2.204-2.4-2.2
	c-0.633,0.019-1.237,0.268-1.7,0.7c-0.477,0.515-0.728,1.199-0.7,1.9c0.334,4.583,2.868,8.721,6.8,11.1
	c4.678,2.853,10.645,2.452,14.9-1c3.123-2.472,5.079-6.13,5.4-10.1C56.595,22.941,56.35,22.311,55.932,21.8"/>
<path class="st1" d="M25.332,0.8c-0.465-0.502-1.116-0.791-1.8-0.8c-1.367-0.013-2.487,1.084-2.5,2.452c0,0.016,0,0.032,0,0.048l0,0
	V13c-2.773-2.325-6.445-3.28-10-2.6C3.929,11.45-0.977,18.059,0.073,25.161c1.05,7.103,7.659,12.009,14.761,10.959
	c6.436-0.951,11.178-6.515,11.098-13.021v-2.6l0,0V2.3C25.994,1.731,25.769,1.169,25.332,0.8 M21.032,23.6
	c-0.138,4.556-3.944,8.138-8.5,8c-4.556-0.138-8.138-3.944-8-8.5s3.944-8.138,8.5-8c4.362,0.132,7.868,3.638,8,8V23.6"/>
<g transform="translate(411.881 20)" class="st2">
	<g>
		<defs>
			<rect id="SVGID_1_" x="-359.768" y="-20" width="4.8" height="18.5"/>
		</defs>
		<clipPath id="SVGID_00000111907485891109982070000001372531029024969363_">
			<use xlink:href="#SVGID_1_"  style="overflow:visible;"/>
		</clipPath>
		<g style="clip-path:url(#SVGID_00000111907485891109982070000001372531029024969363_);">
			<path class="st1" d="M-357.368-1.5c-1.318-0.018-2.382-1.082-2.4-2.4l0,0v-13.7c0.018-1.318,1.082-2.382,2.4-2.4
				c1.318,0.018,2.382,1.082,2.4,2.4v13.7C-354.986-2.582-356.05-1.518-357.368-1.5L-357.368-1.5"/>
		</g>
	</g>
</g>
<g transform="translate(406.495 25.369)" class="st2">
	<g>
		<defs>
			<rect id="SVGID_00000034060277378789767960000016836649430494248349_" x="-359.768" y="-20" width="15.5" height="4.8"/>
		</defs>
		<clipPath id="SVGID_00000155835276147966588710000012605416324584663478_">
			<use xlink:href="#SVGID_00000034060277378789767960000016836649430494248349_"  style="overflow:visible;"/>
		</clipPath>
		<g style="clip-path:url(#SVGID_00000155835276147966588710000012605416324584663478_);">
			<path class="st1" d="M-346.668-15.2h-10.7c-1.318-0.018-2.382-1.082-2.4-2.4c0.018-1.318,1.082-2.382,2.4-2.4h10.7
				c1.318,0.018,2.382,1.082,2.4,2.4C-344.286-16.282-345.35-15.218-346.668-15.2L-346.668-15.2"/>
		</g>
	</g>
</g>
<path class="st1" d="M59.832,5.4h-3v-3c0.003-1.325-1.069-2.402-2.395-2.405s-2.402,1.069-2.405,2.395c0,0.004,0,0.007,0,0.011v4.1
	c-0.008,1.98,1.59,3.592,3.57,3.6c0.01,0,0.02,0,0.03,0h4.1c1.318-0.018,2.382-1.082,2.4-2.4c0.085-1.185-0.806-2.215-1.991-2.3
	C60.038,5.393,59.935,5.393,59.832,5.4"/>
<path class="st5" d="M200.432,22.2c-0.772-0.749-1.691-1.328-2.7-1.7c-1.3-0.505-2.637-0.906-4-1.2c-0.4-0.1-0.8-0.2-1.3-0.3
	c-0.482-0.073-0.952-0.208-1.4-0.4c-0.46-0.11-0.878-0.353-1.2-0.7c-0.2-0.217-0.308-0.504-0.3-0.8c-0.02-0.376,0.127-0.741,0.4-1
	c0.356-0.278,0.764-0.482,1.2-0.6c0.559-0.122,1.128-0.189,1.7-0.2c1.117,0.019,2.227,0.187,3.3,0.5
	c0.495,0.172,0.965,0.408,1.4,0.7l0.3,0.1l0,0c0.224,0.082,0.462,0.116,0.7,0.1c1.103,0.057,2.044-0.791,2.101-1.894
	c0.035-0.667-0.266-1.307-0.801-1.706c-0.108-0.054-0.209-0.121-0.3-0.2c-0.617-0.4-1.291-0.704-2-0.9
	c-1.329-0.402-2.711-0.604-4.1-0.6c-1.431-0.02-2.853,0.217-4.2,0.7c-1.156,0.392-2.167,1.124-2.9,2.1
	c-0.717,0.951-1.103,2.109-1.1,3.3c0.004,0.958,0.282,1.895,0.8,2.7c0.623,0.783,1.455,1.372,2.4,1.7
	c1.168,0.489,2.372,0.891,3.6,1.2l1.5,0.3c0.6,0.1,1.1,0.2,1.5,0.3c0.573,0.129,1.116,0.367,1.6,0.7
	c0.264,0.178,0.416,0.482,0.4,0.8c0.03,0.558-0.288,1.076-0.8,1.3c-0.977,0.416-2.041,0.587-3.1,0.5
	c-1.128,0.004-2.246-0.199-3.3-0.6c-0.695-0.273-1.365-0.607-2-1l-0.3-0.1l0,0c-0.253-0.113-0.524-0.181-0.8-0.2
	c-1.109,0.03-2.016,0.894-2.1,2c-0.015,0.532,0.204,1.044,0.6,1.4c0.2,0.1,0.3,0.3,0.5,0.4c0.814,0.532,1.686,0.968,2.6,1.3
	c1.583,0.517,3.235,0.786,4.9,0.8c2.09,0.138,4.166-0.425,5.9-1.6c1.5-1.006,2.4-2.694,2.4-4.5
	C201.477,23.902,201.09,22.952,200.432,22.2"/>
<path class="st5" d="M179.532,12.2c-1.308-0.017-2.383,1.029-2.4,2.338c0,0.021,0,0.042,0,0.062v5.5
	c0.079,1.649-0.416,3.274-1.4,4.6c-2.188,2.334-5.848,2.468-8.2,0.3l-0.3-0.3c-0.952-1.304-1.445-2.886-1.4-4.5v-5.5
	c-0.003-1.325-1.08-2.398-2.405-2.395c-1.321,0.003-2.392,1.073-2.395,2.395v5.9c-0.097,2.802,0.909,5.53,2.8,7.6
	c4.431,3.9,11.069,3.9,15.5,0c1.891-2.07,2.897-4.798,2.8-7.6v-6C181.955,13.279,180.863,12.271,179.532,12.2"/>
<path class="st5" d="M98.132,3c-0.426-0.498-1.045-0.789-1.7-0.8c-1.25-0.021-2.279,0.976-2.3,2.225c0,0.025,0,0.05,0,0.075v7.6
	c-2.226-1.597-5.009-2.211-7.7-1.7c-5.816,0.929-9.791,6.378-8.9,12.2c0.831,5.163,5.271,8.969,10.5,9
	c0.704-0.017,1.406-0.084,2.1-0.2c5.075-0.951,8.715-5.438,8.6-10.6v-2l0,0V4.5C98.794,3.931,98.569,3.369,98.132,3 M94.132,21.4
	c-0.221,3.314-3.086,5.82-6.4,5.599c-3.314-0.221-5.82-3.086-5.599-6.4c0.201-3.005,2.594-5.399,5.599-5.599h0.4
	c3.31,0.01,5.99,2.69,6,6V21.4"/>
<path class="st5" d="M153.932,1.9c-1.25-0.021-2.279,0.976-2.3,2.225c0,0.025,0,0.05,0,0.075v23.3
	c-0.021,1.25,0.976,2.279,2.225,2.3c0.025,0,0.05,0,0.075,0c0.633-0.019,1.237-0.268,1.7-0.7c0.398-0.396,0.616-0.939,0.6-1.5V4.1
	c0.015-0.532-0.204-1.044-0.6-1.4C155.219,2.185,154.592,1.89,153.932,1.9"/>
<path class="st5" d="M143.832,12.7c-4.723-3.507-11.394-2.522-14.901,2.201c-1.394,1.877-2.132,4.161-2.099,6.499v16.4
	c-0.015,0.532,0.204,1.044,0.6,1.4c0.426,0.498,1.045,0.789,1.7,0.8c1.25,0.021,2.279-0.976,2.3-2.225c0-0.025,0-0.05,0-0.075v-7.6
	c2.226,1.597,5.009,2.211,7.7,1.7c5.651-0.837,9.601-6.031,8.9-11.7C147.766,17.143,146.235,14.445,143.832,12.7 M137.532,27.3
	L137.532,27.3c-3.31-0.01-5.99-2.69-6-6c-0.037-3.175,2.43-5.818,5.6-6h0.4c3.314,0,6,2.686,6,6S140.846,27.3,137.532,27.3
	L137.532,27.3"/>
<path class="st5" d="M121.032,12.2c-1.367-0.013-2.487,1.084-2.5,2.452c0,0.016,0,0.032,0,0.048v5.5
	c0.079,1.649-0.416,3.274-1.4,4.6c-2.188,2.332-5.847,2.466-8.2,0.3l-0.3-0.3c-0.967-1.334-1.46-2.953-1.4-4.6v-5.5
	c0-1.354-1.096-2.451-2.45-2.452c-1.315,0-2.397,1.038-2.45,2.352v6.1c-0.08,2.829,0.921,5.583,2.8,7.7
	c4.481,3.867,11.119,3.867,15.6,0c1.891-2.07,2.897-4.798,2.8-7.6v-6C123.518,13.408,122.422,12.268,121.032,12.2"/>
</svg>
