<?xml version="1.0" encoding="utf-8"?>
<!-- Generator: Adobe Illustrator 27.3.1, SVG Export Plug-In . SVG Version: 6.00 Build 0)  -->
<!DOCTYPE svg PUBLIC "-//W3C//DTD SVG 1.1//EN" "http://www.w3.org/Graphics/SVG/1.1/DTD/svg11.dtd" [
	<!ENTITY ns_extend "http://ns.adobe.com/Extensibility/1.0/">
	<!ENTITY ns_ai "http://ns.adobe.com/AdobeIllustrator/10.0/">
	<!ENTITY ns_graphs "http://ns.adobe.com/Graphs/1.0/">
	<!ENTITY ns_vars "http://ns.adobe.com/Variables/1.0/">
	<!ENTITY ns_imrep "http://ns.adobe.com/ImageReplacement/1.0/">
	<!ENTITY ns_sfw "http://ns.adobe.com/SaveForWeb/1.0/">
	<!ENTITY ns_custom "http://ns.adobe.com/GenericCustomNamespace/1.0/">
	<!ENTITY ns_adobe_xpath "http://ns.adobe.com/XPath/1.0/">
]>
<svg version="1.1" id="Layer_1" xmlns:x="&ns_extend;" xmlns:i="&ns_ai;" xmlns:graph="&ns_graphs;"
	 xmlns="http://www.w3.org/2000/svg" xmlns:xlink="http://www.w3.org/1999/xlink" x="0px" y="0px" width="20px" height="20px"
	 viewBox="0 0 20 20" style="enable-background:new 0 0 20 20;" xml:space="preserve">
<style type="text/css">
	.st0{fill:#FFFFFF;}
	.st1{fill:#B9B08A;}
</style>
<metadata>
	<sfw  xmlns="&ns_sfw;">
		<slices></slices>
		<sliceSourceBounds  bottomLeftOrigin="true" height="20" width="20" x="0" y="0"></sliceSourceBounds>
	</sfw>
</metadata>
<circle class="st0" cx="10" cy="10" r="10"/>
<path class="st1" d="M12.475,10.525c0.81-0.689,1.336-1.702,1.336-2.846c0-2.069-1.683-3.752-3.751-3.752S6.307,5.61,6.307,7.679
	c0,1.12,0.503,2.116,1.284,2.804c-2.215,0.922-3.762,3.081-3.797,5.641c-0.005,0.414,0.326,0.754,0.74,0.76
	c0.398,0.028,0.754-0.325,0.76-0.74c0.035-2.567,2.073-4.605,4.641-4.641c0.022,0,0.043,0,0.065,0c2.564,0,4.668,2.068,4.703,4.641
	c0.006,0.411,0.34,0.74,0.75,0.74c0.003,0,0.007,0,0.01,0c0.415-0.006,0.746-0.346,0.74-0.76
	C16.171,13.62,14.624,11.474,12.475,10.525z M10.059,5.427c1.242,0,2.251,1.01,2.251,2.252c0,1.242-1.01,2.252-2.251,2.252
	s-2.252-1.01-2.252-2.252C7.807,6.437,8.817,5.427,10.059,5.427z"/>
</svg>
