<?xml version="1.0" encoding="utf-8"?>
<!-- Generator: Adobe Illustrator 27.3.1, SVG Export Plug-In . SVG Version: 6.00 Build 0)  -->
<!DOCTYPE svg PUBLIC "-//W3C//DTD SVG 1.1//EN" "http://www.w3.org/Graphics/SVG/1.1/DTD/svg11.dtd" [
	<!ENTITY ns_extend "http://ns.adobe.com/Extensibility/1.0/">
	<!ENTITY ns_ai "http://ns.adobe.com/AdobeIllustrator/10.0/">
	<!ENTITY ns_graphs "http://ns.adobe.com/Graphs/1.0/">
	<!ENTITY ns_vars "http://ns.adobe.com/Variables/1.0/">
	<!ENTITY ns_imrep "http://ns.adobe.com/ImageReplacement/1.0/">
	<!ENTITY ns_sfw "http://ns.adobe.com/SaveForWeb/1.0/">
	<!ENTITY ns_custom "http://ns.adobe.com/GenericCustomNamespace/1.0/">
	<!ENTITY ns_adobe_xpath "http://ns.adobe.com/XPath/1.0/">
]>
<svg version="1.1" id="Layer_1" xmlns:x="&ns_extend;" xmlns:i="&ns_ai;" xmlns:graph="&ns_graphs;"
	 xmlns="http://www.w3.org/2000/svg" xmlns:xlink="http://www.w3.org/1999/xlink" x="0px" y="0px" width="120px" height="23.818px"
	 viewBox="0 0 120 23.818" style="enable-background:new 0 0 120 23.818;" xml:space="preserve">
<style type="text/css">
	.st0{fill:#999999;}
	.st1{opacity:0.6;}
	.st2{clip-path:url(#SVGID_00000159462992421294778150000000252638412238171531_);}
	.st3{clip-path:url(#SVGID_00000093876043549885041280000006724179291232872324_);}
</style>
<metadata>
	<sfw  xmlns="&ns_sfw;">
		<slices></slices>
		<sliceSourceBounds  bottomLeftOrigin="true" height="23.818" width="120.038" x="-0.037" y="0"></sliceSourceBounds>
	</sfw>
</metadata>
<path class="st0" d="M15.5,12.802L15.5,12.802v-0.655l0,0V12.802"/>
<path class="st0" d="M33.304,12.98c-0.254-0.296-0.623-0.47-1.013-0.476c-0.738,0.016-1.349,0.576-1.429,1.31
	c-0.166,2.589-2.13,4.704-4.7,5.061c-1.258,0.127-2.516-0.235-3.513-1.012c-1.294-0.959-2.099-2.441-2.2-4.049
	c-0.063-0.745-0.689-1.316-1.436-1.31c-0.377,0.012-0.736,0.16-1.012,0.417c-0.284,0.307-0.434,0.714-0.417,1.131
	c0.199,2.729,1.708,5.192,4.049,6.609c2.786,1.697,6.34,1.457,8.872-0.6c1.859-1.472,3.024-3.65,3.215-6.014
	c-0.022-0.392-0.168-0.768-0.417-1.072"/>
<path class="st0" d="M15.084,0.476C14.807,0.178,14.419,0.006,14.012,0c-0.814-0.008-1.481,0.645-1.489,1.459c0,0.01,0,0.02,0,0.03
	l0,0v6.252c-1.651-1.384-3.838-1.953-5.954-1.548c-4.228,0.626-7.148,4.561-6.522,8.789c0.626,4.228,4.561,7.148,8.789,6.522
	c3.83-0.567,6.652-3.878,6.605-7.749v-1.548l0,0V1.37c0.037-0.339-0.097-0.673-0.357-0.893 M12.524,14.053
	c-0.083,2.713-2.349,4.846-5.063,4.763s-4.846-2.349-4.763-5.063C2.781,11.04,5.048,8.907,7.761,8.99
	c2.597,0.079,4.683,2.166,4.763,4.763V14.053"/>
<g transform="translate(31.03)" class="st1">
	<g>
		<defs>
			<rect id="SVGID_1_" x="0" width="2.858" height="11.016"/>
		</defs>
		<clipPath id="SVGID_00000070084828700703572990000000096021194846135950_">
			<use xlink:href="#SVGID_1_"  style="overflow:visible;"/>
		</clipPath>
		<g style="clip-path:url(#SVGID_00000070084828700703572990000000096021194846135950_);">
			<path class="st0" d="M1.429,11.016C0.644,11.005,0.011,10.372,0,9.587l0,0V1.429C0.011,0.644,0.644,0.011,1.429,0
				c0.785,0.011,1.418,0.644,1.429,1.429v8.158C2.847,10.372,2.214,11.005,1.429,11.016L1.429,11.016"/>
		</g>
	</g>
</g>
<g transform="translate(27.823 3.197)" class="st1">
	<g>
		<defs>
			<rect id="SVGID_00000109013083138504401590000010242424709862393518_" x="0" y="0" width="9.229" height="2.858"/>
		</defs>
		<clipPath id="SVGID_00000120548269932737076340000007925617099464926610_">
			<use xlink:href="#SVGID_00000109013083138504401590000010242424709862393518_"  style="overflow:visible;"/>
		</clipPath>
		<g style="clip-path:url(#SVGID_00000120548269932737076340000007925617099464926610_);">
			<path class="st0" d="M7.8,2.858H1.429C0.644,2.847,0.011,2.214,0,1.429C0.011,0.644,0.644,0.011,1.429,0H7.8
				c0.785,0.011,1.418,0.644,1.429,1.429C9.218,2.214,8.585,2.847,7.8,2.858L7.8,2.858"/>
		</g>
	</g>
</g>
<path class="st0" d="M35.626,3.215H33.84V1.429C33.84,0.64,33.2,0,32.411,0c-0.789,0-1.429,0.64-1.429,1.429V3.87
	c-0.005,1.179,0.947,2.139,2.126,2.144c0.006,0,0.012,0,0.018,0h2.441c0.785-0.011,1.418-0.644,1.429-1.429
	c0.051-0.706-0.48-1.319-1.185-1.37C35.749,3.211,35.687,3.211,35.626,3.215"/>
<path class="st0" d="M119.345,13.219c-0.46-0.446-1.007-0.791-1.608-1.012c-0.774-0.301-1.57-0.54-2.382-0.715
	c-0.238-0.06-0.476-0.119-0.774-0.179c-0.287-0.044-0.567-0.124-0.834-0.238c-0.274-0.065-0.523-0.211-0.715-0.417
	c-0.119-0.129-0.184-0.3-0.179-0.476c-0.013-0.225,0.074-0.445,0.238-0.6c0.212-0.165,0.455-0.287,0.714-0.357
	c0.333-0.072,0.672-0.112,1.012-0.119c0.665,0.012,1.326,0.113,1.965,0.3c0.295,0.103,0.575,0.243,0.834,0.417l0.179,0.06l0,0
	c0.133,0.049,0.275,0.069,0.417,0.06c0.658,0.032,1.217-0.474,1.249-1.132c0.019-0.395-0.159-0.774-0.475-1.012
	c-0.064-0.032-0.125-0.072-0.179-0.119c-0.367-0.238-0.769-0.419-1.191-0.536c-0.792-0.239-1.614-0.359-2.441-0.357
	c-0.852-0.012-1.698,0.13-2.5,0.417c-0.688,0.233-1.29,0.669-1.727,1.25c-0.427,0.566-0.657,1.256-0.655,1.965
	c0.003,0.57,0.168,1.128,0.476,1.608c0.371,0.466,0.866,0.817,1.429,1.012c0.696,0.292,1.412,0.531,2.144,0.715l0.893,0.179
	c0.357,0.059,0.655,0.119,0.893,0.179c0.341,0.077,0.665,0.218,0.953,0.417c0.157,0.106,0.247,0.287,0.238,0.476
	c0.017,0.332-0.172,0.64-0.476,0.774c-0.582,0.248-1.215,0.351-1.846,0.3c-0.671,0.003-1.337-0.118-1.965-0.357
	c-0.414-0.164-0.813-0.365-1.191-0.6l-0.179-0.06l0,0c-0.15-0.067-0.312-0.108-0.476-0.119c-0.66,0.018-1.2,0.532-1.25,1.191
	c-0.009,0.317,0.121,0.622,0.357,0.834c0.119,0.06,0.179,0.179,0.3,0.238c0.484,0.317,1.004,0.576,1.548,0.774
	c0.943,0.307,1.927,0.468,2.918,0.476c1.244,0.082,2.481-0.254,3.513-0.953c0.893-0.599,1.429-1.604,1.429-2.679
	c-0.033-0.594-0.263-1.16-0.655-1.608"/>
<path class="st0" d="M106.9,7.264c-0.779-0.01-1.419,0.614-1.429,1.393c0,0.012,0,0.024,0,0.036v3.271
	c0.047,0.982-0.248,1.95-0.834,2.739c-1.303,1.39-3.482,1.47-4.883,0.179l-0.179-0.179c-0.567-0.776-0.86-1.718-0.834-2.679V8.753
	c-0.004-0.789-0.646-1.426-1.435-1.423c-0.784,0.004-1.419,0.638-1.423,1.423v3.511c-0.057,1.668,0.541,3.293,1.667,4.525
	c2.638,2.322,6.591,2.322,9.229,0c1.126-1.232,1.724-2.857,1.667-4.525V8.693c-0.105-0.787-0.755-1.387-1.548-1.429"/>
<path class="st0" d="M58.432,1.786c-0.254-0.297-0.624-0.47-1.015-0.476c-0.744-0.013-1.357,0.58-1.37,1.324
	c0,0.015,0,0.031,0,0.046v4.525c-1.325-0.951-2.983-1.316-4.585-1.012c-3.463,0.553-5.83,3.798-5.3,7.264
	c0.496,3.073,3.139,5.339,6.252,5.359c0.419-0.01,0.837-0.05,1.25-0.119c3.022-0.566,5.19-3.238,5.121-6.312v-1.191l0,0V2.68
	c0.037-0.339-0.097-0.673-0.357-0.893 M56.046,12.743c-0.131,1.973-1.838,3.467-3.811,3.335c-1.973-0.131-3.467-1.838-3.335-3.811
	c0.119-1.79,1.545-3.216,3.335-3.335h0.238c1.971,0.005,3.568,1.602,3.573,3.573V12.743"/>
<path class="st0" d="M91.657,1.131c-0.744-0.013-1.357,0.58-1.37,1.324c0,0.015,0,0.031,0,0.046v13.873
	c-0.013,0.744,0.58,1.357,1.324,1.37c0.015,0,0.031,0,0.046,0c0.377-0.012,0.736-0.16,1.012-0.417
	c0.237-0.236,0.366-0.559,0.357-0.893V2.441c0.009-0.317-0.121-0.622-0.357-0.834C92.423,1.301,92.05,1.125,91.657,1.131"/>
<path class="st0" d="M85.644,7.562c-2.812-2.088-6.785-1.501-8.873,1.311c-0.83,1.118-1.269,2.477-1.249,3.869v9.766
	c-0.009,0.317,0.121,0.622,0.357,0.834c0.254,0.296,0.622,0.469,1.012,0.476c0.744,0.013,1.357-0.58,1.37-1.324
	c0-0.015,0-0.031,0-0.046v-4.525c1.325,0.951,2.983,1.316,4.585,1.012c3.365-0.498,5.718-3.591,5.3-6.967
	c-0.158-1.761-1.07-3.367-2.5-4.406 M81.895,16.255L81.895,16.255c-1.971-0.005-3.568-1.602-3.573-3.573
	c-0.022-1.891,1.447-3.464,3.334-3.573h0.238c1.973,0.033,3.546,1.659,3.513,3.632C85.374,14.668,83.82,16.222,81.895,16.255"/>
<path class="st0" d="M72.067,7.264c-0.814-0.008-1.481,0.645-1.489,1.459c0,0.01,0,0.02,0,0.03v3.275
	c0.047,0.982-0.248,1.95-0.834,2.739c-1.303,1.389-3.482,1.469-4.883,0.179l-0.179-0.179c-0.576-0.794-0.87-1.758-0.834-2.739V8.753
	c0.017-0.806-0.623-1.472-1.429-1.489c-0.806-0.017-1.472,0.623-1.489,1.429l0,0v3.632c-0.048,1.685,0.548,3.324,1.667,4.585
	c2.364,2.565,6.359,2.729,8.925,0.365c1.361-1.254,2.103-3.041,2.031-4.89V8.812c-0.009-0.829-0.661-1.507-1.489-1.548"/>
</svg>
