<?xml version="1.0" encoding="utf-8"?>
<!-- Generator: Adobe Illustrator 27.3.1, SVG Export Plug-In . SVG Version: 6.00 Build 0)  -->
<!DOCTYPE svg PUBLIC "-//W3C//DTD SVG 1.1//EN" "http://www.w3.org/Graphics/SVG/1.1/DTD/svg11.dtd" [
	<!ENTITY ns_extend "http://ns.adobe.com/Extensibility/1.0/">
	<!ENTITY ns_ai "http://ns.adobe.com/AdobeIllustrator/10.0/">
	<!ENTITY ns_graphs "http://ns.adobe.com/Graphs/1.0/">
	<!ENTITY ns_vars "http://ns.adobe.com/Variables/1.0/">
	<!ENTITY ns_imrep "http://ns.adobe.com/ImageReplacement/1.0/">
	<!ENTITY ns_sfw "http://ns.adobe.com/SaveForWeb/1.0/">
	<!ENTITY ns_custom "http://ns.adobe.com/GenericCustomNamespace/1.0/">
	<!ENTITY ns_adobe_xpath "http://ns.adobe.com/XPath/1.0/">
]>
<svg version="1.1" id="Layer_1" xmlns:x="&ns_extend;" xmlns:i="&ns_ai;" xmlns:graph="&ns_graphs;"
	 xmlns="http://www.w3.org/2000/svg" xmlns:xlink="http://www.w3.org/1999/xlink" x="0px" y="0px" width="768px" height="211.445px"
	 viewBox="0 0 768 211.445" style="enable-background:new 0 0 768 211.445;" xml:space="preserve">
<style type="text/css">
	.st0{opacity:0.996;fill:#FFEA96;enable-background:new    ;}
	.st1{fill:#FFFFFF;}
	.st2{fill:#384154;}
	.st3{fill:#FFEDDE;}
	.st4{fill:#E2BB92;}
	.st5{fill:#AEBCCD;}
	.st6{fill:#BFA898;}
	.st7{fill:#A8CBA9;}
	.st8{fill:#FFF3E7;}
	.st9{fill:#F2C6D5;}
	.st10{fill:#FFF7E0;}
	.st11{fill:#79A8C6;}
	.st12{fill:#F5877A;}
	.st13{fill:#83DEA5;}
	.st14{fill:#FFD35A;}
	.st15{fill:#FFEA96;}
	.st16{fill:#FFA078;}
	.st17{fill:#E7E3FF;}
	.st18{fill:#BFC6D2;}
	.st19{fill:#ABDDF9;}
</style>
<metadata>
	<sfw  xmlns="&ns_sfw;">
		<slices></slices>
		<sliceSourceBounds  bottomLeftOrigin="true" height="211.443" width="767.998" x="0" y="0.002"></sliceSourceBounds>
	</sfw>
</metadata>
<path class="st0" d="M201.532,136.176c-3.936-7.117-3.917-18.759-0.837-22.133c2.125-0.254,2.319-0.527,2.4-0.681
	c0.1-0.1,0.2-0.4,0.1-0.5c0.007-0.233-0.176-0.427-0.409-0.434l0,0l-92.533-12.375c0,0-1.956-0.2-4.009-0.3s-4.4,0-4.4,0
	l-75.876,3.776c-1.407,0.044-2.81,0.178-4.2,0.4c-2.054,0.4-4.107,3.776-3.911,12.224c0.1,5.565,2.175,10.212,4.033,11.107
	c1.369,0.7,5.182,1.988,5.377,2.086l1.458,0.5c-13.464,0.729-18.478,1.237-19.085,2.267c-0.481,0.353-2.042,2.426-1.953,11.47
	c0.072,6.18,1.281,9.556,1.857,10.64l-3.226-0.6c-0.1,0-0.547,0.141-0.646,0.141c-0.2,0.2-2.289,1.25-2.385,9.5
	c-0.1,6.062,2.467,8.754,2.565,8.852l0.1,0.1L68.703,205.3c0.96,0.677,2.065,1.119,3.227,1.292c0.484,0.083,0.975,0.116,1.466,0.1
	c0.762,0.047,1.526-0.055,2.249-0.3l103.351-17.094c0.2-0.1,1.234-0.017,1.234-0.216s-0.941-0.579-1.038-0.679
	c-0.859-0.72-1.865-1.246-2.947-1.539c-1.51-2.28-2.29-4.966-2.235-7.7c0.124-3.393,0.992-6.718,2.544-9.738
	c0.046-0.053,0.071-0.121,0.071-0.192l6.192-1.111c0.154-0.004,0.298-0.078,0.391-0.2c0-0.1,0.1-0.3,0-0.4
	c-1.53-0.641-3.097-1.191-4.693-1.646c-3.68-3.586-3.052-13.99-0.981-18.765c0.6-0.06,1.178-0.12,1.694-0.176
	c2.249-0.2,4.625-0.7,4.625-1.494c0-0.542-3.376-2.414-15.308-4.7l35.948-2.6c0.2,0,0.978-0.3,0.978-0.894
	C205.452,136.77,205.179,137.013,201.532,136.176z"/>
<path class="st1" d="M180.319,166.153L59.528,181.068c-1.846-3.701-2.728-7.808-2.566-11.941c0.305-8.547,2.747-12.4,2.747-12.4
	c0.008-0.017,0.015-0.034,0.021-0.051l113.755-9.376c0.07,0,3.177-0.22,5.5-0.437C176.932,151.897,176.496,162.121,180.319,166.153z
	"/>
<path class="st1" d="M201.037,135.71l-116.616,9.623c-0.112-0.003-0.222,0.033-0.312,0.1c-0.937-1.609-2.305-4.547-2.592-10.231
	c-0.485-9.615,4.962-15.873,5.88-16.615c0.739,0.027,1.378,0.027,1.831,0.027h0.88l110.736-5.24
	c0.393-0.026,0.752-0.054,1.082-0.082C199.131,117.497,197.328,128.623,201.037,135.71z"/>
<path class="st1" d="M175.542,178.688c0.08,3.167,0.88,6.274,2.34,9.085l-107.77,17.856c-0.113,0.038-0.666-1.1-0.726-1.031
	c-1.056-1.465-1.906-4.528-1.847-9.615c0.1-7.95,3.618-10.735,3.714-10.735c0.057-0.059,0.105-0.126,0.141-0.2l106.778-14.937
	C176.607,172.073,175.71,175.342,175.542,178.688z"/>
<path class="st2" d="M202.14,135.62c-4.062-7.343-2.595-18.447,0.582-21.928c2.185-0.262,2.392-0.544,2.47-0.7
	c0.118-0.133,0.16-0.318,0.111-0.489c0,0,0,0,0-0.005c0.01-0.249-0.184-0.458-0.433-0.468c0,0,0,0-0.001,0l-94.515-14.25
	c0,0-2.018-0.2-4.136-0.305s-4.539,0-4.539,0l-78.274,3.9c-1.453,0.045-2.901,0.182-4.337,0.41c-2.119,0.41-4.239,3.9-4.035,12.61
	c0.1,5.741,1.715,11.072,3.632,12c1.41,0.717,5.342,2.051,5.545,2.152l0.374,0.12c-14.53,0.773-17.485,1.126-18.044,2.206
	c-0.511,0.392-2.094,2.573-2,11.823c0.074,6.375,1.118,9.237,1.714,10.355H2.928c-0.2,0.205-2.824,1.435-2.925,9.944
	c-0.1,6.253,2.722,9.33,2.824,9.432l0.1,0.1l64.557,33.831c0.99,0.699,2.13,1.155,3.329,1.332c0.5,0.084,1.007,0.118,1.513,0.1
	c0.787,0.049,1.576-0.055,2.323-0.308l106.619-17.634c0.2-0.1,0.4-0.207,0.4-0.41c-0.003-0.189-0.074-0.371-0.2-0.513
	c-0.887-0.741-1.923-1.281-3.039-1.582c-1.562-2.353-2.368-5.127-2.31-7.951c0.127-3.501,1.023-6.931,2.623-10.047
	c0.038-0.06,0.062-0.129,0.069-0.2l5.071-0.622c0.157-0.003,0.303-0.077,0.4-0.2c0-0.1,0.1-0.307,0-0.41s-0.6-1.3-3.5-2.213
	c-3.811-3.69-3.4-13.495-1.261-18.424c0.617-0.062,1.212-0.123,1.743-0.18c2.319-0.2,3.328-0.717,3.328-1.537
	c0-0.559,0.078-2.132-12.223-4.49l32.8-2.582c0.2,0,1.008-0.307,1.008-0.922C206.183,137.067,205.894,136.481,202.14,135.62z
	 M201.035,135.713l-116.5,9.124c-0.114,0.006-0.223,0.05-0.309,0.125c-0.971-1.653-2.059-4.789-2.115-10.585
	c-0.184-9.918,4.84-14.8,5.8-15.572c0.631,0.026,1.263,0.038,1.9,0.031h0.908l109.544-4.921c0.409-0.028,0.773-0.056,1.116-0.086
	C198.483,118.161,197.209,128.396,201.035,135.713z M101.681,98.496c0,0,2.32-0.1,4.438,0s4.035,0.305,4.035,0.305l92.142,13.895
	l-0.034,0.035c-0.647,0.064-1.351,0.118-2.012,0.157L90.706,117.81c-0.961,0.029-1.922,0.015-2.881-0.034
	c-0.028-0.004-0.057-0.006-0.085-0.005c-0.693-0.037-1.386-0.088-2.077-0.165c-2.621-0.307-5.647-1.025-5.647-1.025l-59.471-13.94
	c1.361-0.139,2.862-0.247,2.862-0.247L101.681,98.496z M18.968,125.461c-1.109-0.513-2.924-4.819-3.026-11.072
	c-0.166-7.066,1.3-10.2,2.5-11.207c0.045,0.031,0.094,0.055,0.146,0.071l61.226,14.353c1.898,0.44,3.816,0.782,5.749,1.025
	c0.317,0.035,0.635,0.063,0.953,0.089c-1.813,1.851-5.571,6.794-5.415,15.658c0.129,7.286,1.786,10.62,3.016,12.1
	c-1.056-0.156-2.098-0.398-3.115-0.722l-56.587-18.142C24.314,127.512,20.38,126.179,18.968,125.461z M6.954,132.084
	c0.441,0.337,0.916,0.626,1.419,0.861l50.719,24.144c-0.711,1.148-2.361,4.592-2.6,11.946c-0.4,9.212,3.135,13.425,3.321,13.724
	l-0.1,0.012L7.465,152.938c-0.3-0.41-1.714-2.768-1.816-10.252C5.575,135.737,6.465,133.038,6.954,132.084z M3.433,171.596
	c-0.4-0.41-2.624-3.281-2.522-8.612c0.1-6.971,1.916-8.614,2.32-8.919h3.732c0.08-0.002,0.158-0.023,0.228-0.062l52.021,29.693
	c0,0.1,0.1,0.1,0.2,0.1h-0.007l6.5-0.8c0.049,0.035,0.103,0.062,0.16,0.079l4.383,1.114c-1.176,1.259-3.5,4.623-3.574,11.292
	c-0.065,6.011,1.586,9.211,2.823,10.755c-0.631-0.204-1.238-0.475-1.811-0.81L3.433,171.596z M74.548,206.454
	c-0.941,0.177-1.901,0.235-2.857,0.173c-0.022-0.026-0.047-0.051-0.073-0.073c-0.257-0.144-0.489-0.33-0.685-0.55l107.209-17.7
	c0.593,0.184,1.168,0.424,1.715,0.718L74.548,206.454z M175.112,179.489c-0.064,2.788,0.667,5.537,2.108,7.925l-106.71,17.6
	c-0.102,0.031-0.193,0.091-0.261,0.173c-1.09-1.508-2.424-4.449-2.363-9.706c0.1-8.2,3.731-11.072,3.833-11.072l0,0
	c0.067-0.053,0.12-0.121,0.153-0.2l105.56-14.357c-1.458,3.008-2.249,6.295-2.319,9.637L175.112,179.489z M71.012,183.181
	l-2.242-0.534l64.185-7.877L71.012,183.181z M60.661,182.654c0.148-0.179,0.131-0.441-0.037-0.6c0,0-0.138-0.172-0.352-0.506
	l120.591-14.671c0.046-0.025,0.088-0.055,0.128-0.089c0.625,0.238,1.222,0.543,1.781,0.911L60.661,182.654z M179.65,165.854
	L59.722,180.579c-1.718-3.593-2.483-7.569-2.221-11.543c0.3-8.817,2.723-11.79,2.723-11.79c0.007-0.019,0.013-0.038,0.018-0.057
	l113.457-9.38c0.07,0,2.328-0.2,4.646-0.423c-2.049,5.19-2.259,14.353,1.307,18.466L179.65,165.854z M183.481,145.454
	c-0.729,0.332-1.519,0.507-2.32,0.513c-2.825,0.308-7.566,0.718-7.566,0.718l-113.879,9.326L8.777,131.919
	c-0.431-0.189-0.838-0.43-1.211-0.718c1.189-0.805,10.837-1.314,19.589-1.72l53.644,17.2c1.319,0.387,2.669,0.661,4.035,0.82
	c0.157,0.016,0.318,0.025,0.478,0.037c0.064,0.036,0.109,0.057,0.126,0.066h0.2c0.048-0.005,0.095-0.017,0.139-0.036
	c0.715,0.034,1.42,0.036,1.979,0.036h1.516l78.985-6.218c13.023,2.236,14.925,3.761,15.226,4.065L183.481,145.454z M89.172,146.685
	c-1.167,0.045-2.334,0.03-3.5-0.043c-0.324-0.22-0.61-0.49-0.848-0.8l117.019-9.2c0.011,0,0.019,0,0.03,0
	c1.024,0.226,2.027,0.537,3,0.929L89.172,146.685z"/>
<path class="st3" d="M114.987,64.547c-0.484,1.091-1.294,2.007-2.318,2.621c-1.412,1.008-2.722,1.008-3.427,2.822
	c-0.321,1.191,0.026,2.463,0.907,3.327c0.5,0.5,1.411,0.6,1.613,1.311s-0.4,1.411-0.6,2.016c-0.316,0.906-0.385,1.881-0.2,2.823
	c1.109,3.427,4.738,5.041,5.947,8.468c0.3,1.008,0.1,2.117,0.4,3.125c0.6,1.713,1.008,3.427,1.714,5.141
	c0.2,0.6,0.6,1.109,0.806,1.814c0,0,0.1,0.6,0.3,0.5c0.5-0.3,1.008-2.016,1.109-2.52c0.6-2.117,0.6-4.435,1.411-6.552
	c0.6-1.613,2.017-2.722,2.722-4.234c0.3-0.706,0.1-1.412,0.3-2.016c0.6-1.915,2.52-3.226,2.722-5.342
	c0.3-2.319,0.4-4.839,0.908-7.158c0.5-2.52,0.5-5.24-1.21-7.46c-2.52-3.125-7.258-2.52-10.383-0.706
	C117.207,62.728,115.189,63.837,114.987,64.547z"/>
<path class="st4" d="M110.149,68.575c-0.6-0.6-0.706-2.319-0.806-3.125c-0.5-3.025,0-6.25,2.52-8.165
	c1.21-1.008,2.822-1.21,4.234-1.815c1.008-0.4,1.915-1.411,3.024-1.613c2.621-0.4,5.948,1.21,7.964,2.924
	c0.806,0.806,2.722,0.6,3.327,1.512c0.4,0.696,0.361,1.561-0.1,2.218c0,0,1.311,4.032,1.512,5.041c0.2,0.806,0,3.629-1.311,3.327
	c-1.896-0.584-3.487-1.886-4.435-3.629c-0.4-0.806-1.21-2.722-2.319-2.52c-1.613,0.2-3.528,0.3-4.839,1.411
	c-0.834,0.736-1.518,1.626-2.016,2.621c-0.705,1.513-1.31,3.428-3.327,3.125c-0.588-0.192-1.161-0.428-1.714-0.706
	C111.258,68.977,110.552,68.978,110.149,68.575z"/>
<path class="st1" d="M94.523,84.2c2.722-2.822,14.516-6.351,14.516-6.351l1.713-1.513c0,0-0.706,0.3,1.411,5.041
	c0.5,1.209,4.033,4.436,4.536,5.948c0.3,1.109,0.5,2.722,0.806,3.932c0.4,1.815,2.42,7.56,2.42,7.56l1.814-4.133l0.5-5.342
	l2.924-4.033l0.6-2.52l2.621-4.839c1.575,0.76,3.233,1.335,4.94,1.714c2.319,0.5,4.536,0.2,6.553,4.335
	c4.133,8.67,4.939,28.73,4.939,28.73s5.947,12.3-1.815,14.718c-3.226,1.008-9.476-9.072-9.476-9.072l-1.613-10.585l-3.226,7.762
	l-7.562,11.793l-1.915,7.46l-33.77,7.359c0,0-1.412,1.008-0.2-6.048c0.2-1.21,1.411-4.738,1.713-6.25c0.2-1.008,0.1-3.932,0.4-5.141
	c0.5-2.218,2.117-3.226,2.823-5.746C93.516,106.076,87.064,91.863,94.523,84.2z"/>
<path class="st5" d="M92.709,132.585c2.319-1.815,9.779-3.528,15.827-2.218c1.276,0.253,2.459,0.845,3.427,1.714
	c0.822,0.748,1.504,1.635,2.016,2.621l4.939,0.2l22.178-7.259c0,0,19.657-3.528,19.96,6.653c0.1,2.923-3.629,16.633-6.553,29.537
	c-1.068,5.126-1.842,10.309-2.319,15.524c-0.142,1.109-0.52,2.175-1.109,3.125l-11.291,4.335l-0.907-3.024l1.311-5.846
	c-0.09-6.196,0.213-12.391,0.908-18.548c0.698-5.218,1.81-10.372,3.327-15.414c-3.789,0.865-7.627,1.504-11.492,1.915
	c-7.057,0.706-16.835,1.109-16.835,1.109s1.815,13.407,4.032,22.279c2.218,8.972,4.839,13.407,4.839,13.407l0.3,3.125l1.209,2.722
	l-11.183,3.423l-1.109-1.512l-2.722-7.561l-3.932-9.577l-6.553-22.682c0,0-11.29,1.311-14.819-4.839
	C84.14,141.963,87.568,136.52,92.709,132.585z"/>
<path class="st6" d="M125.674,188.637c-0.806-1.109-3.73-0.3-4.94,0.1c-1.364,0.247-2.666,0.761-3.831,1.512
	c-1.713,1.31-1.613,5.141-0.6,6.754c0.806,1.31,2.319,2.218,3.427,3.327c0.806,0.806,0.3,2.42,1.411,3.025
	c2.319,1.411,5.24,0.806,7.762,0.806c0.604,0.05,1.211,0.05,1.815,0c1.411-0.2,5.04-0.706,5.545-2.52
	c0.3-1.109-1.916-2.621-2.621-3.125c-0.682-0.33-1.324-0.736-1.915-1.21C129.101,194.887,127.69,191.459,125.674,188.637z"/>
<path class="st6" d="M140.09,186.623c-1.109,0.5-0.5,2.52-0.6,3.73s-0.806,3.529-0.3,4.637c0.4,0.908,1.613,0.908,2.42,1.008
	c1.406,0.22,2.84,0.186,4.234-0.1c0.6-0.2,0.908-0.6,1.613-0.5c1.008,0.3,1.109,1.915,1.916,2.218c1.636,0.47,3.344,0.639,5.04,0.5
	c1.613,0,3.327,0.1,4.94,0.1c0.907,0,2.823,0.1,3.629-0.5c0.3-0.2,0.907-0.5,1.008-0.806c0.5-1.31-0.3-2.823-1.209-3.73
	c-1.008-1.008-2.621-1.512-3.831-2.319c-2.126-1.424-4.088-3.081-5.847-4.939c-0.908-1.008-1.512-2.218-2.319-3.226
	c-0.3-0.5-0.706-1.209-1.31-1.31c-1.412-0.305-2.52,0.706-3.427,1.512C144.241,184.406,142.237,185.659,140.09,186.623z"/>
<path class="st3" d="M143.214,124.825c0.725-0.353,1.514-0.557,2.319-0.6c0.705,0.1,1.713,0.807,2.52,0.6
	c0.6-0.2,0.1-1.209,0.3-1.512c0.2-0.2,0.706-0.1,0.907-0.1c0.629-0.06,1.244-0.229,1.815-0.5c0.4-0.3-0.3-1.109-0.1-1.512
	c0.2-0.305,1.311-0.5,1.613-0.807c0.907-0.806,0.5-2.924-0.1-3.831c-0.3-0.4-1.512,0.2-1.814,0.4
	c-1.717,1.173-3.305,2.525-4.738,4.032c-0.619,0.485-1.192,1.025-1.714,1.613c-0.1,0.2-0.907,0.806-0.6,0.806L143.214,124.825z"/>
<path class="st7" d="M121.339,116.257l18.952,8.67l4.637-3.024l-6.553,7.158l-5.647,0.3l-11.492-1.714l-7.158-2.823L121.339,116.257
	z"/>
<path class="st3" d="M120.028,127.952c-1.411-1.21-1.31,3.831-1.31,5.24c0,0.5-0.1,1.109,0.4,1.412s1.915-0.2,2.52-0.3
	c1.578-0.102,3.16-0.102,4.738,0c3.024,0,5.948,0.907,8.972,0.6c0.706-0.1,2.318-0.4,2.822-1.008c0.6-0.907,0.2-2.318,0.706-3.327
	c0.4-0.907,1.31-1.713,1.814-2.621c0.1-0.1,0.5-0.5,0.4-0.706c-0.1-0.4-0.806-0.3-1.21-0.2c-1.411,0.1-2.823,0.5-4.234,0.706
	c-0.4,0.1-1.512,0.6-2.016,0.3c-0.2-0.1-0.1-0.3-0.3-0.4c-1.315-0.442-2.664-0.779-4.032-1.008c-0.7-0.31-1.453-0.48-2.218-0.5
	c-0.907,0.1-1.713,0.907-2.52,1.311c-0.69,0.281-1.397,0.516-2.117,0.706C121.641,128.052,120.532,128.354,120.028,127.952z"/>
<path class="st8" d="M121.842,112.024l15.02,8.266c0.96-1.43,2.076-2.749,3.327-3.932c1.607-1.402,3.29-2.715,5.041-3.932
	l4.335-1.109l0.4,1.008l1.915-1.008l1.21,0.6l1.008,1.411l-13.407,11.593l-18.952-8.77l-6.956,7.46l-0.1-2.016L121.842,112.024z"/>
<path class="st3" d="M21.439,31.578c-0.3-0.908,1.109-1.714,1.411-2.621c1.311-4.032,1.411-8.367,2.318-12.5
	c0.6-2.923,1.412-6.553,3.528-8.871c3.125-3.327,7.662-0.5,9.981,2.218c0.531,0.796,0.907,1.685,1.109,2.621
	c0.27,1.19,0.337,2.417,0.2,3.629c0,2.924-0.1,5.948-1.512,8.569c-0.706,1.21-2.419,2.319-2.722,3.629
	c-0.6,2.722,2.924,4.436,1.311,6.754c-1.193,1.447-2.963,2.295-4.839,2.319C27.386,37.425,22.951,36.114,21.439,31.578z"/>
<path class="st9" d="M21.438,32.083c0,0,5.444,4.839,9.375,5.141s6.351-3.928,6.351-3.928s10.383,2.722,13.205,6.553
	c2.319,3.025,3.327,8.166,4.335,11.9c1.008,4.133,1.814,6.553,1.814,6.553c-0.69,0.86-1.648,1.463-2.722,1.714
	c-1.777,0.497-3.602,0.801-5.444,0.907l0.3,7.662c0,0,1.815,7.359,2.117,10.585c0.3,3.125-0.5,2.923-0.5,2.923
	c-4.259,1.995-8.906,3.028-13.609,3.024c-8.165,0.1-18.952-2.52-18.952-2.52l-1.311-1.713l-0.6-17.036c0,0-8.569,1.008-9.879-1.714
	c-1.008-2.218,0.4-3.529,0.908-8.065c0.5-4.335,0.1-11.9,2.318-15.121c2.218-3.125,4.738-3.932,7.359-4.839
	C18.817,33.296,21.438,32.083,21.438,32.083z"/>
<path class="st10" d="M15.087,46.803c3.327-2.42,25.3-3.125,25.3-3.125l0.907,0.807l4.74,29.236l-25.2,4.435l-1.311-0.706
	c0,0-1.613-9.073-3.125-17.742C15.39,54.058,13.777,47.808,15.087,46.803z"/>
<path class="st3" d="M15.793,64.039c-1.311-0.806-3.226,0.806-4.637,0.4c-0.907-0.2-3.226-2.117-4.234-1.109
	c-0.5,0.5-0.1,2.52-0.1,3.125c0.1,1.714,0.6,3.428,0.706,5.141s0.5,4.133,2.218,5.141c0.964,0.369,1.993,0.539,3.024,0.5
	c3.529,0.3,6.855-1.412,10.283-2.117c0.6-0.1,2.318,0.705,3.024,0.907c0.3,0.1,1.008,0,1.21,0.4c0.3,0.6-0.706,0.806,0,1.411
	c0.708,0.397,1.507,0.604,2.319,0.6c2.924,0.4,5.342-1.109,8.165-1.613c4.637-0.806,9.476-1.008,14.012-2.117
	c2.117-0.5,5.647-1.814,5.846-4.436c0.071-1.623-0.063-3.249-0.4-4.838c-0.147-1.605-0.451-3.192-0.908-4.738
	c-0.1-0.2-0.3-1.311-0.5-1.209c-1.157,0.43-2.335,0.8-3.529,1.109c-0.734,0.116-1.475,0.183-2.218,0.2
	c-0.368-0.05-0.741-0.05-1.109,0c-0.3,0.2,0.1,1.512,0.1,1.815c0.1,1.008,0.1,3.427-0.5,4.335c-0.788,0.839-1.752,1.493-2.823,1.915
	c-0.1,0.1-1.008,0.5-1.109,0.4s0.3-0.6,0.3-0.706c0.505-0.859,0.91-1.772,1.209-2.722c0.5-1.613,0.2-2.52,0.2-4.133
	c0.169-0.904,0.135-1.833-0.1-2.722c-0.3-0.706-1.008-0.1-1.21,0.2c-1.008,1.412-1.109,2.924-3.125,3.327c-0.2,0-1.109,0.2-1.412,0
	c-0.2-0.1,0.908-0.806,1.008-0.907c0.4-0.4,2.621-2.722,1.21-3.125c-0.4-0.1-0.6,0.3-0.907,0.4c-0.788,0.379-1.596,0.715-2.42,1.008
	c-1.533,0.506-2.941,1.33-4.133,2.419c-0.851,1.057-1.76,2.067-2.722,3.024c-1.412,1.008-3.125,1.21-4.738,1.613
	c-2.891,0.535-5.83,0.772-8.77,0.706c-0.706,0-2.52,0.4-3.024,0c-0.5-0.3-0.1-2.319-0.1-2.722
	C15.692,64.745,15.994,64.14,15.793,64.039z"/>
<path class="st3" d="M36.055,183.799c-0.641,2.48-1.079,5.009-1.311,7.56c-0.266,1.054-0.334,2.148-0.2,3.226
	c0.1,0.4,0.806,0.3,1.109,0.3c1.008-0.1,2.016-0.3,3.024-0.4c0.891,0.016,1.767-0.23,2.52-0.706c0.6-0.5,0.6-1.613,0.807-2.318
	c0.6-1.815,0.806-3.831,1.31-5.746c0.706-3.024-1.613-3.125-4.032-3.125C38.174,182.589,36.459,182.589,36.055,183.799z"/>
<path class="st3" d="M19.724,183.799c-0.4,1.008-4.738-0.2-6.25-0.1c-0.4,0-1.512,0.1-1.713,0.5c-0.086,0.736-0.12,1.477-0.1,2.218
	c-0.1,1.613,0,3.327-0.2,4.939c-0.202,0.726-0.202,1.492,0,2.218c0.706,1.311,3.528,1.21,4.839,1.21c0.3,0,1.411,0.1,1.713-0.3
	c0.34-0.73,0.543-1.516,0.6-2.319c0.3-2.016,0.3-4.032,0.6-5.948C19.505,185.441,19.677,184.626,19.724,183.799z"/>
<path class="st11" d="M17.91,82.487c5.587,1.554,11.341,2.434,17.137,2.621c5.137-0.003,10.24-0.82,15.121-2.42
	c0,0,4.536,7.359,3.931,24.7c-0.2,5.847-2.016,19.154-2.621,25.907c-0.5,5.545-0.6,17.339-1.109,22.38
	c-1.411,12.9-2.319,16.229-3.831,20.665c-0.6,1.915-1.915,7.662-2.419,8.468c-0.806,1.311-8.972-0.1-9.274-0.907
	c-0.908-1.915,0.1-3.428,0.6-7.662c1.008-8.065,2.823-20.766,2.722-28.428c0-5.746-0.6-8.467-1.008-13.306
	c-0.6-7.359-0.705-14.113-1.411-18.851c-0.258-2.276-0.799-4.511-1.613-6.653c0,0-0.6,2.016-1.915,8.266
	c-0.6,2.923-1.814,21.472-2.621,25.2c-0.806,3.528-2.117,9.577-3.024,13c-2.117,7.963-3.529,12.4-4.536,17.843
	c-0.6,3.427-0.2,9.274-1.915,10.484c-1.008,0.706-7.863,2.621-9.274-0.3c-0.706-1.613,0.2-6.351,0.4-8.972
	c0.231-6.18,0.837-12.341,1.814-18.448c0.4-2.42,2.924-8.569,3.226-11.19c0.706-7.762-0.1-11.492-0.706-16.835
	c-0.907-8.972-2.117-18.045-1.512-25.2C14.87,95.98,16.152,89.175,17.91,82.487z"/>
<path class="st1" d="M11.252,194.282c1.109-1.31,2.117-2.117,3.831-1.915c1.769,0.376,3.323,1.424,4.335,2.923
	c0,0,0.6,4.335,1.008,7.863s2.42,5.141-0.3,6.553S9.341,210.412,8.026,209c-1.613-1.714,0.4-3.629,1.311-6.553
	C10.147,199.725,9.844,195.895,11.252,194.282z"/>
<path class="st1" d="M34.543,194.787c0.999-0.2,1.954-0.576,2.822-1.109c1.512-1.008,3.327-2.419,5.141-0.706
	c1.713,1.613,1.613,5.041,3.024,7.964c1.008,2.016,2.218,3.125,3.024,4.637c0.565,0.937,0.778,2.045,0.6,3.125
	c-0.3,0.706-3.529,1.109-5.647,1.411c-1.908,0.413-3.891,0.309-5.746-0.3c-1.915-0.6-3.225-3.528-4.234-4.738
	c-1.209-1.512-0.3-1.815,0-3.629C34.14,198.718,34.543,194.787,34.543,194.787z"/>
<path class="st4" d="M21.438,5.367c5.04-6.553,13.508-6.553,17.742-1.713c0.6,0.6,3.73,3.932,4.637,12.1
	c0.5,4.536-0.806,10.684-1.109,14.919c-0.11,1.703,0.093,3.412,0.6,5.041c0,0-4.234-0.6-6.149-2.722s-1.109-6.15-1.109-6.15
	c1.554-1.151,2.687-2.78,3.226-4.637c0.907-3.024,0.6-7.762,0-10.785c-1.008-4.738-7.762-4.032-8.367-3.629
	c-2.218,1.411-3.024,4.637-3.831,7.863c-0.9,4.034-1.24,8.173-1.008,12.3c0.2,3.024,2.117,6.048,1.512,5.948
	c-3.327-0.1-4.738-4.436-4.738-4.436c-0.57,1.358-1.607,2.467-2.924,3.125c-2.127,1.088-4.355,1.966-6.653,2.621
	c1.328-1.937,2.222-4.137,2.621-6.451C17.106,21.395,18.112,9.602,21.438,5.367z"/>
<path class="st1" d="M27.789,43.071l14.617-1.714l1.21,1.21l1.915,15.524l-1.815,2.722l-3.024-17.238l-13.508,0.706L27.789,43.071z"
	/>
<path class="st12" d="M43.414,49.422h1.512l1.311,6.855l-2.117,0.2L43.414,49.422z"/>
<path class="st13" d="M25.067,41.962l2.823-0.6l0.3,3.226h-3.123V41.962z"/>
<path class="st14" d="M20.43,41.257l1.714-2.621l0.907,2.117l-0.1,3.629H20.53L20.43,41.257z"/>
<path class="st2" d="M108.535,70.993c-0.047,2,1.439,3.705,3.427,3.932c0.2,0,0.5-0.2,0.5-0.4c0.019-0.048,0.029-0.099,0.03-0.15
	c0.006-0.245-0.188-0.449-0.433-0.455c0,0,0,0,0,0c-1.468-0.178-2.56-1.444-2.52-2.923c-0.048-0.698,0.304-1.362,0.908-1.714
	c0.4-0.2,0.806,0.1,1.109,0.3c0.206,0.184,0.522,0.166,0.706-0.04c0.17-0.19,0.17-0.477,0-0.666c-0.482-0.49-1.172-0.714-1.85-0.6
	c-0.142-0.733-0.198-1.479-0.168-2.225c0-0.011,0-0.021,0-0.032c-0.009-0.278-0.242-0.497-0.52-0.488
	c-0.278,0.009-0.497,0.242-0.488,0.52c-0.028,0.912,0.039,1.824,0.2,2.722c0,0,0.006,0.009,0.008,0.013
	C108.824,69.348,108.49,70.158,108.535,70.993z"/>
<path class="st2" d="M121.844,76.841c-0.202,0.174-0.28,0.452-0.2,0.706c0.1,0.2,0.2,0.3,0.4,0.3h0.306
	c0.918-0.446,1.3-1.552,0.854-2.47c-0.043-0.088-0.092-0.172-0.148-0.252c-0.115-0.402-0.079-0.832,0.1-1.21
	c0.1-0.3,0.1-0.6-0.2-0.706c-0.253-0.11-0.548-0.027-0.705,0.2c-0.384,0.645-0.421,1.439-0.1,2.117
	C122.449,76.136,122.55,76.438,121.844,76.841z"/>
<path class="st2" d="M119.927,71.599c0.272,0.125,0.595,0.006,0.72-0.266c0.125-0.272,0.006-0.595-0.266-0.72
	c-0.018-0.008-0.035-0.015-0.054-0.021c-1.119-0.37-2.333-0.335-3.428,0.1c-0.3,0.2-0.4,0.4-0.3,0.706
	c0.096,0.187,0.29,0.303,0.5,0.3h0.1C118.072,71.361,119.032,71.327,119.927,71.599z"/>
<path class="st2" d="M127.994,71.398c0.14-0.25,0.05-0.566-0.2-0.706c-0.976-0.357-2.048-0.357-3.024,0
	c-0.229,0.044-0.379,0.266-0.335,0.496c0.007,0.036,0.019,0.071,0.035,0.104c0.096,0.187,0.29,0.303,0.5,0.3h0.2
	c0.683-0.252,1.434-0.252,2.117,0C127.536,71.734,127.852,71.647,127.994,71.398C127.994,71.398,127.994,71.398,127.994,71.398z"/>
<path class="st2" d="M111.555,70.883c-0.168-0.218-0.481-0.259-0.7-0.092c-0.2,0.2-0.305,0.5-0.1,0.706l0.5,0.706
	c0.097,0.123,0.243,0.196,0.4,0.2c0.11,0.013,0.22-0.023,0.3-0.1l0.011-0.008c0.218-0.168,0.259-0.481,0.091-0.7l-0.5-0.706
	L111.555,70.883z"/>
<path class="st2" d="M129.202,73.111c0.2,0,0.4-0.2,0.5-0.5c0.051-0.515,0.128-1.189,0.192-1.872
	c1.415-0.938,2.314-2.482,2.431-4.176c0.309-2.657-0.709-5.295-2.722-7.056c-0.206-0.184-0.522-0.166-0.706,0.04
	c-0.17,0.19-0.17,0.477,0,0.666c1.77,1.527,2.675,3.827,2.42,6.15c-0.071,0.599-0.229,1.185-0.47,1.738
	c-0.043-0.015-0.088-0.024-0.133-0.027c-2.924,0.1-3.831-1.916-4.536-3.73c-0.5-1.109-0.907-2.016-1.714-2.318
	c-0.556-0.133-1.142-0.024-1.613,0.3c-0.305,0.2-0.407,0.4-0.2,0.706c0.144,0.245,0.455,0.333,0.706,0.2
	c0.219-0.196,0.521-0.271,0.807-0.2c0.4,0.1,0.806,0.908,1.109,1.714c0.588,1.514,1.463,3.516,3.729,4.138
	c0,1.109-0.2,2.619-0.3,3.626C128.681,72.812,128.901,73.077,129.202,73.111z M130.262,69.065c-0.083,0.105-0.171,0.205-0.265,0.3
	c0-0.107,0.006-0.208,0.008-0.309C130.09,69.06,130.176,69.062,130.262,69.065L130.262,69.065z"/>
<path class="st2" d="M108.233,65.55c0.1,0,0.3-0.1,0.3-0.2c0.6-0.5,0.7-1.512,0.907-2.621c0.134-1.225,0.475-2.418,1.008-3.529
	c1.109-1.814,3.125-3.024,4.334-2.52c0.251,0.083,0.521-0.053,0.604-0.304s-0.053-0.521-0.304-0.604l0,0
	c-1.714-0.705-4.134,0.6-5.545,2.924c-0.588,1.239-0.963,2.568-1.109,3.932c0.008,0.704-0.164,1.398-0.5,2.016
	c-0.048,0.025-0.092,0.059-0.128,0.1c-0.161,0.176-0.149,0.449,0.026,0.61C107.939,65.459,108.081,65.527,108.233,65.55z"/>
<path class="st2" d="M117.407,55.978c2.924-3.529,7.762-0.2,9.677,1.31c0.93,0.718,2.054,1.139,3.226,1.209h0.407
	c0.28-0.048,0.468-0.314,0.42-0.593c-0.048-0.28-0.314-0.468-0.593-0.42c-0.009,0.002-0.018,0.003-0.027,0.005
	c-1.019-0.055-2-0.405-2.823-1.008c-4.538-3.629-8.671-4.032-11.091-1.109c-0.166,0.223-0.12,0.537,0.103,0.703
	s0.537,0.12,0.703-0.103L117.407,55.978z"/>
<path class="st2" d="M113.679,69.18c-0.28-0.048-0.545,0.14-0.593,0.42c-0.046,0.269,0.127,0.528,0.393,0.588h0.5
	c2.014,0,2.722-1.713,3.429-3.327c0.6-1.714,1.311-3.326,3.528-3.427l0,0c0.278,0,0.504-0.226,0.504-0.504s-0.226-0.504-0.504-0.504
	c-2.823,0.1-3.73,2.319-4.435,4.133C115.695,68.374,115.292,69.384,113.679,69.18z"/>
<path class="st2" d="M118.415,74.724c0.3,0.1,0.7-0.2,0.806-0.706l0.007-0.022c0.131-0.413-0.098-0.854-0.511-0.986
	c-0.3-0.1-0.705,0.2-0.807,0.706l-0.008,0.023C117.772,74.152,118.001,74.593,118.415,74.724
	C118.415,74.724,118.415,74.724,118.415,74.724z"/>
<path class="st2" d="M119.019,57.084c-0.223-0.166-0.537-0.12-0.703,0.103s-0.12,0.537,0.103,0.703l0,0
	c0.77,0.546,1.393,1.273,1.815,2.117c0.096,0.187,0.29,0.303,0.5,0.3h0.3c0.213-0.167,0.293-0.452,0.2-0.706
	C120.743,58.573,119.976,57.702,119.019,57.084z"/>
<path class="st2" d="M125.37,73.817c-0.1,0.4,0.1,0.907,0.5,0.908c0.401-0.017,0.736-0.311,0.806-0.706
	c0-0.009,0.005-0.017,0.007-0.025c0.103-0.384-0.125-0.779-0.509-0.882c-0.001,0-0.001,0-0.002,0
	C125.773,73.131,125.44,73.424,125.37,73.817z"/>
<path class="st2" d="M103.798,100.226c0.205,1.877,0.205,3.77,0,5.647c-0.1,1.411-0.2,2.924-0.2,4.335c0,1.31,0.1,3.225,0.2,5.04
	c0.1,2.621,0.2,5.242,0.1,6.351c-0.024,0.304,0.197,0.572,0.5,0.606c0.2-0.039,0.38-0.147,0.507-0.306c0.1-1.211,0-3.831-0.1-6.553
	c-0.1-1.814-0.2-3.73-0.2-5.04c0-1.411,0.1-2.923,0.2-4.335c0.153-1.98,0.153-3.968,0-5.948c-0.6-4.234-3.125-10.786-7.258-11.391
	c-0.277-0.063-0.552,0.111-0.615,0.388c-0.063,0.277,0.111,0.552,0.388,0.615c0.009,0.002,0.018,0.004,0.027,0.005
	C100.875,90.145,103.193,96.4,103.798,100.226z"/>
<path class="st2" d="M136.16,200.125c-0.4-1.109-1.613-2.016-3.024-3.125c-0.595-0.404-1.168-0.842-1.714-1.31
	c-1.275-1.383-2.391-2.904-3.327-4.536c-0.49-0.736-0.942-1.463-1.38-2.131c0.232-0.907-0.053-1.867-0.743-2.5
	c-0.202-0.245-0.37-0.516-0.5-0.806c-0.078-0.568-0.111-1.141-0.1-1.714c0.024-0.678-0.043-1.356-0.2-2.016
	c-0.231-1.085-0.676-2.113-1.31-3.024c-0.416-0.557-0.755-1.167-1.008-1.815c-0.737-1.853-1.376-3.744-1.915-5.664
	c0.031-0.092,0.034-0.191,0.008-0.284c-0.5-1.714-1.008-4.234-1.512-6.553l-0.3-1.613c-1.349-6.111-2.2-11.467-2.793-15.586
	c0.66,0.057,1.322,0.077,1.984,0.061c5.746,0,15.827-1.512,20.569-2.117c0.677-0.062,1.35-0.162,2.016-0.3
	c0.28-0.048,0.468-0.314,0.42-0.593c-0.048-0.28-0.314-0.468-0.593-0.42c-0.009,0.002-0.018,0.003-0.027,0.005
	c-0.5,0.1-1.109,0.2-2.016,0.3c-5.372,0.8-17.9,2.669-22.5,2.041c-0.1-0.723-0.2-1.408-0.286-2.04l-0.2-1.21
	c-0.1-0.907-0.2-1.814-0.3-2.621c-0.196-1.817-0.549-3.614-1.055-5.371c1.052,0.137,2.11,0.213,3.171,0.228
	c1.212,0,2.05-0.152,2.454-0.705c1.122,0,2.187-0.022,3.191-0.1c0.737-0.079,1.477-0.113,2.218-0.1c2.09-0.025,4.18,0.109,6.25,0.4
	c1.134,0.183,2.279,0.283,3.427,0.3h0.1c0.907,0,3.529-1.109,3.831-2.217c0.5-1.815,0.907-3.529,0.907-3.529
	c0.007-0.046,0.007-0.092,0-0.138c0.115-0.13,0.233-0.256,0.352-0.382c0.433-0.178,0.812-0.466,1.1-0.836
	c0.154,0.034,0.311,0.049,0.468,0.045c2.318,0,4.738-2.117,5.442-2.925c0,0,0-0.006,0.006-0.009c0.033,0,0.064,0.01,0.1,0.011
	c0.323-0.023,0.635-0.128,0.907-0.305c0.357-0.298,0.62-0.693,0.76-1.136c0.116,0.013,0.232,0.025,0.35,0.031
	c0.657,0.018,1.3-0.197,1.814-0.607c0.432-0.378,0.656-0.941,0.6-1.512c0-0.051,0-0.1,0-0.154c0.886-0.205,2-0.891,1.913-2.063
	c0-0.3-0.3-3.125-1.512-3.528c-0.056-0.015-0.113-0.026-0.17-0.033l3.5-3.194c0.1-0.1,0.2-0.405,0.1-0.5c-0.1-0.095-0.2-0.3-0.4-0.3
	l-0.4-0.1c-0.141-0.014-0.282,0.021-0.4,0.1l-0.491,0.438c-0.161-0.14-0.271-0.329-0.315-0.538c0.116-0.198,0.074-0.451-0.1-0.6
	l-0.017-0.017c-0.195-0.186-0.503-0.178-0.689,0.017c0,0,0,0,0,0l-8.135,6.843c2.3-2.202,4.711-4.283,7.226-6.236
	c0.179-0.191,0.219-0.473,0.1-0.706c-0.123-0.206-0.378-0.291-0.6-0.2c-0.477,0.226-0.95,0.462-1.421,0.7
	c0.138-0.1,0.271-0.2,0.414-0.3c0.206-0.123,0.291-0.378,0.2-0.6c-0.064-0.239-0.309-0.381-0.548-0.317
	c-0.018,0.005-0.035,0.01-0.052,0.017l-4.949,1.584c-0.077-3.456-0.659-9.826-1.5-16.2c-1.008-7.258-1.915-11.089-4.335-13.71
	c-1.613-1.613-4.133-2.318-6.452-2.923c-1.22-0.262-2.404-0.669-3.528-1.21c-0.186-0.103-0.415-0.082-0.579,0.053
	c0.249-0.705,0.477-1.459,0.68-2.269c0.048-0.28-0.14-0.545-0.42-0.593c-0.269-0.046-0.528,0.127-0.588,0.393
	c-1.008,3.932-3.125,8.67-7.56,8.367c-3.629-0.2-6.451-3.73-7.359-7.158c-0.1-0.3-0.3-0.5-0.6-0.4s-0.5,0.3-0.4,0.6
	c0.907,3.73,4.133,7.662,8.266,7.964h0.5c1.518,0.008,2.988-0.536,4.134-1.532c0.005,0.788-0.283,1.549-0.809,2.136
	c-0.2,0.3-0.5,0.6-0.705,0.907c-1.139,1.138-1.851,2.633-2.016,4.234c-0.082,2.277-0.591,4.518-1.5,6.607
	c-0.039-0.359-0.11-0.714-0.211-1.061c-0.458-1.309-0.997-2.588-1.613-3.831c-0.435-0.915-0.675-1.911-0.705-2.924
	c-0.016-0.723-0.151-1.438-0.4-2.117c-0.832-1.265-1.741-2.477-2.722-3.629c-0.132-0.258-0.301-0.496-0.5-0.706
	c-1.411-1.815-2.923-3.932-2.52-6.351c0.011-0.032,0.018-0.066,0.021-0.1c0.06-0.033,0.115-0.065,0.179-0.1
	c0.241-0.155,0.311-0.476,0.156-0.717c-0.14-0.219-0.421-0.3-0.656-0.19c-0.743,0.37-1.403,0.886-1.94,1.519c-0.9,0.3-2,0.7-3.2,1
	c-0.6,0.2-1.209,0.4-1.915,0.6c-3.528,1.109-7.158,2.419-10.081,5.141c-3.831,3.528-3.831,9.478-3.831,14.718v1.512
	c0,1.363,0.057,2.385,0.086,3.322l-0.089,0.009c0,0,0.042,0.492,0.107,1.256c0.012,1.474,0.092,2.858,0,5.192
	c-0.2,5.343-0.6,9.073-1.21,10.383c-0.4,0.907-0.907,1.714-1.31,2.52c-0.357,0.505-0.661,1.046-0.907,1.613
	c-0.183,0.621-0.251,1.27-0.2,1.915c0.104,1.926-0.205,3.851-0.907,5.647c-1.716,4.335-2.119,7.56-0.305,13.71
	c0.046,0.201,0.209,0.354,0.412,0.388c0.171,0.358,0.369,0.701,0.594,1.027c1.511,2.117,4.939,4.637,12.5,4.234
	c0.278,0,0.504-0.226,0.504-0.504s-0.226-0.504-0.504-0.504c-5.544,0.3-9.677-1.109-11.592-3.831
	c-1.295-1.867-1.523-4.274-0.6-6.351c1.511-3.629,5.947-7.359,8.165-8.166c3.404-1.161,6.988-1.708,10.584-1.613
	c4.032,0.4,6.15,1.411,7.158,3.528c0.96,2.129,1.507,4.421,1.613,6.754c0.1,0.806,0.2,1.613,0.3,2.621l0.2,1.21
	c0.6,4.334,1.512,10.988,3.226,18.75l0.3,1.613c0.428,1.971,0.857,4.084,1.286,5.727c-0.011,0.074-0.004,0.15,0.02,0.221
	c0.653,2.324,1.426,4.612,2.318,6.855c0.275,0.669,0.612,1.31,1.008,1.915c0.582,0.817,0.993,1.743,1.21,2.722
	c0.16,0.591,0.228,1.203,0.2,1.814c-0.012,0.607,0.022,1.213,0.1,1.815c0.133,0.485,0.375,0.933,0.706,1.311
	c0.156,0.178,0.302,0.365,0.438,0.56c-0.112-0.059-0.242-0.074-0.364-0.041c-3.124-0.733-8.091,1.674-10.261,3.244
	c-0.488-0.962-0.825-1.993-1-3.058c-0.324-1.652-0.796-3.272-1.411-4.839c-0.923-2.253-1.984-4.448-3.177-6.571
	c-0.3-0.706-0.6-1.308-0.706-1.512c-1.613-4.334-3.529-10.686-4.738-14.718c-1.009-3.427-1.714-6.955-2.42-10.383
	c-0.527-3.422-1.546-6.749-3.025-9.879c-0.151-0.243-0.471-0.318-0.715-0.167c-0.226,0.14-0.309,0.428-0.193,0.667
	c1.205,2.16,2.024,4.514,2.42,6.956c0.118,0.882,0.285,1.757,0.5,2.621c0.706,3.427,1.411,7.056,2.419,10.484
	c1.21,4.136,3.125,10.484,4.738,14.819c0.1,0.3,0.4,0.806,0.806,1.613c1.182,2.03,2.193,4.154,3.024,6.351
	c0.612,1.499,1.085,3.051,1.411,4.637c0.574,2.3,0.969,3.863,2.128,4.1c0.027,1.105,0.144,2.205,0.35,3.291
	c-0.08,0.07-0.136,0.163-0.159,0.267c-0.115,0.796,0.025,1.607,0.4,2.318c0.972,0.746,2.019,1.388,3.125,1.915
	c0.1,0.908,0.4,3.427,1.814,4.032c1.768,0.674,3.654,0.983,5.545,0.907c1.714,0,3.125-0.2,3.931-0.1h0.4
	c3.226-0.3,5.343-0.706,5.948-2.017c0.278-0.701,0.172-1.496-0.28-2.1C136.253,200.397,136.217,200.257,136.16,200.125z
	 M125.371,133.495c-0.705,0-1.411,0.1-2.318,0.1c-1.128,0-2.435,0.085-3.831,0.1c-0.108-1.827,0.204-3.655,0.913-5.342
	c1.121,0.033,2.24-0.102,3.321-0.4c0.515-0.132,0.996-0.373,1.411-0.706c0.478-0.354,1.029-0.595,1.613-0.706
	c0.822,0.008,1.639,0.143,2.42,0.4c0.6,0.1,1.311,0.3,2.016,0.4c0.3,0,0.6,0.1,0.907,0.1c0.479,0.057,0.951,0.157,1.411,0.3v0.2
	c-0.2,0.807-1.411,0.807-3.125,0.706c-0.805-0.126-1.628-0.092-2.42,0.1c-0.243,0.089-0.375,0.352-0.3,0.6
	c0.096,0.187,0.29,0.303,0.5,0.3l0,0c0.055,0,0.1,0.045,0.1,0.1l0,0c0.662-0.147,1.343-0.181,2.016-0.1
	c1.24,0.077,2.717,0.152,3.563-0.6c0.021-0.001,0.042-0.004,0.063-0.008c0.4-0.1,0.806-0.3,1.109-0.4
	c1.714-0.907,5.142-1.713,5.545-1.31c0.015,0.016,0.028,0.033,0.039,0.051c-0.13,0.14-0.274,0.29-0.438,0.454l-0.057,0.06
	c-0.361,0.179-0.819,0.377-1.155,0.546c-0.4,0.2-0.706,0.3-1.109,0.5c-0.5,0.3-1.109,0.6-1.613,0.908
	c-1.036,0.716-2.199,1.23-3.427,1.512c-0.237,0.107-0.392,0.34-0.4,0.6c0.032,0.246,0.253,0.423,0.5,0.4l0,0
	c1.364-0.301,2.662-0.848,3.831-1.613c0.6-0.3,1.109-0.6,1.613-0.806c0.023-0.009,0.045-0.022,0.069-0.031
	c-0.055,0.078-0.113,0.155-0.166,0.234c-1.414,2.218-4.236,3.73-5.749,3.73h-0.1c-0.019-0.001-0.037-0.001-0.056,0
	c-0.037,0.005-0.074,0.015-0.109,0.029c-0.079-0.012-0.158-0.017-0.237-0.029c-2.109-0.236-4.229-0.362-6.351-0.378L125.371,133.495
	z M114.986,121.595c0.362-0.543,1.784-2.634,3.239-4.662c0.189-0.09,0.357-0.219,0.493-0.378c0.031-0.138,0.06-0.276,0.09-0.415
	c0.995-1.212,1.928-2.408,2.557-3.241l-0.195,2.791c-0.164-0.05-0.342,0.014-0.436,0.158l-5.663,6.5L114.986,121.595z
	 M139.171,122.282c-0.005,0.163,0.014,0.343,0.014,0.524c0.1,0.5,0.1,0.906-0.1,1.008c-0.022,0.02-0.043,0.042-0.062,0.066
	l-16.873-7.76l0.259-3.724L139.171,122.282z M131.606,109.07c0.374,2.726,1.008,7.4,1.306,8.617l-3.675-2.156l0.062-0.185
	c0.89-2.044,1.659-4.138,2.305-6.272L131.606,109.07z M140.197,123.61c0.089,0.194,0.236,0.355,0.421,0.46l-0.428,0.346l-0.28-0.129
	c0.163-0.189,0.262-0.424,0.285-0.673L140.197,123.61z M117.61,125.726h-0.007l-3.019-1.309l0.227-0.26
	c0.151-0.073,0.265-0.205,0.317-0.364l6.211-7.138l18.751,8.669c0.1,0.1,0.4,0,0.5-0.1l2.218-1.815l0.1,0.2l-2.822,2.52
	l-0.017,0.017c-0.026,0.03-0.048,0.064-0.065,0.1c-2.026-0.111-5.582,1.492-5.665,1.492c-0.044,0.02-0.091,0.035-0.136,0.054
	c0.013-0.231-0.045-0.461-0.165-0.659c-0.3-0.5-1.109-0.6-2.117-0.706c-0.3,0-0.6-0.1-0.908-0.1c-0.648-0.085-1.288-0.219-1.915-0.4
	c-0.905-0.316-1.864-0.452-2.822-0.4c-0.742,0.114-1.439,0.427-2.016,0.907c-0.382,0.24-0.788,0.441-1.21,0.6
	c-0.4,0.092-0.812,0.156-1.223,0.207c-0.013-0.075-0.043-0.147-0.089-0.208c-0.703-0.895-2.114-1.095-4.13-1.303L117.61,125.726z
	 M141.985,125.911l0.7-0.606c0.042,0.013,0.086,0.021,0.13,0.022l0,0c0.93-0.029,1.85-0.202,2.727-0.514
	c0.085,0.069,0.191,0.107,0.3,0.109c0.084-0.003,0.168,0.004,0.251,0.02c-0.862,0.762-2.623,2.1-4.234,2.136
	c0.213-0.35,0.258-0.776,0.124-1.163L141.985,125.911z M143.928,123.753c0.074-0.031,0.14-0.079,0.191-0.141
	c0.706-1.008,1.207-1.31,1.512-1.31c0.107,0.008,0.192,0.093,0.2,0.2c0.093,0.446-0.06,0.907-0.4,1.209
	c-0.469,0.306-1.01,0.486-1.569,0.522c0.08-0.145,0.104-0.315,0.065-0.476L143.928,123.753z M135.153,134.201
	c-0.086,0-0.171-0.012-0.257-0.014c1.366-0.675,2.553-1.662,3.468-2.88c-0.118,0.437-0.248,0.909-0.388,1.382
	C137.871,133.192,135.853,134.201,135.153,134.201z M146.746,124.12c-0.07-0.028-0.144-0.044-0.216-0.067
	c0.358-0.545,0.472-1.216,0.313-1.849c-0.026-0.103-0.065-0.201-0.117-0.293c0.01-0.036,0.017-0.073,0.019-0.111
	c0.202-0.793,0.659-1.499,1.3-2.008c-0.017,0.155,0.044,0.308,0.162,0.409c0.316,1.5-0.076,3.54-0.653,4.021
	c-0.106,0.101-0.509,0-0.812-0.102H146.746z M150.778,119.785c0,0.6-0.1,1.31-0.1,1.915c0.028,0.3-0.083,0.597-0.3,0.806
	c-0.336,0.173-0.71,0.262-1.088,0.258c0.188-1.057,0.146-2.142-0.122-3.182c-0.007-0.027-0.019-0.052-0.028-0.078
	c0.374-0.923,1.044-1.937,1.642-1.937c0.154,0.731,0.152,1.487-0.008,2.217L150.778,119.785z M152.693,119.485
	c0.063,0.5-0.456,0.806-0.86,0.967c0.016-0.188,0.028-0.377,0.054-0.564c0.204-0.941,0.123-1.921-0.232-2.815
	c0.151-0.2,0.231-0.208,0.231-0.208c0.299,0.098,0.702,1.207,0.803,2.618L152.693,119.485z M152.793,112.428
	c0.126,0.197,0.263,0.386,0.411,0.566l-10.895,9.714l-0.824,0.666c-0.097-0.106-0.236-0.165-0.38-0.162
	c-0.057-0.17-0.124-0.337-0.2-0.5c-0.012-0.049-0.026-0.1-0.042-0.158c0.081-0.038,0.136-0.09,0.135-0.141
	c0.047-0.08,0.1-0.163,0.152-0.245L152.793,112.428z M145.634,115.249c0.5-0.3,1.109-0.706,1.613-1.008
	c-2.075,1.728-4.006,3.623-5.772,5.665c1.037-1.711,2.336-3.249,3.851-4.557c0.11,0.001,0.217-0.035,0.305-0.101L145.634,115.249z
	 M147.652,112.327c-0.863,0.677-1.624,1.315-2.306,1.919c-0.1,0.067-0.212,0.129-0.316,0.2l-0.021,0.016
	c-0.072,0.06-0.126,0.14-0.154,0.23c-4.032,3.695-4.785,5.959-4.879,6.921c-0.028,0-0.052-0.011-0.081-0.011
	c-0.081,0.004-0.16,0.02-0.236,0.049l-2.219-1.3c1.351-2.817,7.3-6.819,8-7.314L147.652,112.327z M124.566,87.027
	c0.2-0.3,0.5-0.6,0.706-0.907c0.707-0.844,1.067-1.925,1.008-3.024v-0.1c0.007-0.166-0.04-0.33-0.134-0.467
	c0.26-0.3,0.501-0.615,0.723-0.943c0.509,1.149,0.821,2.376,0.925,3.628c0,0.3,0.1,0.6,0.1,0.907
	c0.162,0.806,0.433,1.586,0.806,2.319c0.188,0.325,0.355,0.662,0.5,1.008c0,0-0.4,0.2-1.915-0.4c-0.052-0.057-0.123-0.093-0.2-0.1
	c-1.031-0.49-2.139-0.797-3.275-0.905c0.232-0.337,0.487-0.666,0.753-1.021L124.566,87.027z M122.752,90.656
	c0.027-0.405,0.113-0.804,0.257-1.183c0.015-0.011,0.032-0.013,0.045-0.027c0.706-0.7,1.613-0.4,2.823,0.1
	c0.3,0.1,0.5,0.2,0.806,0.3h0.1c0.672,0.287,1.388,0.456,2.117,0.5c0.4,0,0.706-0.1,0.911,0c0.6-0.5,0.2-1.311-0.2-2.218
	c-0.28-0.69-0.516-1.397-0.706-2.117c0-0.3-0.1-0.6-0.1-0.907c-0.078-1.485-0.491-2.932-1.209-4.234
	c-0.043-0.071-0.103-0.13-0.174-0.173c0.398-0.713,0.742-1.455,1.029-2.22c0.021,0.158,0.114,0.298,0.253,0.377
	c1.178,0.604,2.433,1.045,3.73,1.31c2.217,0.605,4.637,1.21,5.947,2.622c2.218,2.319,3.125,6.25,4.032,13.1
	c0.851,5.575,1.356,11.198,1.512,16.835c0,0.008,0,0.015,0,0.023c-1.879,1.335-6.106,4.521-7.421,7.044l-2.69-1.578
	c0.138-0.104,0.19-0.287,0.129-0.448l-0.1-0.4c-0.4-1.412-1.512-10.382-1.512-10.484c-0.013-0.055-0.035-0.107-0.065-0.155
	c1.618-6.464,2.451-9.558,4.9-14.262l0.013-0.022c0.133-0.254,0.035-0.568-0.219-0.701c-0.254-0.133-0.568-0.035-0.701,0.22
	c-2.621,4.939-3.427,8.065-5.141,15.02c-0.707,2.719-1.617,5.381-2.722,7.964l-0.026,0.077l-6.195-3.633
	c-0.016-0.009-0.03-0.02-0.047-0.028l-0.08-0.047c-0.2-0.2-0.4-0.1-0.6,0.1c0,0-0.992,1.363-2.293,3.068
	c1-5.148,1.413-10.394,1.233-15.635c1.96-2.606,2.26-6.093,2.365-8.192L122.752,90.656z M110.473,77.281
	c-0.056,2.462,1.532,4.592,2.8,6.314c0.2,0.2,0.3,0.5,0.5,0.705c0.2,0.3,0.6,0.706,0.907,1.109c0.469,0.625,1,1.191,1.352,1.79
	c-1.151-0.072-2.295,0.218-3.272,0.83c-0.392,0.192-0.796,0.359-1.209,0.5c-0.2,0.1-0.3,0.1-0.5,0.2
	c-0.323,0.227-0.716,0.333-1.109,0.3c-0.013-0.611,0.055-1.221,0.2-1.814c0.106-0.327,0.173-0.665,0.2-1.008
	c0.096-1.585-0.005-3.176-0.3-4.737c-0.1-0.5-0.1-0.908-0.2-1.311C109.697,78.77,109.662,78.017,110.473,77.281z M85.853,139.747
	c-0.111,0.255-0.207,0.516-0.289,0.782c-0.27-2.782,0.178-5.587,1.3-8.147c0.767-1.92,1.111-3.983,1.008-6.048
	c-0.029-0.473,0.004-0.948,0.1-1.412c0.2-0.5,0.5-1.008,0.806-1.613c0.4-0.806,0.908-1.713,1.311-2.621
	c0.668-2.15,1.038-4.382,1.1-6.633c0.347,3.652,0.739,6.994,1.416,10.971c0.184,1.2,1.042,4.576,2.112,5.92l-0.1,0.029
	C92.203,131.783,87.565,135.714,85.853,139.747z M105.714,129.364c-3.335-0.082-6.664,0.339-9.874,1.247
	c-0.031-0.05-0.067-0.096-0.107-0.139c-0.806-0.606-1.815-3.832-2.117-5.647c-0.779-4.3-1.318-8.64-1.613-13
	c-0.143-1.87-0.441-5.43-0.6-7.319c0-0.048,0-0.1,0-0.143c-0.1-1.109-0.1-2.319-0.1-4.133v-1.512
	c-0.1-5.041-0.1-10.685,3.427-14.012c2.822-2.621,6.351-3.831,9.779-4.939c0.706-0.2,1.311-0.4,1.915-0.6
	c0.793-0.195,1.574-0.435,2.34-0.719c-0.053,0.611-0.027,1.226,0.075,1.831c0.1,0.4,0.1,0.908,0.2,1.311
	c0.338,1.453,0.439,2.95,0.3,4.435c-0.1,0.3-0.1,0.6-0.2,0.907c-0.3,1.31-0.5,2.319,0.2,2.823c0.214,0.126,0.457,0.195,0.706,0.2
	c0.5,0,0.907-0.2,1.306-0.2c0.2,0,0.3-0.1,0.4-0.1c0.4-0.2,0.908-0.4,1.411-0.6c1.915-0.91,2.822-1.111,3.327-0.2
	c0.008,0.014,0.021,0.022,0.03,0.035c0.031,0.224,0.062,0.447,0.075,0.673c-0.06,1.164,0.22,2.32,0.806,3.327
	c0.583,1.175,1.088,2.388,1.512,3.629c0.5,1.714,0.706,10.686-1.311,19.859c-0.003,0.041,0,0.082,0.007,0.123
	c-1.787,2.4-3.536,5.019-3.536,5.019c-0.076,0.08-0.113,0.19-0.1,0.3l0.164,1.623l-0.868,1c-0.1,0.1-0.1,0.2-0.1,0.4
	c0,0.1,0.2,0.2,0.3,0.3l0.055,0.024c-0.9-0.179-1.792-0.383-2.676-0.63c-0.6-0.2-1.209-0.3-1.713-0.5
	c-3.326-1.006-5.645-1.813-9.375,0.2c-0.241,0.155-0.311,0.476-0.157,0.717c0.14,0.219,0.421,0.3,0.657,0.19
	c3.329-1.816,5.444-1.11,8.569-0.1c0.58,0.134,1.152,0.3,1.713,0.5c2.268,0.671,4.599,1.11,6.956,1.31
	c0.885,0.1,1.6,0.173,2.161,0.294c-1.45,2.2-1.354,4.775-1.354,6.665v0.6c-1.45,0.023-2.9-0.077-4.333-0.3c-0.016,0-0.032,0-0.047,0
	c-0.082-0.2-0.161-0.4-0.256-0.6c-1.201-2.436-3.515-3.747-7.955-4.15L105.714,129.364z M125.24,188.673
	c0.708,0.956,1.359,1.953,1.948,2.986c0.969,1.723,2.155,3.316,3.528,4.738c0.525,0.524,1.099,0.996,1.714,1.411
	c1.311,1.008,2.42,1.814,2.722,2.722c0,0.007,0,0.014,0,0.02c0,0.05,0.008,0.1,0.024,0.147c0.026,0.146,0.016,0.296-0.028,0.438
	c-0.3,0.4-1.815,0.6-2.319,0.706c-2.976,0.448-5.994,0.555-8.995,0.321c-0.076-0.072-0.177-0.114-0.282-0.116
	c-0.838-0.044-1.659-0.247-2.42-0.6c-0.4-0.2-0.6-0.705-0.806-1.512c-0.19-0.908-0.568-1.767-1.109-2.52
	c-0.389-0.437-0.871-0.782-1.411-1.008c-0.448-0.195-0.857-0.468-1.21-0.806c-0.304-1.185-0.439-2.406-0.4-3.629v-0.63
	c2.331-1.561,6.679-3.375,9.043-2.669L125.24,188.673z M116.402,196.611c0.274,0.2,0.588,0.385,0.905,0.6
	c0.398,0.228,0.77,0.498,1.109,0.806c0.132,0.221,0.25,0.45,0.36,0.682c-0.708-0.4-1.4-0.823-2.074-1.285
	c-0.149-0.247-0.251-0.52-0.301-0.804L116.402,196.611z M135.653,202.25c-0.5,1.008-3.73,1.31-5.141,1.411h-0.4
	c-1.512,0.1-6.351,0.6-8.871-0.6c-0.294-0.153-0.517-0.413-0.626-0.726l0.022,0.018c0.855,0.509,1.828,0.787,2.823,0.806
	c0.032-0.007,0.063-0.016,0.093-0.029c0.862,0.072,1.868,0.13,2.931,0.13c2.195,0.02,4.388-0.15,6.554-0.508
	c0.952-0.069,1.874-0.362,2.691-0.855C135.745,202.02,135.718,202.144,135.653,202.25L135.653,202.25z"/>
<path class="st2" d="M125.674,197.002c-0.214,0.106-0.301,0.365-0.196,0.579c0.024,0.048,0.056,0.091,0.096,0.127
	c0.11,0.105,0.25,0.175,0.4,0.2c0.1,0,0.2-0.1,0.3-0.2c0.86-0.571,1.908-0.786,2.923-0.6l0.025,0.008
	c0.253,0.076,0.52-0.066,0.596-0.319c0.076-0.253-0.066-0.52-0.319-0.596C128.168,195.923,126.782,196.213,125.674,197.002z"/>
<path class="st2" d="M124.767,195.591c-0.214,0.106-0.301,0.365-0.196,0.579c0.024,0.048,0.056,0.091,0.096,0.127
	c0.11,0.105,0.25,0.175,0.4,0.2c0.1,0,0.2,0,0.3-0.2c0.86-0.571,1.908-0.786,2.923-0.6c0.254,0.072,0.519-0.075,0.592-0.33
	c0.067-0.238-0.057-0.487-0.287-0.577C127.263,194.511,125.875,194.801,124.767,195.591z"/>
<path class="st2" d="M123.962,194.278c-0.214,0.106-0.301,0.365-0.196,0.579c0.024,0.048,0.056,0.091,0.096,0.127
	c0.11,0.105,0.25,0.175,0.4,0.2c0.1,0,0.2,0,0.3-0.2c0.86-0.571,1.908-0.786,2.924-0.6l0.025,0.008
	c0.253,0.076,0.52-0.066,0.596-0.319c0.077-0.253-0.066-0.52-0.319-0.596C126.457,193.199,125.07,193.489,123.962,194.278z"/>
<path class="st2" d="M123.556,193.88c0.1,0,0.2,0,0.3-0.2c0.86-0.571,1.908-0.786,2.923-0.6l0.025,0.008
	c0.253,0.076,0.52-0.066,0.596-0.319c0.076-0.253-0.066-0.52-0.319-0.596c-1.333-0.278-2.722,0.015-3.83,0.806
	c-0.214,0.106-0.301,0.365-0.196,0.579c0.024,0.048,0.056,0.091,0.096,0.127C123.263,193.789,123.405,193.857,123.556,193.88z"/>
<path class="st2" d="M163.886,194.321c-0.854-1.788-3.269-3.044-5.249-4.078c-0.5-0.3-1.008-0.6-1.411-0.806
	c-0.685-0.449-1.329-0.959-1.923-1.523c-0.043-0.186-0.191-0.331-0.378-0.37c-0.159-0.162-0.313-0.329-0.464-0.5
	c0.088-0.245-0.04-0.516-0.285-0.604c-0.057-0.02-0.117-0.03-0.177-0.027c-0.02,0-0.039,0.005-0.059,0.006
	c-0.078-0.106-0.144-0.127-0.144-0.208c-0.11-0.113-0.208-0.237-0.313-0.354c0-0.016,0.011-0.031,0.012-0.048
	c0.001-0.019,0.001-0.038,0-0.057c-0.016-0.261-0.239-0.46-0.5-0.446c-0.611-0.744-1.149-1.545-1.606-2.393
	c1.4-0.929,1.4-2.7,1.4-4.563c-0.05-0.671-0.05-1.345,0-2.016c0.242-2.493,0.631-4.97,1.164-7.418
	c0.014-0.014,0.03-0.026,0.043-0.041c0.094-0.47,0.167-0.847,0.231-1.181c0.026-0.11,0.048-0.221,0.074-0.332
	c0.001-0.02,0.001-0.039,0-0.059c0.1-0.544,0.185-0.987,0.3-1.553l0.2-1.109c0.3-1.411,0.6-2.823,0.806-4.032
	c0.907-4.637,2.218-9.174,3.327-13.105c0.6-2.218,1.209-4.335,1.713-6.149v-0.2c0.907-3.629,2.016-8.165-0.5-11.19
	c-2.117-2.52-6.351-3.528-13-3.024c-0.278,0-0.504,0.226-0.504,0.504s0.226,0.504,0.504,0.504c6.149-0.5,10.181,0.4,12.1,2.621
	c2.218,2.621,1.109,6.855,0.3,10.283v0.2c-0.5,1.814-1.109,3.932-1.713,6.149c-1.11,3.932-2.42,8.468-3.327,13.205
	c-0.3,1.21-0.5,2.622-0.806,4.033l-0.2,1.109c-0.1,0.907-0.3,1.512-0.6,3.024c-0.009,0.076-0.002,0.152,0.021,0.225
	c-0.552,2.448-0.928,4.932-1.127,7.434c-0.084,0.669-0.117,1.342-0.1,2.016c0,1.55-0.01,2.631-0.543,3.31
	c-2.6-1.475-4.508,0.126-6.113,1.531c-0.616,0.647-1.33,1.191-2.117,1.613c-2.048,1.172-2.772,1.115-3.093,1.018
	c-0.401-1.039-0.412-2.189-0.03-3.235c0.318-1.363,0.554-2.743,0.706-4.134c0.1-0.5,0.1-1.008,0.2-1.411
	c0.149-1.17,0.216-2.349,0.2-3.528v-1.765c0.211-9.959,1.016-17.738,2.615-23.237c1.714-6.25,1.411-7.56,0.706-9.678l-0.5,0.1
	l-0.5,0.2c0.6,1.915,1.008,3.125-0.706,9.072c-1.467,5.38-2.362,13.047-2.6,22.8c-0.008,0.027-0.014,0.055-0.017,0.083v0.6
	c0,0.069,0,0.136-0.005,0.206c-0.001,0.019-0.001,0.038,0,0.057c0,0.007,0,0.012,0.005,0.019v1.536
	c0.02,1.113-0.047,2.225-0.2,3.327c-0.1,0.4-0.1,0.908-0.2,1.411c-0.062,1.328-0.263,2.646-0.6,3.932
	c-0.451,1.356-0.416,2.828,0.1,4.161c0,0.01,0,0.02,0,0.03c0.008,0.117,0.059,0.226,0.143,0.307c0.021,0.046,0.038,0.094,0.06,0.14
	c0.001,0.079,0.038,0.152,0.1,0.2c0,0.776-0.029,1.551-0.1,2.324c-0.146,1.321-0.18,2.653-0.1,3.98v0.154
	c-0.1,0.908-0.3,2.42,0.908,2.823c1.267,0.204,2.548,0.304,3.831,0.3c0.903,0.093,1.814-0.081,2.62-0.5l0.3-0.1
	c0.2-0.1,0.4,0,1.008,0.706c0.477,0.601,1.057,1.113,1.713,1.512c1.008,0.6,3.528,0.907,7.359,0.907h2.925
	c2.822-0.1,4.334-0.6,4.939-1.613c0.395-0.93,0.281-1.997-0.3-2.823C164.305,194.397,164.098,194.293,163.886,194.321z
	 M143.419,185.614c0.836-0.48,1.615-1.055,2.319-1.713c1.535-1.366,2.638-2.219,4.1-1.78c0.003,0.055,0.013,0.11,0.03,0.163
	c0.504,1.169,1.154,2.268,1.935,3.273c-0.929,0.309-1.743,0.89-2.337,1.668l-0.007,0.01c-0.163,0.223-0.115,0.536,0.107,0.699
	c0,0,0.001,0.001,0.002,0.001c0.08,0.077,0.19,0.113,0.3,0.1c0.21,0.003,0.404-0.113,0.5-0.3c0.534-0.67,1.271-1.15,2.1-1.367
	c0.092,0.1,0.187,0.2,0.281,0.3c-0.865,0.294-1.624,0.839-2.177,1.566l-0.021,0.028c-0.153,0.221-0.098,0.524,0.123,0.678
	c0,0,0,0,0,0c0.08,0.077,0.19,0.113,0.3,0.1c0.195-0.043,0.37-0.148,0.5-0.3c0.534-0.62,1.253-1.051,2.051-1.231
	c0.066,0.076,0.132,0.152,0.2,0.227c-0.827,0.27-1.546,0.799-2.049,1.509l-0.007,0.01c-0.163,0.223-0.115,0.536,0.107,0.699
	c0,0,0.001,0.001,0.002,0.001c0.08,0.076,0.19,0.113,0.3,0.1c0.2,0,0.3-0.1,0.4-0.3c0.511-0.643,1.247-1.067,2.06-1.186
	c0.118,0.11,0.234,0.224,0.355,0.331c-0.793,0.292-1.489,0.797-2.012,1.46l-0.007,0.01c-0.163,0.223-0.115,0.536,0.107,0.699
	c0,0,0.001,0.001,0.002,0.001c0.08,0.076,0.19,0.113,0.3,0.1c0.2,0,0.4-0.1,0.4-0.3c0.56-0.639,1.325-1.063,2.164-1.2
	c0.281,0.206,0.566,0.406,0.861,0.593c0.4,0.2,0.908,0.5,1.512,0.806c2.016,1.008,4.737,2.419,5.04,4.233l0,0
	c0.1,0.4,0,0.6-0.1,0.706c-0.908,1.212-5.645,1.11-7.46,1.008c-3.528-0.1-5.141-0.5-6.25-1.411
	c-0.931-0.812-2.096-1.306-3.327-1.411c-1.008-0.1-2.117-0.1-3.125-0.1h-1.613c-0.445,0.001-0.876-0.153-1.219-0.435
	c-0.139-1.43-0.135-2.871,0.01-4.3c0-0.9,0.077-1.715,0.095-2.524C141.405,186.694,142.487,186.275,143.419,185.614z
	 M143.924,195.495c-1.218,0.061-2.438-0.04-3.629-0.3c-0.155-0.038-0.235-0.195-0.271-0.406c0.435,0.188,0.903,0.289,1.377,0.3
	h1.613c0.969,0,1.937,0,2.906,0.093c-0.633,0.261-1.319,0.369-2.001,0.314L143.924,195.495z M159.649,198.015
	c-6.754,0.3-8.871-0.3-9.476-0.706c-0.471-0.23-0.89-0.553-1.232-0.95c1.5,1.157,3.505,1.451,6.773,1.552h1.918
	c2.9,0,5.4-0.3,6.228-1.286c-0.012,0.097-0.038,0.193-0.078,0.282c-0.406,0.604-1.817,1.007-4.136,1.109L159.649,198.015z"/>
<path class="st2" d="M34.538,18.37c-0.257-0.391-0.294-0.886-0.1-1.311c0.083-0.251-0.053-0.521-0.304-0.604
	c-0.251-0.083-0.521,0.053-0.604,0.304c-0.305,0.681-0.268,1.467,0.1,2.117l0.1,0.2c0.2,0.4,0.3,0.4-0.1,0.806l-0.017,0.017
	c-0.186,0.195-0.178,0.503,0.017,0.689c0,0,0,0,0,0c0.08,0.076,0.19,0.113,0.3,0.1c0.2,0,0.3-0.1,0.4-0.1
	c0.617-0.487,0.749-1.37,0.3-2.016C34.645,18.471,34.538,18.471,34.538,18.37z"/>
<path class="st2" d="M31.217,15.045c0.26,0.121,0.569,0.009,0.69-0.251c0.11-0.235,0.029-0.516-0.19-0.656
	c-1.075-0.431-2.28-0.394-3.327,0.1c-0.213,0.167-0.294,0.452-0.2,0.706c0.096,0.187,0.29,0.303,0.5,0.3h0.007
	c0.055,0,0.1-0.045,0.1-0.1C29.549,14.755,30.435,14.719,31.217,15.045z"/>
<path class="st2" d="M35.653,14.842c0.097,0.123,0.243,0.196,0.4,0.2c0.076-0.01,0.146-0.046,0.2-0.1
	c0.683-0.253,1.434-0.253,2.117,0l0.021,0.012c0.251,0.139,0.567,0.048,0.705-0.203c0.139-0.251,0.048-0.567-0.203-0.705
	c-0.007-0.004-0.014-0.007-0.021-0.011c-0.972-0.423-2.082-0.387-3.024,0.1C35.606,14.281,35.519,14.592,35.653,14.842z"/>
<path class="st2" d="M35.148,22.909c-1.158,0.456-2.463,0.345-3.528-0.3l-0.019-0.014c-0.227-0.162-0.542-0.109-0.703,0.118
	c-0.162,0.227-0.109,0.542,0.118,0.703c0.784,0.491,1.697,0.736,2.621,0.706c0.619,0.025,1.236-0.077,1.814-0.3l0.024-0.008
	c0.249-0.09,0.377-0.364,0.287-0.613c-0.09-0.249-0.364-0.377-0.613-0.287l0,0L35.148,22.909z"/>
<path class="st2" d="M39.383,13.735c-0.001,0.019-0.001,0.038,0,0.057c0.016,0.261,0.239,0.461,0.5,0.447
	c0.247,0.023,0.468-0.154,0.5-0.4c0.1-1.111-1.209-5.645-3.73-6.351L36.64,7.474c-0.253-0.077-0.52,0.066-0.597,0.318
	c-0.077,0.253,0.066,0.52,0.319,0.597C38.174,8.896,39.383,12.828,39.383,13.735z"/>
<path class="st2" d="M36.257,17.163c-0.055,0.445,0.261,0.851,0.706,0.907c0.439-0.134,0.73-0.55,0.706-1.008
	c0.055-0.445-0.261-0.851-0.706-0.907C36.524,16.289,36.233,16.705,36.257,17.163z"/>
<path class="st2" d="M30.209,18.07c0.451-0.166,0.708-0.641,0.6-1.109c-0.087-0.471-0.536-0.785-1.008-0.706
	c-0.451,0.166-0.708,0.641-0.6,1.109C29.301,17.869,29.705,18.271,30.209,18.07z"/>
<path class="st2" d="M36.761,131.681c0.1,3.73,0.4,6.452,0.6,8.569c0.1,1.21,0.3,2.218,0.3,3.125c-0.001,0.019-0.001,0.038,0,0.057
	c0.016,0.261,0.239,0.461,0.5,0.447l0,0c0.3,0,0.5-0.2,0.6-0.706c-0.1-0.907-0.2-1.915-0.3-3.125c-0.2-2.117-0.5-4.738-0.6-8.468
	c-0.2-6.249-1.108-19.147-2.923-23.384c0.287-1.132,0.727-2.219,1.31-3.231l0.015-0.02c0.162-0.227,0.109-0.541-0.118-0.703
	c-0.227-0.162-0.541-0.109-0.703,0.118c-0.665,1.193-1.164,2.472-1.483,3.8c-0.043,0.071-0.066,0.152-0.065,0.235
	c-1.3,4.8-2.472,12.964-3.492,24.39l-0.1,0.908c-0.167,2.984-0.571,5.951-1.21,8.871v0.1c-0.033,0.271,0.137,0.526,0.4,0.6h0.1
	c0.2,0,0.4-0.1,0.4-0.3v-0.1c0.637-2.955,1.041-5.954,1.21-8.972l0.1-0.908c1.03-11.694,2.133-18.722,3.133-22.91
	C35.907,115.219,36.578,126.145,36.761,131.681z"/>
<path class="st2" d="M33.534,5.369c0.088,0.21,0.276,0.36,0.5,0.4c0.1,0,0.1-0.1,0.1,0c0.3-0.1,0.505-0.3,0.4-0.6
	c-0.253-1.115-0.768-2.153-1.503-3.029c-0.206-0.184-0.522-0.166-0.706,0.04c-0.17,0.19-0.17,0.477,0,0.666
	C32.909,3.588,33.322,4.449,33.534,5.369z"/>
<path class="st2" d="M16.396,201.642c-1.39-0.535-2.922-0.57-4.335-0.1c-0.247,0.092-0.373,0.367-0.281,0.615
	c0.087,0.234,0.341,0.362,0.581,0.292c1.214-0.419,2.54-0.384,3.73,0.1h0.2c0.2,0,0.4-0.1,0.4-0.3
	c0.007-0.018,0.013-0.036,0.018-0.055C16.775,201.955,16.635,201.708,16.396,201.642z"/>
<path class="st2" d="M16.496,199.629c-1.354-0.537-2.856-0.573-4.234-0.1c-0.3,0.2-0.4,0.4-0.3,0.706c0.2,0.3,0.4,0.4,0.706,0.3
	c1.119-0.369,2.332-0.333,3.427,0.1h0.2c0.2,0,0.3-0.1,0.5-0.3c0.006-0.014,0.012-0.027,0.017-0.041
	C16.908,200.023,16.767,199.726,16.496,199.629z"/>
<path class="st2" d="M16.698,198.017c-1.372-0.442-2.843-0.477-4.234-0.1l-0.025,0.008c-0.249,0.09-0.377,0.365-0.286,0.613
	s0.365,0.377,0.613,0.286l0,0c1.164-0.28,2.382-0.245,3.529,0.1h0.2c0.156-0.004,0.303-0.077,0.4-0.2
	c0.16-0.177,0.146-0.451-0.031-0.612c-0.049-0.044-0.106-0.076-0.169-0.094L16.698,198.017z"/>
<path class="st2" d="M16.899,196.094c-1.311-0.806-3.125-0.506-4.133-0.3c-0.3,0.1-0.5,0.3-0.4,0.6s0.3,0.505,0.6,0.4
	c1.082-0.386,2.27-0.351,3.327,0.1c0,0.1,0.1,0.1,0.2,0.1c0.205-0.051,0.406-0.117,0.6-0.2
	C17.201,196.544,17.12,196.253,16.899,196.094z"/>
<path class="st2" d="M40.19,200.833c-0.245,0.144-0.333,0.455-0.2,0.706c0.097,0.123,0.243,0.196,0.4,0.2
	c0.142-0.005,0.282,0.03,0.405,0.1c0.894-0.482,1.932-0.624,2.923-0.4c0.272,0.125,0.595,0.006,0.72-0.266s0.006-0.595-0.266-0.72
	c-0.018-0.008-0.035-0.015-0.054-0.021C42.807,200.046,41.396,200.19,40.19,200.833z"/>
<path class="st2" d="M39.786,199.019c-0.2,0.2-0.305,0.5-0.1,0.706c0.097,0.123,0.243,0.196,0.4,0.2c0.11,0.013,0.22-0.024,0.3-0.1
	c0.833-0.452,1.81-0.56,2.722-0.3c0.254,0.074,0.519-0.072,0.592-0.326c0.07-0.24-0.058-0.494-0.292-0.581
	C42.197,198.25,40.888,198.395,39.786,199.019z"/>
<path class="st2" d="M39.282,197.406l-0.01,0.007c-0.218,0.168-0.259,0.481-0.092,0.7c0.097,0.123,0.243,0.196,0.4,0.2
	c0.1,0,0.2,0,0.3-0.2c0.82-0.494,1.815-0.603,2.722-0.3l0.025,0.008c0.253,0.076,0.52-0.066,0.596-0.319
	c0.076-0.253-0.066-0.52-0.319-0.596C41.679,196.579,40.373,196.759,39.282,197.406z"/>
<path class="st2" d="M38.575,195.693l-0.016,0.016c-0.186,0.195-0.179,0.504,0.016,0.69c0,0,0,0,0,0
	c0.118,0.079,0.259,0.114,0.4,0.1c0.1,0,0.3,0,0.3-0.1c0.885-0.519,1.951-0.628,2.923-0.3c0.2,0.1,0.5-0.1,0.6-0.3
	c0.007-0.018,0.013-0.036,0.018-0.055c0.063-0.24-0.08-0.485-0.32-0.549c0,0-0.001,0-0.001,0
	C41.183,194.731,39.729,194.915,38.575,195.693z"/>
<path class="st2" d="M56.444,59.044c0.18-0.165,0.34-0.349,0.478-0.55c0.4-0.705,0.2-1.209-0.2-2.016
	c-0.498-0.921-0.871-1.904-1.109-2.924c-0.159-0.497-0.292-1.002-0.4-1.512c-1.31-5.242-2.823-10.484-4.133-12.1
	c-2.208-2.592-4.693-3.722-7.887-4.956c-0.9-1.96-0.331-5.074,0.326-8.45c0.36-1.8,0.629-3.617,0.806-5.444
	c0.368-4.583-0.394-9.187-2.218-13.407c-1.613-3.932-5.04-7.661-8.165-7.258h-0.006c-0.278,0.058-0.456,0.33-0.398,0.608
	s0.33,0.456,0.608,0.398c2.218-0.3,5.444,2.621,7.157,6.653c1.79,4.051,2.518,8.49,2.117,12.9c-0.1,1.611-0.5,3.426-0.806,5.24
	c-0.584,3.088-1.095,6.1-0.454,8.31c-0.277-0.107-0.6-0.261-0.858-0.347c-0.686-0.257-1.314-0.5-1.878-0.764
	c0.481-1.02,0.71-2.141,0.668-3.268c0-0.278-0.226-0.504-0.504-0.504c-0.278,0-0.504,0.226-0.504,0.504
	c0.014,0.953-0.186,1.896-0.586,2.761c-1.489-0.962-2.284-2.424-2.04-5.693c1.153-0.855,2.059-1.998,2.628-3.316
	c0.823-1.917,1.3-3.965,1.411-6.048c0-0.278-0.226-0.504-0.504-0.504c-0.278,0-0.504,0.226-0.504,0.504
	c-0.103,1.977-0.546,3.92-1.311,5.746c-0.809,2.053-2.656,3.514-4.839,3.831c-1.916,0.1-5.847-0.908-6.956-4.234l-0.006-0.017
	c0-0.009-0.011-0.015-0.014-0.024c0.145-2.889,0.624-5.751,1.429-8.529l0.1-0.4c0.5-1.714,2.016-6.754,4.738-6.25
	c0.28,0.048,0.546-0.14,0.594-0.42c0.046-0.27-0.127-0.528-0.394-0.588c-3.629-0.705-5.343,5.041-5.947,6.956l-0.1,0.3
	c-0.907,2.924-3.629,15.726,1.412,20.766c0.118,0.079,0.259,0.115,0.4,0.1h0.4l0.016-0.016c0.186-0.195,0.179-0.504-0.016-0.69
	c0,0,0,0,0,0c-2.011-2.012-2.675-5.607-2.691-9.257c1.592,2.051,4.029,3.269,6.625,3.31c0.172,0.007,0.344-0.028,0.5-0.1
	c0.685-0.035,1.357-0.205,1.977-0.5c-0.21,1.687,0.2,3.394,1.156,4.8c0,0.012-0.007,0.022-0.007,0.034
	c0.1,1.21-1.209,2.722-3.125,3.427c-2.984,1.095-7.539,0.413-11.34-4.838c0.25-0.303,0.469-0.631,0.654-0.978
	c0.478,1.53,1.523,2.818,2.922,3.6h0.2c0.185-0.004,0.363-0.075,0.5-0.2c0.16-0.177,0.146-0.451-0.031-0.612
	c-0.049-0.044-0.106-0.076-0.169-0.094c-3.429-1.513-4.435-10.283-3.226-15.222c0.063-0.277-0.111-0.552-0.388-0.615
	S22,17.26,21.937,17.537c-0.002,0.009-0.004,0.018-0.005,0.026c-0.75,3.778-0.628,7.676,0.355,11.4
	c-0.021,0.031-0.039,0.065-0.052,0.1c-0.806,2.621-3.831,3.831-6.653,4.939c-0.413,0.158-0.82,0.317-1.221,0.478
	c1.536-2.581,2.083-5.783,2.834-9.955l0.1-0.706c0.2-1.411,0.4-2.823,0.6-4.234c0.348-4.127,1.334-8.176,2.924-12
	c2.419-5.544,6.956-7.359,9.98-6.351c0.254,0.073,0.519-0.073,0.592-0.326c0.07-0.24-0.058-0.493-0.292-0.581
	c-3.427-1.21-8.569,0.907-11.19,6.956c-1.646,3.881-2.667,7.999-3.024,12.2c-0.2,1.411-0.3,2.823-0.6,4.234l-0.1,0.706
	c-0.893,4.764-1.5,8.256-3.631,10.864c-0.901,0.435-1.719,1.023-2.418,1.738c-2.117,2.319-3.125,5.746-3.427,12.1
	c-0.1,2.016-0.5,6.149-1.008,9.274c-0.094,0.679-0.227,1.352-0.4,2.016c-0.4,1.311-0.5,2.117,0.806,2.823
	c0.128,0.062,0.258,0.117,0.388,0.175c-0.566,9.382,0.555,13.545,4.149,14.243c0.858,0.205,1.738,0.306,2.621,0.3
	c0.843-0.004,1.685-0.071,2.519-0.2v1c-0.1,1.577-0.191,3.247,1.686,4.263c-0.219,1.008-0.546,2.051-0.88,3.3
	c-1.746,5.242-2.73,10.707-2.924,16.229c-0.073,8.159,0.432,16.313,1.512,24.4c0.6,5.948,1.211,10.988,1.008,15.626
	c-0.19,2.223-0.735,4.401-1.613,6.452c-0.851,2.296-1.524,4.654-2.013,7.054c-0.752,4.532-1.157,9.116-1.21,13.71
	c0,0.907-0.1,1.815-0.1,2.722c-0.1,2.319-0.4,4.536-0.6,6.25c-0.32,1.558-0.42,3.152-0.3,4.738c0.021,0.051,0.049,0.1,0.082,0.144
	c0.005,0.019,0.011,0.038,0.018,0.057c0.23,0.355,0.538,0.653,0.9,0.872c-0.1,4-0.3,7.145-0.6,9.51
	c-0.006,0.075,0.004,0.151,0.028,0.222c-0.165,0.141-0.31,0.303-0.431,0.484c-0.22,0.687-0.354,1.398-0.4,2.117l-0.1,0.6
	c-0.108,1.057-0.309,2.103-0.6,3.125c-0.2,0.806-0.4,1.613-0.706,2.52c-0.2,0.907-0.5,1.815-0.706,2.621
	c-0.045,0.132-0.078,0.267-0.1,0.405c-0.609,0.952-0.609,2.172,0,3.124c1.108,1.51,4.839,1.714,6.653,1.714c0.1,0,0.1,0,0.4,0.1
	c1.741,0.045,3.477-0.193,5.141-0.705c0.841-0.227,1.562-0.768,2.016-1.512c0.285-0.943,0.177-1.961-0.3-2.823
	c-0.069-0.112-0.163-0.206-0.275-0.274c-0.062-0.289-0.149-0.576-0.224-0.836c-0.111-0.183-0.179-0.388-0.2-0.6
	c-0.254-1.366-0.421-2.746-0.5-4.133c0-0.3-0.1-0.706-0.1-1.008c-0.082-0.26-0.116-0.533-0.1-0.806c-0.1-1.41-0.2-2.921-0.8-3.627
	c0.026-3.218,0.222-6.433,0.588-9.63c0.561-0.226,0.953-0.536,1.024-0.956c0-0.2,0.2-0.908,0.3-1.915
	c0.6-3.932,2.017-13.307,3.024-16.633c0.5-1.714,1.008-3.427,1.512-5.04c1.475-4.351,2.654-8.797,3.529-13.307v-0.006
	c0.055-0.279-0.126-0.549-0.404-0.604c-0.279-0.055-0.549,0.126-0.604,0.404l0,0c-0.89,4.44-2.069,8.818-3.529,13.105
	c-0.5,1.613-1.008,3.327-1.512,5.041c-1.008,3.427-2.319,12.5-3.024,16.835c-0.1,0.908-0.3,1.613-0.3,1.915
	c0,0.2-1.512,0.807-4.839,0.706c-1.302-0.086-2.556-0.525-3.628-1.269c0.001-0.012,0.001-0.024,0-0.036
	c-0.015-1.484,0.085-2.967,0.3-4.435c0.2-1.815,0.5-4.033,0.6-6.351c0-0.908,0.1-1.815,0.1-2.722
	c0.103-4.525,0.507-9.037,1.21-13.508c0.455-2.376,1.13-4.705,2.016-6.956c0.879-2.156,1.423-4.434,1.613-6.754
	c0.2-4.736-0.4-9.879-1.109-15.826c-1.078-8.052-1.583-16.171-1.512-24.295c0.222-5.445,1.171-10.835,2.823-16.028
	c0.367-1.284,0.65-2.48,0.925-3.6c0.85,0.156,1.686,0.38,2.5,0.669c4.201,1.36,8.585,2.073,13,2.116
	c5.416-0.051,10.788-0.98,15.906-2.751c0.005,0.011,0.005,0.023,0.011,0.035c5.646,11.793,4.134,25.3,3.327,32.56v0.4
	c-0.3,2.42-0.5,4.738-0.806,6.956c-0.907,7.359-1.611,13.71-1.814,19.859c-0.081,0.939-0.114,1.881-0.1,2.823
	c-0.1,4.033-0.2,6.553-0.806,12.6c-0.574,4.722-1.449,9.402-2.621,14.012l-0.6,2.52c-0.6,2.722-1.008,4.738-1.311,6.15
	c-0.5,2.117-0.706,3.425-1.008,3.629c-0.705,0.5-3.427,0.6-6.653-0.2l-0.2-0.1c-0.625-0.077-1.219-0.314-1.725-0.689
	c-0.022-0.044-0.052-0.083-0.088-0.117c0.08-2.026,0.28-4.046,0.6-6.048c0.2-1.512,0.4-2.924,0.5-4.032
	c0.3-3.025,0.6-5.846,0.706-8.468c0.1-2.319,0.5-4.637,0.807-7.158c0.649-3.626,0.953-7.306,0.907-10.989
	c0-0.278-0.226-0.504-0.504-0.504c-0.278,0-0.504,0.226-0.504,0.504c-0.01,3.647-0.314,7.288-0.908,10.887
	c-0.3,2.419-0.7,4.939-0.806,7.258c-0.2,2.622-0.4,5.343-0.706,8.367c-0.1,1.109-0.3,2.621-0.5,4.032
	c-0.808,5.847-0.808,6.754-0.2,7.056h0.002c0.104,0.099,0.218,0.187,0.34,0.263c-0.272,1.818-0.463,3.781-0.654,5.483
	c-0.167,1.341-0.265,2.609-0.41,3.637c-0.034,0.027-0.065,0.059-0.092,0.094c-0.374,0.93-0.577,1.921-0.6,2.923
	c-0.1,0.5-0.1,0.908-0.2,1.311c-0.2,1.31-0.3,2.117-0.4,3.428c-0.013,0.2-0.009,0.401,0.01,0.6c-0.725,2.038-0.147,2.8,0.7,3.737
	c0.224,0.214,0.425,0.45,0.6,0.706c0.275,0.324,0.479,0.702,0.6,1.109c0.3,0.722,0.746,1.374,1.31,1.915
	c0.907,1.008,2.52,1.311,4.234,1.311c1.008,0,2.218-0.1,3.226-0.2c0.802-0.108,1.61-0.175,2.419-0.2
	c1.411-0.1,2.318-0.2,2.923-0.706c0.546-0.404,0.88-1.034,0.908-1.713c0.101-0.556-0.087-1.126-0.5-1.512l-0.016-0.016
	c-0.019-0.014-0.038-0.026-0.059-0.037c-0.385-1.361-1.124-2.595-2.142-3.576c-0.5-0.706-1.008-1.311-1.311-1.814
	c-0.621-1.322-1.095-2.708-1.411-4.134c-0.465-1.953-0.934-3.551-1.715-4.343c0.112-2.318,0.476-4.618,1.087-6.857
	c0.403-0.093,0.786-0.257,1.13-0.486c0.5-0.5,0.706-1.411,1.311-4.234c0.3-1.512,0.706-3.528,1.311-6.149l0.6-2.52
	c1.164-4.646,2.04-9.36,2.621-14.114c0.6-6.048,0.7-8.568,0.806-12.7c0-0.908,0.1-1.815,0.1-2.823
	c0.2-6.149,0.907-12.4,1.815-19.759c0.3-2.218,0.5-4.536,0.806-6.956v-0.4c0.806-7.357,2.418-21.063-3.424-33.058
	c0.714-2.005,0.408-4.2-0.27-7.008c0.457-0.087,0.916-0.169,1.372-0.265c3.528-0.908,5.545-2.319,6.15-4.436
	s-0.4-6.251-1.613-11.593C56.496,59.154,56.472,59.098,56.444,59.044z M20.971,207.521c0.091,0.321,0.078,0.663-0.039,0.976
	c-0.366,0.44-0.859,0.757-1.411,0.907c-1.569,0.465-3.204,0.667-4.839,0.6c-2.52,0-5.343-0.4-6.048-1.31
	c-0.077-0.109-0.142-0.227-0.193-0.35c0.092,0.09,0.19,0.173,0.295,0.248c0.562,0.617,1.391,0.918,2.218,0.806
	c0.515-0.132,0.996-0.373,1.411-0.706c0.44-0.475,1.067-0.733,1.714-0.706c0.331,0.109,0.639,0.278,0.907,0.5
	c0.658,0.539,1.47,0.857,2.319,0.907h0.106C18.794,209.251,20.07,208.58,20.971,207.521z M20.126,205.068
	c0.2,0.5,0.407,1.109,0.2,1.411c-0.726,0.984-1.815,1.637-3.024,1.815c-0.68,0.047-1.345-0.212-1.815-0.706
	c-0.389-0.371-0.881-0.616-1.411-0.705H13.87c-0.791,0.13-1.568,0.333-2.321,0.606c-0.3,0.2-0.6,0.5-0.907,0.5
	c-0.834-0.091-1.574-0.574-1.994-1.3c0.027-0.069,0.053-0.136,0.083-0.211c0.086-0.207,0.002-0.445-0.194-0.552
	c0.021-0.121,0.051-0.24,0.09-0.356c0.2-0.806,0.4-1.613,0.706-2.52c0.2-0.907,0.5-1.815,0.706-2.621c0.3-1.613,0.5-2.218,0.6-3.226
	l0.1-0.706c0.1-0.6,0.2-1.412,0.3-1.714c0.039-0.041,0.075-0.085,0.108-0.131c0.032,0.013,0.066,0.023,0.1,0.03
	c0.019,0.001,0.038,0.001,0.057,0c0.261-0.016,0.461-0.239,0.447-0.5v-0.012c0.071-0.058,0.138-0.121,0.2-0.189
	c1.311-1.31,2.42-1.815,3.529-1.31c0.46,0.218,0.871,0.527,1.21,0.907l0.6,0.6c0.259,0.259,0.567,0.463,0.907,0.6
	c0.08,0.034,0.156,0.079,0.225,0.132c0.032,0.148,0.134,0.272,0.273,0.332c0.315,0.957,0.487,1.956,0.51,2.963
	c0.077,0.261,0.111,0.534,0.1,0.806c0,0.3,0.1,0.6,0.1,1.008c0.079,1.454,0.245,2.901,0.5,4.335
	C19.943,204.602,20.018,204.843,20.126,205.068L20.126,205.068z M15.994,185.714c0.989,0.008,1.977-0.076,2.95-0.251
	c-0.343,2.838-0.518,5.693-0.524,8.552c-0.114-0.063-0.218-0.143-0.309-0.236l-0.5-0.5c-0.4-0.494-0.921-0.876-1.512-1.109
	c-1.382-0.553-2.848-0.167-4.245,1.211c0.235-2.22,0.4-4.948,0.493-8.29c0.902,0.382,1.866,0.594,2.845,0.627h0.805L15.994,185.714z
	 M34.341,205.07c-0.377-0.291-0.636-0.708-0.731-1.175c0.248,0.38,0.526,0.739,0.831,1.074c0.401,0.411,0.704,0.908,0.885,1.453
	c-0.091-0.15-0.182-0.3-0.28-0.445C34.862,205.638,34.625,205.332,34.341,205.07L34.341,205.07z M48.454,208.999
	c-0.3,0.3-1.21,0.3-2.319,0.4c-0.809,0.025-1.617,0.091-2.419,0.2c-2.923,0.3-5.645,0.5-6.855-0.806
	c-0.078-0.079-0.15-0.163-0.223-0.246c0.798,0.47,1.717,0.695,2.642,0.649c0.537-0.051,1.078-0.051,1.615,0
	c0.712-0.224,1.367-0.602,1.915-1.109c0.346-0.395,0.803-0.676,1.311-0.806c0.521-0.181,1.099-0.066,1.512,0.3
	c0.218,0.19,0.455,0.357,0.706,0.5c0.655,0.348,1.431,0.385,2.116,0.1c0.193-0.1,0.363-0.237,0.5-0.405
	c0.009,0.066,0.011,0.133,0.007,0.2C48.946,208.374,48.761,208.746,48.454,208.999z M43.613,197.004
	c0.32,1.503,0.828,2.959,1.512,4.335c0.394,0.691,0.868,1.334,1.411,1.915c1.008,1.21,2.119,2.521,1.915,3.428
	c0,0.2-0.1,0.2-0.2,0.3c-0.389,0.154-0.821,0.154-1.21,0c-0.2-0.1-0.4-0.3-0.6-0.4c-0.631-0.562-1.511-0.752-2.318-0.5
	c-0.692,0.149-1.323,0.499-1.815,1.008c-0.446,0.365-0.96,0.639-1.512,0.806c-1.512,0.3-3.024,0.2-3.528-0.3
	c-0.453-0.459-0.799-1.012-1.014-1.62c-0.195-0.673-0.539-1.293-1.008-1.814c-0.648-0.611-1.075-1.42-1.212-2.3l0.007-0.02
	c0.029-0.096,0.027-0.199-0.006-0.293c0-0.038,0-0.073,0-0.111c0.1-1.311,0.2-2.016,0.4-3.327c0.123-0.426,0.191-0.867,0.2-1.311
	c0.011-0.576,0.078-1.151,0.2-1.714c1.271-0.058,2.482-0.557,3.425-1.411c0.2-0.2,0.5-0.3,0.706-0.5
	c0.929-0.534,2.062-0.571,3.024-0.1C42.706,193.576,43.109,195.29,43.613,197.004z M41.744,191.981
	c-1.163-0.328-2.407-0.19-3.47,0.384c-0.3,0.2-0.5,0.4-0.806,0.6c-0.641,0.569-1.426,0.95-2.27,1.1
	c0.168-1.074,0.268-2.455,0.453-3.924c0.181-1.625,0.365-3.483,0.618-5.159c0.278,0.088,0.553,0.159,0.792,0.219l0.2,0.1
	c1.483,0.378,3.006,0.579,4.536,0.6c0.311,0,0.611-0.012,0.9-0.037C42.197,187.87,41.878,189.918,41.744,191.981z M6.215,60.612
	c0.173-0.664,0.306-1.337,0.4-2.017c0.517-3.103,0.854-6.233,1.008-9.375c0.3-6.15,1.21-9.375,3.226-11.492
	c0.608-0.619,1.315-1.131,2.093-1.514c0.11-0.007,0.213-0.06,0.283-0.145c0.821-0.414,1.73-0.79,2.664-1.163
	c1.98-0.649,3.836-1.628,5.49-2.894c3.068,4.173,6.586,5.616,9.531,5.616c0.954-0.02,1.901-0.154,2.823-0.4
	c2.019-0.757,3.473-2.146,3.783-3.639c1.043,0.695,2.179,1.24,3.373,1.621c0.3,0.1,0.706,0.3,1.008,0.4l0.4,0.2
	c3.427,1.311,5.847,2.319,7.964,4.839c1.311,1.613,3.125,8.266,4.033,11.794c0.108,0.511,0.241,1.016,0.4,1.513
	c0.248,1.081,0.62,2.129,1.109,3.125c0.305,0.706,0.305,0.8,0.2,1.008c-0.592,0.988-3.221,1.972-7.12,2.2
	c0.016-0.465,0.032-0.931,0.061-1.4c0.082-0.837,0.115-1.679,0.1-2.52c0.024-1.076-0.009-2.153-0.1-3.226
	c-0.179-2.121-0.078-4.256,0.3-6.351c0.063-0.277-0.111-0.552-0.388-0.615c-0.277-0.063-0.552,0.111-0.615,0.388
	c-0.002,0.009-0.004,0.018-0.005,0.026c-0.379,2.196-0.48,4.432-0.3,6.653c0,0.907,0.1,1.814,0.1,3.125c0,0.807-0.1,1.613-0.1,2.52
	c-0.163,2.62-0.129,5.248,0.1,7.863v0.064c-0.185,0.119-0.374,0.23-0.563,0.342l-0.344-2.322c-0.027-0.128-0.102-0.24-0.21-0.314
	c0.307-1.042,0.426-1.827,0.11-2.3c-0.048-0.064-0.104-0.121-0.166-0.172c-0.029-0.347-0.077-0.7-0.135-1.046
	c0-0.015-0.013-0.025-0.017-0.04c0-0.053,0.012-0.1,0.015-0.158c0.09-0.9,0.017-2.531-0.652-3.151l-0.13-0.9
	c0.288-0.09,0.517-0.223,0.583-0.481c-0.014-0.543-0.081-1.083-0.2-1.613c-0.1-0.605-0.2-1.31-0.3-2.117
	c-0.4-3.426-0.6-3.528-0.806-3.629c-0.207-0.079-0.428-0.115-0.65-0.107c-0.17-1.188-0.267-2.29-0.36-3.216
	c-0.2-2.016-0.4-3.326-1.109-4.032c-0.6-0.607-2.016-0.506-4.536-0.2c-2.419,0.2-5.444,0.6-7.46,0.908L28.3,42.62
	c-0.01-0.084-0.016-0.168-0.017-0.253c-0.024-0.24,0.01-0.482,0.1-0.706c0.1-0.2,0.2-0.5,0-0.706c-0.3-0.5-3.022,0-3.226,0.2
	c-0.525,0.498-0.733,1.246-0.54,1.944l-0.807,0.1c-0.121-0.538-0.173-1.09-0.156-1.641c0.05-0.3,0.05-0.607,0-0.907
	c-0.1-0.3-0.706-2.317-1.311-2.52c-0.806-0.3-2.016,2.218-2.016,2.218c-0.438,1.048-0.582,2.195-0.416,3.319l-0.894,0.108
	c-1.859,0.2-4.187,0.493-4.692,2.906c-0.263,0.5-0.351,1.075-0.248,1.631l2.377,14.556c-3.268,1.035-6.802,0.842-9.937-0.544
	C5.912,62.024,5.912,62.024,6.215,60.612z M32.63,64.44c-0.093,0.099-0.193,0.192-0.3,0.277c-0.433-0.193-0.906-0.379-1.313,0.029
	c-0.204,0.229-0.301,0.533-0.267,0.837c-1.961,0.68-4.01,1.076-6.084,1.175c-2.319,0.2-4.234,0.2-5.948,0.2h-0.489l-3.043-18.649
	c-0.022-0.339,0.012-0.68,0.1-1.008c0.258-0.203,0.579-0.309,0.907-0.3l23.489-2.823c0.3-0.118,0.64-0.08,0.907,0.1
	c0.252,0.392,0.39,0.845,0.4,1.311l1.824,12.487c-0.092-0.052-0.195-0.081-0.3-0.086c-0.585-0.076-1.174,0.107-1.613,0.5
	c-0.808,0.619-1.735,1.065-2.722,1.311c-0.726,0.213-1.433,0.483-2.117,0.806c-1.009,0.693-1.867,1.585-2.52,2.621L32.63,64.44z
	 M16.285,66.991c-0.033-0.682-0.029-1.365,0.012-2.046v-0.806c0-0.071-0.017-0.142-0.047-0.206c0.12-0.036,0.24-0.07,0.359-0.109
	l0.514,3.152c-0.286,0-0.569,0.007-0.838,0.016L16.285,66.991z M22.847,43.314l-1.813,0.219c-0.101-0.938,0.002-1.886,0.3-2.781
	c0.266-0.493,0.569-0.964,0.907-1.411c0.224,0.448,0.392,0.922,0.5,1.411v0.706c-0.094,0.62-0.058,1.252,0.107,1.857L22.847,43.314z
	 M25.671,43.476c-0.1-0.5-0.3-1.409,0-1.613c0.56-0.142,1.136-0.209,1.714-0.2c-0.081,0.189-0.115,0.395-0.1,0.6
	c-0.076,0.438-0.042,0.888,0.1,1.31v0.2l-1.614,0.194C25.728,43.805,25.695,43.641,25.671,43.476z M28.393,43.638l2.925-0.365
	c2.016-0.3,5.041-0.7,7.46-0.907c1.411-0.1,3.428-0.3,3.73,0c0.5,0.4,0.6,1.713,0.806,3.427c0.182,0.906,0.283,1.906,0.449,3.121
	l-0.114,0.027c-0.12-0.834-0.239-1.618-0.335-2.242c-0.1-0.5-0.1-1.008-0.2-1.411c-0.2-1.714-0.4-2.924-1.613-2.924
	c-0.907,0-4.133,0.3-7.762,0.706l-1.109,0.1c-1.377,0.153-2.809,0.317-4.233,0.484C28.392,43.651,28.393,43.645,28.393,43.638
	L28.393,43.638z M46.309,66.263l0.027,0.19c-0.012-0.044-0.03-0.087-0.053-0.126C46.292,66.307,46.3,66.285,46.309,66.263
	L46.309,66.263z M45.43,55.976c-0.265,0.044-0.528,0.1-0.789,0.165l-0.218-1.676c-0.1-0.6-0.3-1.613-0.4-2.722
	c-0.064-0.542-0.138-1.115-0.215-1.685c0.268-0.07,0.543-0.113,0.82-0.13c0.1,0.5,0.4,1.815,0.5,2.823
	c0.1,0.806,0.2,1.613,0.3,2.218c0.097,0.329,0.163,0.667,0.2,1.008L45.43,55.976z M43.011,51.945c0.2,1.109,0.3,2.117,0.4,2.722
	l0.518,3.976l-1.93-13.25c-0.033-0.696-0.28-1.364-0.706-1.915c-0.039-0.033-0.081-0.062-0.123-0.092
	c0.125-0.005,0.238-0.009,0.323-0.009c0.3,0,0.4,0.4,0.6,2.016c0.1,0.5,0.1,1.008,0.2,1.512c0.214,1.308,0.515,3.324,0.718,5.037
	L43.011,51.945z M20.611,44.619c-0.91,0.119-1.739,0.23-2.462,0.332c0.331-0.059,0.686-0.111,1.066-0.163L20.611,44.619z
	 M43.094,60.006l0.108,0.741c-0.053,0.129-0.118,0.253-0.193,0.371c-0.215,0.263-0.492,0.469-0.806,0.6
	c-0.425,0.234-0.886,0.395-1.364,0.475c0.978-0.455,1.773-1.227,2.256-2.192L43.094,60.006z M44.883,57.996l-0.132-1.015
	c0.066-0.014,0.131-0.028,0.2-0.039l0.135,0.937C45.014,57.91,44.946,57.95,44.883,57.996z M45.325,63.137l0.009-0.02l-0.005,0.014
	L45.325,63.137z M45.555,68.15l-0.026-0.182c-0.013-0.056-0.036-0.11-0.067-0.158c0.015-0.023,0.032-0.046,0.047-0.069l0.067,0.4
	L45.555,68.15z M10.855,76.541c-2.073-0.4-4.048-2.245-3.371-12.738c1.47,0.52,3.022,0.771,4.581,0.739
	c1.085,0.004,2.168-0.116,3.226-0.357v0.66c-0.09,0.73-0.1,1.468-0.03,2.2c-1.176,0.05-2.33,0.329-3.4,0.82
	c-0.202,0.174-0.28,0.452-0.2,0.706c0,0.2,0.2,0.3,0.4,0.3h0.1c2.621-1.311,6.451-0.5,12.5-1.008c4.637-0.4,7.46-1.311,8.67-2.722
	c0.365-0.378,0.702-0.782,1.008-1.209c0.608-0.889,1.357-1.672,2.217-2.319c0.65-0.321,1.324-0.59,2.016-0.806
	c1.1-0.295,2.128-0.809,3.024-1.512c0.2-0.187,0.442-0.324,0.706-0.4c0.2,0.4-0.2,1.11-1.008,1.815c-0.4,0.3-0.806,0.5-1.109,0.706
	c-0.43,0.175-0.81,0.451-1.109,0.806l-0.007,0.01c-0.025,0.039-0.044,0.081-0.057,0.126c-0.3,0-0.588-0.01-0.846-0.032l0,0
	c-0.278,0-0.504,0.226-0.504,0.504s0.226,0.504,0.504,0.504c1.581,0.178,3.181-0.066,4.637-0.706
	c0.485-0.226,0.903-0.574,1.212-1.01c0.2-0.3,0.3-0.706,0.5-1.008c0.245-0.62,0.585-1.199,1.008-1.714
	c-0.018,0.377-0.085,0.75-0.2,1.109c-0.1,0.4-0.2,0.705-0.3,1.109c-0.08,0.154-0.115,0.327-0.1,0.5
	c0.005,0.515-0.172,1.014-0.5,1.411c-0.219,0.286-0.493,0.526-0.806,0.706c-0.417,0.24-0.791,0.546-1.109,0.907l-0.018,0.018
	c-0.185,0.195-0.177,0.503,0.018,0.688c0.08,0.077,0.19,0.113,0.3,0.1c0.157-0.003,0.303-0.077,0.4-0.2
	c0.277-0.296,0.58-0.566,0.907-0.806c0.331-0.2,0.624-0.458,0.865-0.761c-0.347,0.518-0.736,1.007-1.162,1.463
	c-0.338,0.339-0.642,0.711-0.908,1.109c-0.2,0.2-0.1,0.5,0.1,0.706c0.08,0.076,0.19,0.113,0.3,0.1c0.2,0,0.3-0.1,0.5-0.3
	c0.237-0.36,0.507-0.697,0.806-1.008c0.062-0.067,0.12-0.137,0.18-0.205c-0.408,0.761-0.947,1.444-1.592,2.017l-0.017,0.017
	c-0.186,0.195-0.178,0.503,0.017,0.689c0,0,0,0,0,0c0.111,0.105,0.25,0.174,0.4,0.2c0.077,0.003,0.152-0.017,0.218-0.057
	c-0.074,0.086-0.14,0.179-0.217,0.262c-0.806,1.008-3.427,1.51-4.536,1.713l-1.814,0.3c-1.428,0.219-2.842,0.522-4.234,0.908
	c-1.311,0.3-2.52,0.705-3.831,1.109c-1.21,0.4-2.42,0.807-3.831,1.21c-0.907,0.3-1.915,0.6-2.823,0.907
	c-4.022,1.321-7.853,2.531-11.682,1.725L10.855,76.541z M28.296,74.119h-0.542l0.388-0.123c0.043,0.05,0.094,0.092,0.152,0.124
	L28.296,74.119z M23.554,75.53c0.3,0.5,1.109,0.7,2.42,0.907c0.08,0.077,0.19,0.113,0.3,0.1c0.117,0.026,0.235,0.047,0.353,0.07
	c-0.154,0.091-0.285,0.216-0.384,0.365l-5.209,0.675c-0.408,0.022-0.808-0.122-1.109-0.4c-0.056-0.159-0.1-0.324-0.14-0.487
	c0.977-0.332,1.935-0.71,2.861-1.124c0.274-0.061,0.559-0.133,0.846-0.21C23.51,75.462,23.53,75.497,23.554,75.53z M50.019,81.93
	c-14.732,4.972-23.863,2.265-28.785,0.759c-1.199-0.523-2.492-0.798-3.8-0.808c-0.73-0.679-0.717-1.612-0.633-3.022v-1.283
	c0.678-0.137,1.35-0.312,2.016-0.511c0.073,0.239,0.175,0.468,0.305,0.681c0.524,0.547,1.259,0.84,2.016,0.806l0,0l5.35-0.576
	c0.483,0.508,1.65,0.7,3.518,0.886h0.806c1.008,0,1.714-0.2,3.122-0.3l0.5-0.1c0.894-0.153,1.771-0.389,2.621-0.705
	c1.387-0.431,2.802-0.768,4.234-1.008l1.008-0.1c2.445-0.205,4.875-0.522,7.292-0.951c0.586,2.44,0.965,4.456,0.431,6.232H50.019z
	 M57.119,70.49c-0.5,1.714-2.218,2.924-5.444,3.73c-0.517,0.108-1.037,0.2-1.557,0.3c-0.083-0.028-0.173-0.028-0.256,0
	c-0.062,0.022-0.122,0.049-0.179,0.083c-2.511,0.459-5.039,0.801-7.584,1.026l-1.008,0.1c-1.506,0.252-2.99,0.624-4.437,1.113
	c-0.82,0.302-1.662,0.538-2.52,0.706l-0.5,0.1c-1.117,0.295-2.276,0.397-3.427,0.3c-0.956,0.017-1.909-0.118-2.823-0.4
	c0.479-0.214,0.99-0.349,1.512-0.4c0.465-0.087,0.938-0.12,1.411-0.1c0.612,0.059,1.23-0.009,1.815-0.2
	c0.083-0.055,0.157-0.123,0.219-0.2c0.062,0,0.124,0,0.186,0c0.019,0.001,0.038,0.001,0.057,0c0.261-0.016,0.46-0.239,0.446-0.5
	c-0.019-0.268-0.232-0.481-0.5-0.5c-0.6,0-1.109,0.1-1.714,0.1c-1.414,0.134-2.839,0.067-4.234-0.2c-0.1-0.1-0.2-0.1-0.4-0.1
	c-0.483-0.064-0.956-0.19-1.408-0.374c0.139-0.044,0.274-0.089,0.411-0.133c0.092,0.126,0.238,0.202,0.394,0.205h2.922
	c0.24-0.01,0.479,0.024,0.707,0.1c1.411-0.1,2.117-0.4,2.117-1.008c0-0.515-0.489-0.707-1.224-0.812
	c0.981-0.268,2.009-0.583,3.038-0.9c1.356-0.394,2.737-0.697,4.133-0.907c0.6-0.1,1.21-0.2,1.915-0.3
	c1.736-0.231,3.401-0.835,4.881-1.77c0.095,0.098,0.225,0.154,0.361,0.155h0.2c1.46-0.488,2.85-1.165,4.133-2.016
	c1.512-0.908,2.823-1.816,4.032-1.714c0.268-0.019,0.481-0.232,0.5-0.5c0.001-0.019,0.001-0.039,0-0.058
	c-0.016-0.261-0.239-0.461-0.5-0.447c-1.353,0.042-2.663,0.488-3.762,1.279c-0.133-1.637-0.186-3.277-0.159-4.92
	c2.33-0.02,4.624-0.573,6.708-1.615c1.173,4.891,2.034,8.998,1.539,10.777L57.119,70.49z"/>
<path class="st2" d="M119.524,80.472c0.771,0.422,1.641,0.629,2.52,0.6c0.725,0.014,1.445-0.123,2.115-0.4
	c0.201-0.175,0.28-0.452,0.2-0.706c-0.167-0.213-0.452-0.294-0.706-0.2c-1.192,0.387-2.486,0.316-3.629-0.2h-0.008
	c-0.252-0.138-0.567-0.046-0.706,0.206s-0.046,0.567,0.206,0.706l0,0L119.524,80.472z"/>
<path class="st15" d="M765.171,155.747l-0.388-130.843c-0.002-0.152-0.074-0.295-0.194-0.388c-0.113-0.078-0.251-0.114-0.388-0.1
	c-0.194,0-13.773,3.1-25.121-0.194c0.418-0.442,0.533-1.091,0.291-1.649c-0.485-0.679-1.746-0.485-4.268,0.485
	c-1.119,0.434-3.307,1.337-6.12,2.52l-0.088-20.464c-0.002-0.152-0.074-0.295-0.194-0.388c-0.113-0.078-0.251-0.114-0.388-0.1
	c-0.1,0-13.831,3.1-25.179-0.229c0.361-0.518,0.69-1.234,0.35-1.711c-0.485-0.679-1.649-0.485-4.268,0.485
	c-6.013,2.328-42.579,18.138-42.967,18.332c-0.194,0.1-0.776,0.291-0.776,0.485l0.06,9.6c-5.1,2.165-22.953,9.31-23.144,9.407
	c-0.182,0.093-0.295,0.281-0.291,0.485l0.775,126.672c-0.679,4.85,10.669,6.79,11.155,6.887c1.603,0.262,3.225,0.392,4.85,0.388
	c1.764,0.056,3.528-0.14,5.237-0.582c0.1,0,0.1,0,0.194-0.1l2.586-2.73l0.032,5.155c-0.776,5.528,13.287,7.759,13.869,7.857
	c2.019,0.335,4.064,0.497,6.111,0.484c3.879,0,6.4-0.582,6.5-0.873c0.1,0,0.1,0,0.194-0.1l7.973-7.7l-0.019,9.443
	c0,0.582,0.679,2.716,10.766,5.238c4.461,1.198,9.057,1.817,13.676,1.843c2.231,0,3.589-0.194,3.783-0.194c0.1,0,0.1-0.1,0.194-0.1
	l42-29.68c1.122-0.916,2.018-2.077,2.619-3.395C765.071,158.631,765.267,157.187,765.171,155.747z"/>
<path class="st1" d="M653.439,42.072c-0.194,0-0.291,0.194-0.291,0.388v0.008c-0.033-0.005-0.066-0.008-0.1-0.008
	c-0.164,0-11.86,0.9-19.018-0.431l21.459-9.088l0.039,7.811L653.439,42.072z"/>
<path class="st1" d="M766.462,24.698l-46.206,19.831c-0.494-0.207-1.013-0.348-1.544-0.42l-19.9-1.484l41.571-18.841
	C749.427,26.571,762.043,25.453,766.462,24.698z"/>
<path class="st1" d="M728.485,4.248l-45.173,20.2c-0.086-0.133-0.231-0.215-0.389-0.22l-22.059-2.125l41.145-18.426
	c0,0,1.13-0.32,1.135-0.319C712.11,6.148,724.038,5.003,728.485,4.248z"/>
<path class="st2" d="M767.974,159.894l-0.4-135.8c-0.003-0.157-0.077-0.303-0.2-0.4c-0.117-0.08-0.259-0.115-0.4-0.1
	c-0.2,0-14.3,3.219-26.073-0.2c0.433-0.459,0.551-1.132,0.3-1.711c-0.5-0.7-1.812-0.5-4.429,0.5
	c-1.162,0.45-3.426,1.386-6.341,2.612l-0.1-21.233c-0.003-0.157-0.077-0.303-0.2-0.4c-0.117-0.079-0.259-0.115-0.4-0.1
	c-0.1,0-14.352,3.217-26.131-0.243c0.374-0.538,0.715-1.279,0.362-1.774c-0.5-0.705-1.712-0.5-4.43,0.5
	c-6.241,2.418-44.192,18.823-44.594,19.027c-0.187,0.096-0.303,0.29-0.3,0.5l0.062,9.967c-5.28,2.241-24.325,9.664-24.526,9.764
	c-0.187,0.096-0.303,0.29-0.3,0.5l0.794,131.475c-0.705,5.033,11.073,7.046,11.576,7.147c1.664,0.271,3.347,0.405,5.033,0.4
	c1.83,0.06,3.659-0.144,5.431-0.606c0.1,0,0.1,0,0.2-0.1l2.687-2.837l0.034,5.357c-0.806,5.738,13.791,8.052,14.394,8.154
	c2.096,0.347,4.218,0.515,6.342,0.5c4.024,0,6.644-0.6,6.741-0.909c0.1,0,0.1,0,0.2-0.1l8.276-7.99l-0.02,9.806
	c0,0.6,0.7,2.818,11.174,5.436c4.63,1.243,9.4,1.885,14.194,1.912c2.315,0,3.725-0.2,3.927-0.2c0.1,0,0.1-0.1,0.2-0.1l43.588-30.8
	c1.164-0.95,2.095-2.156,2.718-3.523C767.866,162.905,768.074,161.397,767.974,159.894z M764.868,24.994l-44.716,19.261
	c-0.091-0.135-0.238-0.22-0.4-0.232l-20.651-1.541l40.885-18.29c9.382,2.897,20.297,1.588,24.882,0.804V24.994z M736.968,22.883
	c1-0.506,2.101-0.781,3.221-0.805c-0.105,0.383-0.313,0.731-0.6,1.006l-42.078,18.925c-0.133,0.077-0.24,0.192-0.306,0.331
	l-4.425-0.33c-0.034,0.003-0.067,0.01-0.1,0.02v-0.222c3.617-1.609,38.347-16.608,44.288-18.923V22.883z M727.727,4.356
	l-44.72,19.262c-0.091-0.134-0.239-0.218-0.4-0.23l-20.659-1.544l40.779-18.3l0.012,0.008c9.306,2.903,20.371,1.592,24.986,0.805
	L727.727,4.356z M699.82,2.244c1-0.506,2.101-0.781,3.221-0.805c-0.106,0.384-0.313,0.732-0.6,1.007l-42.078,18.925
	c-0.141,0.08-0.26,0.193-0.346,0.33l-4.384-0.327l0,0v-0.2C659.252,19.561,693.881,4.561,699.82,2.244z M652.005,41.909
	c-0.2,0-0.3,0.2-0.3,0.4v0.018c-0.033-0.01-0.066-0.016-0.1-0.018c-0.17,0-9.236,0.924-16.665-0.457l19.766-7.772l0.04,6.457
	L652.005,41.909z M654.698,33.061l-20.712,8.143c-0.039,0.007-0.077,0.02-0.113,0.038c-0.13,0.067-0.215,0.197-0.224,0.342
	c-0.503-0.117-0.994-0.246-1.473-0.387c4.624-1.8,17.735-6.955,22.517-8.984L654.698,33.061z M642.338,178.916
	c-4.328-0.7-11.174-3.02-10.771-6.04l-0.7-131.1c4.1,1.452,9.433,1.845,13.693,1.845c3.921,0,6.838-0.4,7.147-0.4l0.2,135.5
	c-0.001,0.019-0.001,0.038,0,0.057c0.005,0.037,0.015,0.073,0.029,0.108C648.766,179.492,645.511,179.502,642.338,178.916z
	 M652.911,178.173l-0.2-135.456l2.042-1.021l0.835,133.648L652.911,178.173z M670.223,189.082
	c-5.537-0.906-14.093-3.523-13.59-7.047l-0.04-6.34c0.087-0.151,0.087-0.336,0-0.487l-0.956-152.826l26.67,1.99l0.1,164.611
	c-0.001,0.015-0.001,0.029,0,0.044c-4.03,0.696-8.147,0.714-12.183,0.056L670.223,189.082z M691.363,180.625l-7.952,7.674
	l-0.1-163.7L729.32,4.852l0.1,18.719v1.409c-0.001,0.02-0.001,0.039,0,0.059c0.005,0.056,0.019,0.11,0.043,0.161
	c-13,5.48-36.97,15.848-37.29,16.009c-0.187,0.096-0.303,0.29-0.3,0.5l-0.279,138.8c-0.084,0.018-0.163,0.058-0.226,0.117
	L691.363,180.625z M703.042,196.03c-9.764-2.416-10.469-4.429-10.469-4.429l0,0l0.1-148.6c0.033,0.01,0.066,0.017,0.1,0.02
	l26.677,1.991l0.7,152.43c-0.001,0.019-0.001,0.038,0,0.057c0.008,0.102,0.049,0.198,0.118,0.273
	c-5.799,0.392-11.623-0.197-17.226-1.741V196.03z M766.361,163.918c-0.614,1.175-1.432,2.232-2.416,3.121l-42.783,30.276
	l-0.7-152.081l46.006-19.745l0.4,134.4c0.107,1.364-0.065,2.735-0.507,4.03V163.918z"/>
<path class="st16" d="M657.487,131.907c-2.016,0.2-4.638,0.908-6.452-0.6c-0.489-0.456-0.928-0.963-1.31-1.512
	c-0.3-0.4-0.907-0.4-1.21-0.806c-0.374-0.803-0.645-1.649-0.806-2.52c-0.3-0.907-0.907-1.512-0.706-2.622
	c0.3-2.419,1.512-2.822,2.621-4.838c1.008-1.815,1.714-5.24,2.621-7.158c0.3-0.6,1.009-0.908,1.513-1.412
	c1.915-2.117,3.125-5.545,6.653-5.24c3.326,0.3,5.846,2.016,8.468,3.831c1.412,1.008,3.024,1.613,4.133,2.924
	c1.814,2.318,2.117,5.847,3.427,8.468c0.3,0.6,0.5,1.311,0.807,1.915c0.907,1.613,3.932,3.932,2.016,5.847
	c-0.732,0.595-1.507,1.134-2.319,1.613c-1.209,0.806-2.117,1.815-3.629,2.218c-1.613,0.5-3.529,0.2-5.141,0.2
	c-1.714,0-3.327,0.3-5.04,0.3c-1.412,0-2.823-0.3-4.335-0.3C658.366,132.09,657.929,131.987,657.487,131.907z"/>
<path class="st3" d="M658.394,141.283c-0.806-0.1-1.109-1.109-1.714-1.714c-0.384-0.284-0.724-0.624-1.008-1.008
	c-0.1-0.2-1.21-1.411-1.008-1.713c0.1-0.2,1.008-0.3,1.21-0.4c1.047-0.506,1.949-1.269,2.621-2.218c0.2-0.3,0.6-0.806,0.5-1.109
	s-0.706-0.5-0.908-0.706c-0.713-0.682-1.325-1.463-1.815-2.319c-1.037-2.036-1.783-4.208-2.218-6.451
	c-0.3-1.613-0.706-2.722-0.2-4.335c0.706-2.218,3.024-4.536,5.647-4.032c2.42,0.5,3.629,2.823,5.545,4.032
	c1.014,0.485,2.184,0.521,3.226,0.1c0.807-0.4,1.411-1.311,2.42-0.907s1.21,2.016,1.008,2.924c-0.3,1.31-0.907,2.419-1.21,3.73
	c-0.304,2.386-0.202,4.805,0.3,7.157c0.268,1.415,1.155,2.636,2.419,3.327c0.3,0.2,2.521,0.907,2.319,1.311
	c-2.218,3.528-7.56,5.041-11.593,4.839C662.077,141.767,660.225,141.597,658.394,141.283z"/>
<path class="st3" d="M645.894,159.829c0.706-0.2,0.3-2.52,0.4-3.327s0.807-2.117,0.5-2.924c-0.2-0.5-1.008-0.806-1.31-0.907
	c-1.363-0.725-2.894-1.073-4.436-1.008c-1.311,0.3-1.512,1.109-1.815,2.218c-0.375,1.149-0.645,2.33-0.806,3.528
	c0,0.4-0.5,1.916-0.1,2.218c0.731,0.424,1.58,0.6,2.419,0.5C642.466,160.33,644.209,160.23,645.894,159.829z"/>
<path class="st3" d="M679.564,155.799c0.3,1.008,0.3,2.318,0.5,3.427c0.848,3.38,1.454,6.817,1.814,10.283
	c0.1,1.008,0.4,1.915,0.5,2.923c0,0.3,0.2,0.806,0.1,1.109s-0.706,0.6-1.008,0.806c-0.985,0.668-2.032,1.242-3.125,1.713
	c-0.457,0.196-0.896,0.432-1.311,0.706c0.038,0.524,0.174,1.037,0.4,1.512c0.2,1.613,0.2,3.125,0.5,4.738c0,0.2,0.2,1.411,0.5,1.512
	s0.806-0.2,1.008-0.3c1.31-0.3,2.52-0.908,3.73-1.31c1.824-0.669,3.608-1.443,5.342-2.319c0.762-0.34,1.474-0.781,2.117-1.311
	c0.908-1.21,0.908-3.226,0.908-4.738s-0.3-2.923-0.4-4.435c-0.2-2.42-0.3-4.839-0.706-7.258c-0.4-2.117-0.4-4.335-0.807-6.452
	c-0.1-0.4-0.2-1.915-0.5-2.218c-0.4-0.4-1.411-0.1-1.815-0.1c-2.016,0.1-3.73-0.1-5.647,0.806
	C681.177,154.891,679.362,155.194,679.564,155.799z"/>
<path class="st3" d="M674.424,210.537c0.806,0-1.411-2.823-1.512-3.528c-0.1-0.908,0.806-1.714,1.008-2.621
	c0.1-0.2,0.2-0.806,0-0.907c-0.706-0.5-2.42-0.2-3.226-0.3c-2.142-0.257-4.264-0.661-6.351-1.21c-0.971-0.355-1.991-0.557-3.024-0.6
	c-0.807,0.1-0.5,1.31-0.706,1.815c-0.4,1.814-0.706,3.932,1.008,5.141c1.21,0.806,2.722,0.806,4.033,1.109
	C668.523,210.149,671.467,210.518,674.424,210.537z"/>
<path class="st17" d="M646.902,138.863c2.508-0.783,5.069-1.389,7.662-1.814c2.478,1.913,5.54,2.91,8.669,2.822
	c5.342-0.1,12.5-3.226,12.5-3.226c1.28,0.524,2.593,0.962,3.931,1.311c2.218,0.5,4.637,0.907,6.452,3.226
	c3.427,4.334,3.327,12.7,3.327,12.7c-1.752-0.106-3.511-0.005-5.24,0.3c-1.595,0.292-3.15,0.765-4.637,1.411l1.209,5.948
	l-1.613,13.71l-3.024,2.117l-30.142-17.339l0.4-6.452l-6.553-1.815C639.947,151.766,642.266,140.778,646.902,138.863z"/>
<path class="st18" d="M627.447,160.939l0.907-0.907l45.464,0.4l1.815,1.109l3.125,26.311l-3.327,2.621l-35.283-0.607l-7.561,0.6
	L627.447,160.939z"/>
<path class="st19" d="M617.063,180.496c2.621-1.21,13.609,0.2,13.609,0.2l1.21,6.149l7.964,2.621l33.266,0.706l5.545-2.52v-2.924
	c0,0,9.476-3.73,15.021-1.814c3.125,1.109,6.452,5.141,3.629,8.972c-1.31,1.713-13,10.383-18.952,11.19
	c-5.045,0.535-10.145,0.09-15.021-1.31l-1.915-0.3c-0.652,0.796-1.009,1.794-1.008,2.823c0.004,1.626,0.171,3.247,0.5,4.839
	l-10.989-2.016c-6.914-1.025-13.64-3.063-19.96-6.048c-9.175-4.637-15.122-7.562-16.735-12.5
	C612.628,186.444,614.845,181.504,617.063,180.496z"/>
<path class="st1" d="M627.043,200.053c0,0,4.335,1.613,9.779,3.327s12.1,3.629,12.1,3.629c-1.454,0.575-2.98,0.949-4.536,1.109
	c-3.025,0.4-7.662,0.5-7.662,0.5l-6.351,0.6c0,0-3.831-1.411-4.637-3.73C624.826,203.178,627.043,200.053,627.043,200.053z"/>
<path class="st1" d="M674.322,203.682c2.386-0.419,4.743-0.992,7.056-1.714c2.299-0.78,4.525-1.758,6.654-2.923
	c0,0,4.032,0.5,5.443,2.621c1.109,1.714-0.3,4.939-1.109,6.15c-1.714,2.823-11.189,2.318-11.189,2.318l-6.351,0.2
	c-0.595-0.985-0.973-2.085-1.109-3.227C673.706,205.938,673.911,204.777,674.322,203.682z"/>
<path class="st2" d="M658.661,125.623c-0.333,0.687-0.047,1.514,0.64,1.848c0.08,0.077,0.19,0.113,0.3,0.1c0.2,0,0.4,0,0.508-0.3
	c0.11-0.253,0.027-0.549-0.2-0.706c-0.407-0.2-0.305-0.3-0.2-0.806c0.237-0.714,0.126-1.497-0.3-2.117l-0.008-0.01
	c-0.168-0.218-0.481-0.259-0.7-0.092c-0.2,0.2-0.305,0.5-0.1,0.706c0.232,0.399,0.268,0.881,0.1,1.31
	C658.684,125.578,658.673,125.601,658.661,125.623z"/>
<path class="st2" d="M656.077,124.144c-0.305,0.2-0.305,0.6-0.1,1.008c0.013,0.029,0.029,0.058,0.046,0.085
	c0.207,0.325,0.637,0.422,0.963,0.217c0.305-0.2,0.305-0.6,0.1-1.008C656.785,124.144,656.385,123.944,656.077,124.144z"/>
<path class="st2" d="M663.839,123.639c-0.008-0.015-0.015-0.029-0.024-0.044c-0.2-0.343-0.641-0.459-0.983-0.258c0,0,0,0-0.001,0
	c-0.305,0.2-0.305,0.6-0.1,1.008c0.013,0.029,0.028,0.056,0.045,0.083c0.206,0.326,0.636,0.423,0.963,0.219
	C664.042,124.448,664.042,124.045,663.839,123.639z"/>
<path class="st2" d="M667.67,120.414c0.3-0.1,0.5-0.3,0.4-0.6s-0.3-0.505-0.6-0.4c-1.714,0.4-2.823-0.806-3.932-2.117
	c-1.21-1.512-2.722-3.125-5.041-2.016c-0.213,0.167-0.293,0.452-0.2,0.706c0.174,0.202,0.452,0.28,0.706,0.2
	c1.613-0.706,2.52,0.2,3.932,1.714c1.109,1.209,2.318,2.52,4.032,2.52L667.67,120.414z"/>
<path class="st2" d="M664.745,122.028c0.056-0.278-0.123-0.548-0.4-0.606c-0.969-0.262-1.999-0.192-2.923,0.2
	c-0.245,0.144-0.333,0.455-0.2,0.706c0.1,0.2,0.2,0.3,0.4,0.3c0.11,0.013,0.22-0.024,0.3-0.1c0.701-0.31,1.492-0.346,2.218-0.1
	C664.417,122.484,664.688,122.305,664.745,122.028z"/>
<path class="st2" d="M657.388,122.832c0.008-0.018,0.014-0.037,0.019-0.056c0.063-0.24-0.081-0.485-0.321-0.548c0,0,0,0,0,0
	c-0.817-0.318-1.73-0.282-2.52,0.1c-0.201,0.174-0.28,0.452-0.2,0.706c0.096,0.187,0.29,0.303,0.5,0.3l0.1-0.1
	c0.578-0.228,1.215-0.263,1.815-0.1C656.985,123.235,657.286,123.035,657.388,122.832z"/>
<path class="st2" d="M670.088,124.346c0.1,0,0.1,0,0.2-0.2c1.712-0.706,2.419-3.125,1.915-4.839
	c-0.242-0.844-0.949-1.472-1.815-1.613c-0.867,0.034-1.625,0.593-1.915,1.411l-0.013,0.022c-0.133,0.254-0.035,0.568,0.219,0.701
	c0.254,0.133,0.568,0.035,0.701-0.22c0.3-0.5,0.6-0.806,1.008-0.806s0.7,0.4,0.908,0.907c0.3,1.21-0.2,3.125-1.412,3.629
	c-0.3,0.2-0.4,0.4-0.3,0.706C669.68,124.233,669.876,124.35,670.088,124.346z"/>
<path class="st2" d="M669.786,122.43c0.019,0.001,0.038,0.001,0.057,0c0.261-0.016,0.461-0.239,0.448-0.5
	c0.036-0.416,0.212-0.807,0.5-1.109l0.016-0.016c0.203-0.187,0.216-0.504,0.028-0.707c-0.187-0.203-0.504-0.216-0.707-0.028
	c-0.016,0.014-0.03,0.03-0.044,0.046c-0.525,0.497-0.818,1.192-0.807,1.915c0.032,0.246,0.253,0.423,0.5,0.4L669.786,122.43z"/>
<path class="st2" d="M696.6,183.723c-1.706-1.334-4.45-2.557-10.51-1.589c1.543-0.557,3.008-1.31,4.359-2.24
	c1.31-1.008,1.31-4.539,0.907-9.779c-0.2-2.015-0.5-4.94-0.807-7.662c-0.2-2.52-0.5-4.839-0.6-6.149l-0.1-1.513
	c-0.014-0.192-0.029-0.388-0.043-0.581c0.152-0.088,0.246-0.249,0.249-0.425c0.001-0.206-0.125-0.392-0.317-0.467
	c-0.387-5.043-0.966-10.372-3.72-12.942c-1.714-1.714-4.234-2.319-6.653-2.923c-3.125-0.807-6.048-1.614-7.661-4.234
	c-1.21-2.117-1.111-4.234-0.907-6.855l0.1-0.806c-0.019-0.268-0.232-0.481-0.5-0.5c-0.019-0.001-0.038-0.001-0.057,0
	c-0.261,0.016-0.461,0.239-0.447,0.5l-0.1,0.806c-0.2,2.722-0.3,5.141,1.109,7.46c0.822,1.347,2.027,2.418,3.46,3.078
	c-3.973,1.98-8.403,2.866-12.832,2.566c-2.212-0.098-4.306-1.024-5.866-2.594c1.627-0.506,2.961-1.684,3.663-3.237
	c0.796,0.446,1.692,0.684,2.605,0.691h0.806c3.024-0.4,5.847-3.528,6.755-6.048c0-0.008,0.006-0.016,0.008-0.025
	c0.078-0.252-0.064-0.52-0.316-0.597c-0.252-0.078-0.52,0.064-0.597,0.316c0,0.001-0.001,0.003-0.001,0.004
	c-0.708,2.015-3.125,4.939-5.948,5.342c-3.83,0.5-6.451-4.234-7.056-6.553c-0.1-0.3-0.3-0.5-0.6-0.4s-0.5,0.3-0.4,0.6
	c0.622,2.38,1.969,4.508,3.855,6.088c-0.869,2.814-4.827,3.5-7.081,3.89l-0.907,0.2c-2.116,0.4-4.435,0.806-6.452,3.125
	c-1.8,2.1-3.8,5.895-6.293,19.154l-8.927-0.1c-0.598-0.034-1.183,0.183-1.613,0.6c-0.506,0.605-0.2,1.712-0.2,1.915l3.245,18.566
	c-4.783-0.772-10.982-1.4-13.225-0.425c-2.142,1.155-3.684,3.175-4.234,5.545c-0.523,2.142,0.042,4.404,1.512,6.048
	c3.429,4.032,6.655,5.646,11.091,7.863c0.361,0.181,0.759,0.364,1.171,0.565c-0.953,1.144-1.474,2.586-1.473,4.075
	c0.198,1.733,1.112,3.305,2.52,4.335c0.862,0.674,1.93,1.03,3.024,1.008c0.371,0.035,0.745-0.019,1.092-0.157
	c0.304,0.055,0.614,0.074,0.923,0.056c0.706,0,1.513-0.1,2.219-0.1c0.803-0.108,1.61-0.175,2.42-0.2
	c2.052,0.129,4.111,0.062,6.15-0.2l0.705-0.1c1.615-0.3,3.833-0.706,5.749-1.209c0.007,0,0.011-0.006,0.018-0.008
	c2.958,0.657,5.932,1.223,8.75,1.625c0.3,0,0.5,0.1,0.806,0.1c0.394,0.115,0.8,0.182,1.21,0.2c0.11,0,0.219-0.011,0.326-0.035
	c-0.006,0.012-0.014,0.023-0.023,0.033c0.019-0.012,0.03-0.025,0.047-0.038c0.213-0.042,0.396-0.177,0.5-0.368
	c2.541,0.447,3.749,0.722,4.691,0.912c0.907,0.2,1.714,0.4,3.529,0.706c1.505,0.313,3.031,0.514,4.565,0.6
	c0.06,0.103,0.159,0.177,0.274,0.207h0.1c0.145-0.032,0.278-0.101,0.388-0.2h0.417c1.513,0,3.429-0.3,4.639-0.4h0.2
	c1.205-0.137,2.419-0.17,3.629-0.1c0.806,0.051,1.613,0.051,2.419,0c0.279-0.029,0.557-0.073,0.832-0.131
	c0.024,0.012,0.049,0.023,0.074,0.031h0.705c2.164-0.089,4.136-1.264,5.245-3.124c1.814-2.424,1.319-5.86-1.105-7.674
	c-0.882-0.66-1.942-1.039-3.043-1.087c4.631-2.623,8.095-5.541,9.085-7.369C699.222,189.268,698.415,185.235,696.6,183.723z
	 M690.45,170.316c0.2,2.318,0.706,7.964-0.5,8.871c-1.481,1.185-4.9,2.565-11.389,4.7l-0.757-6.893
	c1.49-0.666,2.923-1.452,4.286-2.349c1.439-1.094,3.085-1.883,4.839-2.319c0.3-0.1,0.5-0.3,0.4-0.6s-0.3-0.5-0.6-0.4
	c-1.292,0.332-2.526,0.857-3.662,1.556c-0.594-2.989-1.187-6.447-1.683-9.519l-0.2-1.257c0.009-0.086-0.005-0.173-0.04-0.252
	l-0.162-1.011c-0.276-1.766-0.551-3.495-0.81-5.035h0.007c2.7-1.446,6.132-1.509,8.719-1.512c0.015,0.2,0.031,0.4,0.046,0.6
	l0.1,1.613c0.1,1.411,0.3,3.73,0.6,6.25C689.947,165.476,690.247,168.299,690.45,170.316L690.45,170.316z M680.568,164.916
	c0.392,2.76,0.917,5.76,1.516,8.327c0.023,0.055,0.054,0.107,0.091,0.154l-0.593,0.35c-0.577,0.364-1.168,0.706-1.765,1.035
	c-0.174-3.309,0.078-6.626,0.751-9.871L680.568,164.916z M644.785,140.887c1.714-2.016,3.83-2.42,5.847-2.722l0.908-0.2
	c1.042-0.189,2.074-0.432,3.092-0.727c1.417,1.864,3.709,2.949,6.788,3.246c0.635,0.083,1.275,0.117,1.915,0.1
	c4.889,0,10.135-1.731,12.113-3.2c1.215,0.435,2.454,0.798,3.712,1.086c2.419,0.6,4.738,1.21,6.25,2.621
	c2.447,2.355,3.019,7.4,3.4,12.2c-2.664,0-6.017,0.079-8.829,1.457c-0.147-0.845-0.288-1.617-0.418-2.266c-0.1-0.3-0.3-0.5-0.6-0.4
	s-0.506,0.3-0.4,0.6c0.4,1.915,0.908,5.04,1.412,8.266l0.178,1.11c-1.151,4.332-1.623,8.817-1.4,13.294
	c-0.353,0.178-0.708,0.35-1.067,0.516l-1.539-14.012c-0.12-1.22-1.197-2.118-2.419-2.016l-27.264-0.305
	c-0.029-1.424,0.122-2.845,0.448-4.231c0.1-0.445,0.193-0.9,0.279-1.374c0.036-0.089,0.053-0.184,0.049-0.28
	c0.428-2.266,0.315-4.6-0.328-6.814c-0.073-0.254-0.338-0.4-0.592-0.327c-0.254,0.073-0.4,0.338-0.326,0.592
	c0.003,0.012,0.007,0.023,0.011,0.035c0.529,1.831,0.671,3.751,0.418,5.64c-1.902-0.765-3.93-1.172-5.98-1.2
	c1.666-6.718,3.061-9.187,4.342-10.694L644.785,140.887z M640.194,152.566c2.32-0.039,5.711,0.731,6.006,1.315
	c0.002,0.035,0.01,0.069,0.025,0.1c-0.07,0.376-0.147,0.747-0.226,1.116c-0.341,1.449-0.483,2.937-0.425,4.424l-6.839-0.077
	C639.241,156.78,639.727,154.507,640.194,152.566z M627.952,160.538c0.255-0.114,0.528-0.181,0.806-0.2l17.252,0.193
	c0.029,0.006,0.059,0.009,0.089,0.009l0,0l0.026-0.008l27.593,0.309c0.669-0.103,1.295,0.357,1.398,1.026
	c0.009,0.061,0.014,0.123,0.014,0.184l2.722,24.295l0.175,1.217c-0.737,0.282-1.469,0.577-2.19,0.9c-0.4,0.2-1.008,0.5-1.713,0.907
	l-0.58,0.3l-34.4-0.7c-0.07,0.003-0.138,0.021-0.2,0.052c-1.767-0.78-3.586-1.438-5.443-1.968c-0.417-0.139-0.826-0.273-1.224-0.4
	c0.016-0.065,0.019-0.133,0.01-0.2l-4.335-24.8c-0.108-0.364-0.109-0.751-0.004-1.116L627.952,160.538z M653.304,196.757
	c-2.9-1.433-5.714-3.044-8.215-4.467c-1.475-0.777-2.831-1.613-4.068-2.279l30.612,0.627c-4.894,2.43-12.421,5.75-18.175,6.089
	c-0.054,0.001-0.107,0.011-0.158,0.03L653.304,196.757z M625.934,203.989c0.049-1.306,0.562-2.552,1.446-3.514
	c0.163,0.085,0.343,0.173,0.534,0.264c-1.114,1.072-1.595,2.643-1.274,4.155c0.367,1.26,1.162,2.353,2.248,3.09
	c-0.295-0.124-0.575-0.281-0.836-0.466C626.842,206.729,626.061,205.428,625.934,203.989z M643.98,207.611l-0.706,0.1
	c-1.971,0.26-3.964,0.327-5.948,0.2c-0.877,0.02-1.752,0.087-2.622,0.2c-0.954,0.152-1.924,0.183-2.886,0.093
	c-0.016-0.005-0.032-0.009-0.048-0.011c-0.099-0.02-0.197-0.048-0.292-0.082c-1.109-0.3-3.327-1.613-3.831-3.528
	c-0.22-1.275,0.244-2.573,1.223-3.419c6.043,2.391,12.258,4.323,18.591,5.779c-1.233,0.246-2.475,0.475-3.481,0.664V207.611z
	 M658.694,208.219c-2.783-0.4-5.715-0.958-8.631-1.6c-0.106-0.127-0.281-0.173-0.435-0.114l-0.041,0.009
	c-6.92-1.499-13.708-3.552-20.3-6.137c-0.02-0.089-0.065-0.17-0.129-0.234c-0.154-0.145-0.383-0.177-0.57-0.078
	c-0.3-0.139-0.58-0.274-0.824-0.4c-0.021-0.078-0.062-0.15-0.118-0.209c-0.146-0.141-0.362-0.181-0.548-0.1
	c-0.482-0.24-0.951-0.5-1.37-0.706c-4.333-2.218-7.459-3.73-10.785-7.661c-1.252-1.396-1.741-3.316-1.311-5.141
	c0.526-2.082,1.871-3.864,3.73-4.94c1.9-0.8,8.085-0.308,13.01,0.588l0.839,4.8c-2.274-0.785-4.035-1.564-4.571-2.866
	c-0.2-0.3-0.4-0.4-0.706-0.3c-0.3,0.2-0.4,0.4-0.3,0.706c0.807,2.017,3.932,3.025,7.459,4.134c2.189,0.56,4.317,1.337,6.352,2.318
	c1.509,0.706,3.223,1.714,5.138,2.823c4.862,2.711,10.764,6.113,16.42,7.719c-0.661,0.706-1.082,1.603-1.2,2.563
	c-0.136,1.699-0.027,3.408,0.324,5.076c-0.212-0.036-0.422-0.08-0.63-0.137c-0.303-0.015-0.503-0.116-0.803-0.116V208.219z
	 M666.359,208.928c-1.109-0.2-2.319-0.5-5.243-1.008c-0.033-0.001-0.067,0.001-0.1,0.006c-0.251-1.433-0.319-2.892-0.2-4.342
	c0.046-0.595,0.238-1.17,0.559-1.674l0.248,0.063c3.508,1.198,7.181,1.844,10.887,1.915h0.908c0.139,0,0.279-0.007,0.418-0.009
	c-0.003,0.363-0.113,0.717-0.318,1.016c-0.482,0.708-0.662,1.579-0.5,2.42c0.17,0.676,0.441,1.321,0.806,1.915
	c0.227,0.291,0.388,0.629,0.47,0.99c-1.479-0.09-2.949-0.286-4.4-0.588c-1.721-0.405-2.527-0.504-3.535-0.707L666.359,208.928z
	 M686.221,209.728h-2.318c-1.277-0.07-2.558-0.037-3.83,0.1h-0.2c-1.536,0.27-3.093,0.404-4.653,0.4
	c-0.089-0.539-0.291-1.054-0.593-1.509c-0.277-0.47-0.479-0.98-0.6-1.512c-0.11-0.634,0.033-1.286,0.4-1.815
	c0.327-0.448,0.491-0.995,0.466-1.549c1.301-0.064,2.597-0.22,3.876-0.467c1.423-0.371,2.807-0.877,4.133-1.512l0.3-0.1
	c1.075-0.464,2.188-0.835,3.327-1.109l0.3-0.1c1.008-0.3,4.033,0.5,4.739,2.218l0.006,0.018c0.042,0.116,0.127,0.212,0.238,0.266
	c0.353,1.316,0.116,2.721-0.65,3.849C690.004,208.521,688.2,209.551,686.221,209.728L686.221,209.728z M692.873,202.068
	c0.908,1.411,0.706,3.225-0.4,4.939c-0.393,0.59-0.879,1.113-1.439,1.548c0.342-0.32,0.656-0.669,0.937-1.044
	c0.985-1.45,1.245-3.273,0.706-4.94c-0.047-0.136-0.154-0.243-0.29-0.29c-0.863-1.379-2.29-2.309-3.9-2.541
	c0.086-0.001,0.172,0.003,0.257,0.011c1.683,0.014,3.242,0.889,4.129,2.319L692.873,202.068z M697.206,190.878
	c-1.209,2.218-6.754,6.451-13.407,9.274c-0.184,0.092-0.31,0.27-0.336,0.474c-0.258,0.105-0.514,0.215-0.767,0.332l-0.305,0.1
	c-1.296,0.598-2.646,1.07-4.032,1.411c-1.268,0.294-2.561,0.465-3.861,0.512c-0.088-0.035-0.186-0.038-0.276-0.008
	c-0.019,0.006-0.034,0.017-0.051,0.024c-0.552,0.013-1.106,0.009-1.659-0.024c-3.085-0.05-6.147-0.544-9.092-1.465
	c-0.079-0.378-0.274-0.723-0.557-0.986c-0.069-0.132-0.19-0.23-0.334-0.271c-2.586-0.631-5.099-1.527-7.5-2.675
	c6.415-0.863,14.154-4.64,18.529-6.9h0.061c0.179-0.002,0.343-0.1,0.43-0.256l0.477-0.249c0.705-0.3,1.31-0.6,1.714-0.806
	c1.861-0.846,3.781-1.553,5.746-2.117c2.194-0.443,4.261-1.373,6.048-2.722l0.021-0.016c0.218-0.173,0.255-0.49,0.083-0.708
	c-0.173-0.218-0.49-0.255-0.708-0.083c-1.713,1.412-3.427,1.915-5.746,2.621c-0.93,0.262-1.848,0.558-2.757,0.881l-0.248-2.261
	c12.818-4.132,16.117-1.537,17.32-0.535c1.411,1.215,2.115,4.741,1.207,6.455L697.206,190.878z"/>
<path class="st2" d="M659.201,130.799c0.474,0.216,0.992,0.318,1.512,0.3c0.867,0.027,1.729-0.146,2.519-0.506l0.022-0.013
	c0.252-0.136,0.347-0.451,0.211-0.703c-0.136-0.252-0.451-0.347-0.703-0.211c-0.011,0.006-0.023,0.013-0.033,0.02
	c-0.956,0.41-2.023,0.481-3.024,0.2c-0.258-0.125-0.568-0.017-0.693,0.241c-0.116,0.239-0.032,0.527,0.193,0.667L659.201,130.799z"
	/>
<path class="st2" d="M657.688,115.774c0.2-0.2,0.305-0.5,0.1-0.706c-0.508-0.679-1.274-1.117-2.117-1.209
	c-1.046,0.005-2.053,0.4-2.823,1.108l-0.016,0.016c-0.178,0.211-0.15,0.527,0.061,0.704c0.193,0.162,0.476,0.155,0.661-0.015
	c0.553-0.566,1.327-0.861,2.117-0.806c0.554,0.085,1.057,0.372,1.412,0.806c0.11,0.105,0.25,0.175,0.4,0.2
	C657.56,115.863,657.633,115.829,657.688,115.774z"/>
<path class="st2" d="M656.183,116.585c0.3-0.1,0.5-0.3,0.4-0.6s-0.3-0.505-0.6-0.4c-2.017,0.5-2.217,2.016-2.42,3.226
	c-0.1,1.008-0.2,1.915-1.21,2.318c-0.213,0.167-0.293,0.452-0.2,0.706c0.096,0.187,0.29,0.303,0.5,0.3c0.1,0,0.2,0,0.1-0.1
	c1.512-0.705,1.611-2.016,1.814-3.125C654.768,117.593,654.97,116.887,656.183,116.585z"/>
<path class="st2" d="M646.998,126.663l0.1,0.2c0.363,0.659,0.363,1.458,0,2.117c-0.16,0.177-0.146,0.451,0.031,0.612
	c0.049,0.044,0.106,0.076,0.169,0.094h0.2c0.185-0.005,0.363-0.076,0.5-0.2c0.421-0.929,0.421-1.995,0-2.924l-0.1-0.2l-0.3-0.6
	c-0.401-0.739-0.542-1.591-0.4-2.419c0.222-0.818,0.677-1.554,1.31-2.117c0.491-0.491,0.93-1.032,1.311-1.613
	c0.611-1.094,1.02-2.289,1.21-3.528c0.1-0.403,0.2-0.807,0.3-1.21l0.1-0.3c0.196-1.578,1.184-2.947,2.621-3.629l0.025-0.008
	c0.249-0.09,0.377-0.365,0.286-0.613c-0.09-0.249-0.365-0.377-0.614-0.286c-2.318,0.806-2.923,3.125-3.225,4.335l-0.1,0.3
	l-0.305,1.209c-0.187,1.098-0.562,2.155-1.109,3.125c-0.4,0.6-0.806,1.008-1.21,1.512c-0.728,0.724-1.25,1.629-1.512,2.621
	c-0.136,1.036,0.038,2.088,0.5,3.025C646.897,126.26,646.897,126.46,646.998,126.663z"/>
<path class="st2" d="M653.052,131.402c-0.744,0.083-1.486-0.176-2.016-0.706c-0.658-0.632-1.023-1.508-1.008-2.42
	c0-0.278-0.226-0.504-0.504-0.504c-0.278,0-0.504,0.226-0.504,0.504c-0.071,1.218,0.411,2.403,1.311,3.226
	c0.631,0.658,1.508,1.023,2.419,1.008c0.2,0,0.3-0.1,0.506-0.1c0.28-0.048,0.468-0.314,0.42-0.593
	c-0.048-0.28-0.314-0.468-0.593-0.42c-0.009,0.002-0.018,0.003-0.026,0.005H653.052z"/>
<path class="st2" d="M654.965,109.527c0.278,0.056,0.548-0.123,0.606-0.4c0.806-3.224,5.141-3.83,7.157-3.427
	c1.486,0.339,2.87,1.031,4.033,2.016c1.139,0.907,2.438,1.591,3.831,2.016h0.1c0.185-0.004,0.363-0.075,0.5-0.2
	c0.034-0.271-0.136-0.527-0.4-0.6c-1.285-0.413-2.482-1.063-3.529-1.915c-1.274-1.092-2.797-1.853-4.435-2.218
	c-2.318-0.5-7.358,0.3-8.266,4.133C654.512,109.207,654.691,109.471,654.965,109.527z"/>
<path class="st2" d="M671.601,110.838c1.25,0.732,2.211,1.871,2.722,3.226c0.157,0.662,0.257,1.337,0.3,2.016
	c0.138,1.094,0.374,2.174,0.705,3.226c0.096,0.187,0.29,0.303,0.5,0.3c0.1,0,0.1,0,0.1-0.1c0.305-0.2,0.407-0.4,0.305-0.706
	c-0.354-0.937-0.556-1.924-0.6-2.924c-0.001-0.716-0.102-1.429-0.3-2.117c-0.551-1.64-1.704-3.009-3.226-3.831l-0.011-0.006
	c-0.256-0.129-0.568-0.026-0.697,0.23c-0.124,0.246-0.034,0.546,0.204,0.683L671.601,110.838z"/>
<path class="st2" d="M676.035,120.615c0.209,1.283,0.849,2.457,1.815,3.327c0.299,0.31,0.569,0.648,0.806,1.008
	c0.312,0.587,0.42,1.261,0.305,1.915c-0.084,0.659-0.452,1.249-1.008,1.613c-0.245,0.144-0.333,0.455-0.2,0.706
	c0.097,0.123,0.244,0.196,0.4,0.2c0.1,0,0.2-0.1,0.3,0c0.804-0.483,1.356-1.293,1.512-2.218c0.209-0.938,0.029-1.92-0.5-2.722
	c-0.277-0.389-0.58-0.76-0.907-1.109c-0.766-0.735-1.293-1.683-1.512-2.722c0-0.278-0.226-0.504-0.504-0.504
	c-0.278,0-0.504,0.226-0.504,0.504L676.035,120.615z"/>
<path class="st2" d="M677.144,128.28c0.062-0.277-0.111-0.552-0.388-0.615c-0.277-0.062-0.552,0.111-0.615,0.388
	c-0.002,0.009-0.004,0.018-0.005,0.026c-0.4,1.915-1.311,2.722-2.722,2.722c-0.278,0-0.503,0.225-0.503,0.504
	c0,0.278,0.225,0.503,0.503,0.503l0,0C676.337,131.808,676.941,129.188,677.144,128.28z"/>
</svg>
