<?xml version="1.0" encoding="utf-8"?>
<!-- Generator: Adobe Illustrator 27.3.1, SVG Export Plug-In . SVG Version: 6.00 Build 0)  -->
<!DOCTYPE svg PUBLIC "-//W3C//DTD SVG 1.1//EN" "http://www.w3.org/Graphics/SVG/1.1/DTD/svg11.dtd" [
	<!ENTITY ns_extend "http://ns.adobe.com/Extensibility/1.0/">
	<!ENTITY ns_ai "http://ns.adobe.com/AdobeIllustrator/10.0/">
	<!ENTITY ns_graphs "http://ns.adobe.com/Graphs/1.0/">
	<!ENTITY ns_vars "http://ns.adobe.com/Variables/1.0/">
	<!ENTITY ns_imrep "http://ns.adobe.com/ImageReplacement/1.0/">
	<!ENTITY ns_sfw "http://ns.adobe.com/SaveForWeb/1.0/">
	<!ENTITY ns_custom "http://ns.adobe.com/GenericCustomNamespace/1.0/">
	<!ENTITY ns_adobe_xpath "http://ns.adobe.com/XPath/1.0/">
]>
<svg version="1.1" id="Layer_1" xmlns:x="&ns_extend;" xmlns:i="&ns_ai;" xmlns:graph="&ns_graphs;"
	 xmlns="http://www.w3.org/2000/svg" xmlns:xlink="http://www.w3.org/1999/xlink" x="0px" y="0px" width="120px" height="37px"
	 viewBox="0 0 120 37" style="enable-background:new 0 0 120 37;" xml:space="preserve">
<style type="text/css">
	.st0{fill:#070406;}
	.st1{fill:#FFCE00;}
	.st2{fill:#FFFFFF;}
	.st3{opacity:0.45;}
	.st4{opacity:0.6;}
</style>
<metadata>
	<sfw  xmlns="&ns_sfw;">
		<slices></slices>
		<sliceSourceBounds  bottomLeftOrigin="true" height="37" width="120" x="0" y="0"></sliceSourceBounds>
	</sfw>
</metadata>
<path class="st0" d="M119.344,19.401c-0.46-0.446-1.007-0.791-1.608-1.012c-0.774-0.301-1.57-0.54-2.382-0.715
	c-0.238-0.06-0.476-0.119-0.774-0.179c-0.287-0.044-0.567-0.124-0.834-0.238c-0.274-0.065-0.523-0.211-0.715-0.417
	c-0.119-0.129-0.184-0.3-0.179-0.476c-0.013-0.225,0.074-0.445,0.238-0.6c0.212-0.165,0.455-0.287,0.714-0.357
	c0.333-0.072,0.672-0.112,1.012-0.119c0.665,0.012,1.326,0.113,1.965,0.3c0.295,0.103,0.575,0.243,0.834,0.417l0.179,0.06l0,0
	c0.133,0.049,0.275,0.069,0.417,0.06c0.658,0.032,1.217-0.474,1.249-1.132c0.019-0.395-0.159-0.774-0.475-1.012
	c-0.064-0.032-0.125-0.072-0.179-0.119c-0.367-0.238-0.769-0.419-1.191-0.536c-0.792-0.239-1.614-0.359-2.441-0.357
	c-0.852-0.012-1.698,0.13-2.5,0.417c-0.688,0.233-1.29,0.669-1.727,1.25c-0.427,0.566-0.657,1.256-0.655,1.965
	c0.003,0.57,0.168,1.128,0.476,1.608c0.371,0.466,0.866,0.817,1.429,1.012c0.696,0.292,1.412,0.531,2.144,0.715l0.893,0.179
	c0.357,0.059,0.655,0.119,0.893,0.179c0.341,0.077,0.665,0.218,0.953,0.417c0.157,0.106,0.247,0.287,0.238,0.476
	c0.017,0.332-0.172,0.64-0.476,0.774c-0.582,0.248-1.215,0.351-1.846,0.3c-0.671,0.003-1.337-0.118-1.965-0.357
	c-0.414-0.164-0.813-0.365-1.191-0.6l-0.179-0.06l0,0c-0.15-0.067-0.312-0.108-0.476-0.119c-0.66,0.018-1.2,0.532-1.25,1.191
	c-0.009,0.317,0.121,0.622,0.357,0.834c0.119,0.06,0.179,0.179,0.3,0.238c0.484,0.317,1.004,0.576,1.548,0.774
	c0.943,0.307,1.927,0.468,2.918,0.476c1.244,0.082,2.481-0.254,3.513-0.953c0.893-0.599,1.429-1.604,1.429-2.679
	c-0.033-0.594-0.263-1.16-0.655-1.608"/>
<path class="st0" d="M106.9,13.446c-0.779-0.01-1.419,0.614-1.429,1.393c0,0.012,0,0.024,0,0.036v3.271
	c0.047,0.982-0.248,1.95-0.834,2.739c-1.303,1.39-3.482,1.47-4.883,0.179l-0.179-0.179c-0.567-0.776-0.86-1.718-0.834-2.679v-3.271
	c-0.004-0.789-0.646-1.426-1.435-1.423c-0.784,0.004-1.419,0.638-1.423,1.423v3.511c-0.057,1.668,0.541,3.293,1.667,4.525
	c2.638,2.322,6.591,2.322,9.229,0c1.126-1.232,1.724-2.857,1.667-4.525v-3.571c-0.105-0.787-0.755-1.387-1.548-1.429"/>
<path class="st0" d="M58.431,7.968c-0.254-0.297-0.624-0.47-1.015-0.476c-0.744-0.013-1.357,0.58-1.37,1.324
	c0,0.015,0,0.031,0,0.046v4.525c-1.325-0.951-2.983-1.316-4.585-1.012c-3.463,0.553-5.83,3.798-5.3,7.264
	c0.496,3.073,3.139,5.339,6.252,5.359c0.419-0.01,0.837-0.05,1.25-0.119c3.022-0.566,5.19-3.238,5.121-6.312v-1.191l0,0V8.862
	c0.037-0.339-0.097-0.673-0.357-0.893 M56.045,18.925c-0.131,1.973-1.838,3.467-3.811,3.335c-1.973-0.131-3.467-1.838-3.335-3.811
	c0.119-1.79,1.545-3.216,3.335-3.335h0.238c1.971,0.005,3.568,1.602,3.573,3.573V18.925"/>
<path class="st0" d="M91.657,7.313c-0.744-0.013-1.357,0.58-1.37,1.324c0,0.015,0,0.031,0,0.046v13.873
	c-0.013,0.744,0.58,1.357,1.324,1.37c0.015,0,0.031,0,0.046,0c0.377-0.012,0.736-0.16,1.012-0.417
	c0.237-0.236,0.366-0.559,0.357-0.893V8.623c0.009-0.317-0.121-0.622-0.357-0.834C92.423,7.483,92.05,7.307,91.657,7.313"/>
<path class="st0" d="M85.643,13.744c-2.812-2.088-6.785-1.501-8.873,1.311c-0.83,1.118-1.269,2.477-1.249,3.869v9.766
	c-0.009,0.317,0.121,0.622,0.357,0.834C76.132,29.82,76.5,29.993,76.89,30c0.744,0.013,1.357-0.58,1.37-1.324
	c0-0.015,0-0.031,0-0.046v-4.525c1.325,0.951,2.983,1.316,4.585,1.012c3.365-0.498,5.718-3.591,5.3-6.967
	c-0.158-1.761-1.07-3.367-2.5-4.406 M81.894,22.437L81.894,22.437c-1.971-0.005-3.568-1.602-3.573-3.573
	c-0.022-1.891,1.447-3.464,3.334-3.573h0.238c1.973,0.033,3.546,1.659,3.513,3.632C85.373,20.85,83.819,22.404,81.894,22.437"/>
<path class="st0" d="M72.066,13.446c-0.814-0.008-1.481,0.645-1.489,1.459c0,0.01,0,0.02,0,0.03v3.275
	c0.047,0.982-0.248,1.95-0.834,2.739c-1.303,1.389-3.482,1.469-4.883,0.179l-0.179-0.179c-0.576-0.794-0.87-1.758-0.834-2.739
	v-3.275c0.017-0.806-0.623-1.472-1.429-1.489c-0.806-0.017-1.472,0.623-1.489,1.429l0,0v3.632c-0.048,1.685,0.548,3.324,1.667,4.585
	c2.364,2.565,6.359,2.729,8.925,0.365c1.361-1.254,2.103-3.041,2.031-4.89v-3.573c-0.009-0.829-0.661-1.507-1.489-1.548"/>
<circle class="st1" cx="18.5" cy="18.5" r="18.5"/>
<path class="st2" d="M16.112,19.885L16.112,19.885z"/>
<path class="st2" d="M29.024,19.978c-0.192-0.213-0.465-0.336-0.752-0.337c-0.529,0.006-0.967,0.41-1.017,0.936
	c-0.116,1.885-1.545,3.426-3.416,3.683c-0.916,0.103-1.836-0.154-2.566-0.717c-0.934-0.706-1.52-1.779-1.61-2.947
	c-0.044-0.532-0.486-0.943-1.02-0.949c-0.279-0.001-0.546,0.115-0.736,0.32c-0.202,0.216-0.306,0.505-0.289,0.8
	c0.149,1.977,1.234,3.763,2.918,4.808c0.882,0.535,1.894,0.817,2.925,0.817c1.279,0,2.52-0.437,3.516-1.24
	c1.345-1.07,2.183-2.651,2.315-4.364C29.321,20.492,29.223,20.198,29.024,19.978z"/>
<path class="st2" d="M15.825,11.008c-0.201-0.22-0.484-0.345-0.782-0.346c-0.59,0-1.068,0.478-1.068,1.068v4.49
	c-1.196-0.993-2.771-1.404-4.3-1.12c-2.94,0.441-5.001,3.134-4.657,6.087c0.173,1.547,0.984,2.952,2.238,3.874
	c1.254,0.923,2.836,1.279,4.364,0.984c2.636-0.513,4.528-2.839,4.493-5.524c0-0.2,0-0.413,0-0.637v-8.23
	C16.112,11.408,16.007,11.174,15.825,11.008L15.825,11.008z M13.969,20.79c-0.11,1.722-1.479,3.096-3.2,3.213
	c-0.946,0.063-1.875-0.268-2.568-0.915c-0.693-0.647-1.088-1.552-1.09-2.5c0.003-1.888,1.525-3.422,3.413-3.44
	c0.95-0.006,1.86,0.383,2.513,1.073c0.653,0.69,0.991,1.62,0.933,2.568L13.969,20.79z"/>
<g transform="translate(19.957 2.317)" class="st3">
	<path class="st2" d="M10.634,12.712h-4.63c-0.566,0-1.025-0.459-1.025-1.025s0.459-1.025,1.025-1.025h4.634
		c0.566,0,1.025,0.459,1.025,1.025s-0.459,1.025-1.025,1.025C10.637,12.712,10.635,12.712,10.634,12.712z"/>
</g>
<g transform="translate(22.275 0)" class="st4">
	<path class="st2" d="M6,18.626c-0.566,0-1.025-0.459-1.025-1.025v-5.914c0-0.566,0.459-1.025,1.025-1.025s1.025,0.459,1.025,1.025
		v5.914C7.025,18.167,6.566,18.626,6,18.626z"/>
</g>
<path class="st2" d="M30.591,12.98H29.3v-1.293c0-0.566-0.458-1.024-1.024-1.024l0,0c-0.567,0-1.026,0.459-1.026,1.026l0,0v1.773
	c0,0.865,0.701,1.566,1.566,1.566h1.776c0.566,0,1.024-0.458,1.024-1.024c0,0,0,0,0,0c-0.001-0.566-0.46-1.025-1.026-1.025
	L30.591,12.98z"/>
</svg>
