<svg xmlns="http://www.w3.org/2000/svg" width="156" height="55" viewBox="0 0 156 55">
  <defs>
    <style>
      .cls-1 {
        fill: #ffce00;
      }

      .cls-2 {
        fill: #fff;
      }

      .cls-3 {
        fill: #070406;
      }
    </style>
  </defs>
  <g id="logo" transform="translate(-410 -21)">
    <g id="그룹_1419" data-name="그룹 1419" transform="translate(234.462 -596.038)">
      <circle id="타원_53" data-name="타원 53" class="cls-1" cx="27.5" cy="27.5" r="27.5" transform="translate(175.538 672.038) rotate(-90)"/>
      <g id="그룹_849" data-name="그룹 849" transform="translate(182.938 632.864)">
        <path id="패스_4864" data-name="패스 4864" class="cls-2" d="M171.175-69.219s0-.008,0-.011v-.7c0,.006,0,.011,0,.017Z" transform="translate(-154.659 82.909)"/>
        <path id="패스_4865" data-name="패스 4865" class="cls-2" d="M193.942-68.5a1.512,1.512,0,0,0-1.116-.5,1.533,1.533,0,0,0-1.509,1.389,5.883,5.883,0,0,1-5.071,5.467,5.269,5.269,0,0,1-3.809-1.065,6.067,6.067,0,0,1-2.39-4.374,1.536,1.536,0,0,0-1.514-1.408,1.49,1.49,0,0,0-1.093.475,1.6,1.6,0,0,0-.429,1.185,9.217,9.217,0,0,0,4.332,7.137,8.37,8.37,0,0,0,4.342,1.213,8.314,8.314,0,0,0,5.219-1.84,9.175,9.175,0,0,0,3.437-6.478A1.564,1.564,0,0,0,193.942-68.5Z" transform="translate(-158.259 82.329)"/>
        <path id="패스_4866" data-name="패스 4866" class="cls-2" d="M143.849-103.543a1.575,1.575,0,0,0-1.161-.513,1.585,1.585,0,0,0-1.585,1.585v6.665a7.772,7.772,0,0,0-6.384-1.663,8.18,8.18,0,0,0-6.913,9.035,8.28,8.28,0,0,0,9.8,7.21,8.244,8.244,0,0,0,6.67-8.2c0-.293,0-.613,0-.945v-.7c0-.006,0-.011,0-.017v-11.5A1.3,1.3,0,0,0,143.849-103.543Zm-2.755,14.52a5.108,5.108,0,0,1-4.751,4.769,5.092,5.092,0,0,1-5.43-5.067,5.115,5.115,0,0,1,5.067-5.106A5.093,5.093,0,0,1,141.094-89.023Z" transform="translate(-127.766 104.056)"/>
        <g id="그룹_847" data-name="그룹 847" transform="translate(29.61 3.439)">
          <path id="패스_4867" data-name="패스 4867" class="cls-2" d="M213.971-91.969h-6.878a1.521,1.521,0,0,1-1.522-1.521,1.522,1.522,0,0,1,1.522-1.522h6.878a1.522,1.522,0,0,1,1.521,1.522A1.521,1.521,0,0,1,213.971-91.969Z" transform="translate(-205.572 95.012)"/>
        </g>
        <g id="그룹_848" data-name="그룹 848" transform="translate(33.049 0)">
          <path id="패스_4868" data-name="패스 4868" class="cls-2" d="M216.138-92.235a1.521,1.521,0,0,1-1.522-1.521v-8.778a1.522,1.522,0,0,1,1.522-1.522,1.521,1.521,0,0,1,1.521,1.522v8.778A1.521,1.521,0,0,1,216.138-92.235Z" transform="translate(-214.616 104.056)"/>
        </g>
        <path id="패스_4869" data-name="패스 4869" class="cls-2" d="M219.575-100.616h-1.916v-1.919a1.52,1.52,0,0,0-1.52-1.52,1.523,1.523,0,0,0-1.523,1.523V-99.9a2.325,2.325,0,0,0,2.325,2.325h2.637a1.52,1.52,0,0,0,1.52-1.52A1.523,1.523,0,0,0,219.575-100.616Z" transform="translate(-181.567 104.056)"/>
      </g>
    </g>
    <g id="그룹_1465" data-name="그룹 1465" transform="translate(474.006 36.983)">
      <path id="패스_24749" data-name="패스 24749" class="cls-3" d="M684.609,363.217a5.3,5.3,0,0,0-2.005-1.251,27.669,27.669,0,0,0-2.976-.909c-.3-.084-.628-.164-.962-.244-.395-.095-.767-.185-1.008-.266a2.658,2.658,0,0,1-.928-.49.729.729,0,0,1-.23-.589.913.913,0,0,1,.3-.741,2.073,2.073,0,0,1,.931-.445,5.685,5.685,0,0,1,1.232-.135,7.96,7.96,0,0,1,2.453.373,6.281,6.281,0,0,1,1.039.507l.232.1.005-.007a1.57,1.57,0,0,0,.528.091,1.543,1.543,0,0,0,1.565-1.515,1.487,1.487,0,0,0-.592-1.182c-.027-.021-.161-.111-.189-.125a7.058,7.058,0,0,0-1.479-.691,9.8,9.8,0,0,0-3.083-.47,8.877,8.877,0,0,0-3.153.522,5.022,5.022,0,0,0-2.194,1.533,3.862,3.862,0,0,0-.825,2.475,3.229,3.229,0,0,0,.623,2.032,4.413,4.413,0,0,0,1.759,1.274,21.046,21.046,0,0,0,2.7.93c.35.09.743.175,1.122.257.419.091.815.177,1.094.257a3.983,3.983,0,0,1,1.16.5.7.7,0,0,1,.284.631,1.034,1.034,0,0,1-.624.971,5.564,5.564,0,0,1-2.313.41,7.067,7.067,0,0,1-2.471-.463,8.74,8.74,0,0,1-1.488-.741l-.212-.1,0,0a1.6,1.6,0,0,0-.592-.114,1.52,1.52,0,0,0-1.542,1.494,1.464,1.464,0,0,0,.461,1.065,2.638,2.638,0,0,0,.392.266,8.541,8.541,0,0,0,1.929.946,11.253,11.253,0,0,0,3.64.588,7.714,7.714,0,0,0,4.438-1.159,3.882,3.882,0,0,0,1.762-3.363A3.124,3.124,0,0,0,684.609,363.217Z" transform="translate(-593.387 -348.172)"/>
      <path id="패스_24750" data-name="패스 24750" class="cls-3" d="M640.338,356.668a1.825,1.825,0,0,0-1.823,1.823v4.12a5.487,5.487,0,0,1-1.042,3.4,4.32,4.32,0,0,1-6.338-.011,5.476,5.476,0,0,1-1.033-3.388v-4.12a1.823,1.823,0,0,0-3.647,0v4.437a8.3,8.3,0,0,0,2.084,5.694,8.757,8.757,0,0,0,11.54,0,8.292,8.292,0,0,0,2.082-5.691v-4.437A1.826,1.826,0,0,0,640.338,356.668Z" transform="translate(-564.739 -349.061)"/>
      <path id="패스_24751" data-name="패스 24751" class="cls-3" d="M480.034,338.026a1.726,1.726,0,0,0-1.279-.564,1.747,1.747,0,0,0-1.745,1.746v5.656a7.489,7.489,0,0,0-5.712-1.269,7.934,7.934,0,0,0-3.472,14.23,7.964,7.964,0,0,0,4.717,1.574,7.5,7.5,0,0,0,1.536-.158,7.908,7.908,0,0,0,6.42-7.892c0-.051,0-.51,0-1.223V349.8h0c0-3.294,0-10.7,0-10.7A1.453,1.453,0,0,0,480.034,338.026ZM477,351.7a4.51,4.51,0,0,1-4.167,4.182,4.467,4.467,0,1,1-.32-8.923h.016A4.467,4.467,0,0,1,477,351.7Z" transform="translate(-464.6 -337.179)"/>
      <path id="패스_24752" data-name="패스 24752" class="cls-3" d="M610.609,336.719a1.748,1.748,0,0,0-1.746,1.745v17.365a1.748,1.748,0,0,0,1.746,1.745,1.709,1.709,0,0,0,1.263-.549,1.487,1.487,0,0,0,.482-1.09V338.357a1.452,1.452,0,0,0-.466-1.074A1.725,1.725,0,0,0,610.609,336.719Z" transform="translate(-553.854 -336.719)"/>
      <path id="패스_24753" data-name="패스 24753" class="cls-3" d="M573.214,354.821a7.942,7.942,0,0,0-12.673,6.475c0,.273,0,12.142,0,12.142v.106a1.452,1.452,0,0,0,.466,1.075,1.725,1.725,0,0,0,1.279.564,1.748,1.748,0,0,0,1.746-1.746v-5.656a7.492,7.492,0,0,0,5.711,1.268,7.934,7.934,0,0,0,3.472-14.23Zm-4.69,10.863h-.015a4.467,4.467,0,0,1-.3-8.924c.1-.006.194-.009.29-.009a4.466,4.466,0,0,1,.029,8.933Z" transform="translate(-523.957 -346.945)"/>
      <path id="패스_24754" data-name="패스 24754" class="cls-3" d="M526.839,356.674a1.83,1.83,0,0,0-1.828,1.829v4.131a5.5,5.5,0,0,1-1.045,3.409,4.332,4.332,0,0,1-6.355-.012,5.493,5.493,0,0,1-1.036-3.4V358.5a1.828,1.828,0,1,0-3.657,0v4.449a8.318,8.318,0,0,0,2.09,5.709,8.78,8.78,0,0,0,11.572,0,8.316,8.316,0,0,0,2.087-5.706V358.5A1.831,1.831,0,0,0,526.839,356.674Z" transform="translate(-494.494 -349.065)"/>
    </g>
  </g>
</svg>
